<svg width="435" height="261" viewBox="0 0 435 261" fill="none" xmlns="http://www.w3.org/2000/svg">
<path d="M118.042 170.319V202.219H85.9218V170.319H6.7218V134.239L78.4418 41.8394H118.042V140.619H140.922V170.319H118.042ZM85.9218 80.1194L38.8418 140.619H85.9218V80.1194Z" fill="#0D0E10"/>
<path d="M250.296 186.854L250.293 186.856C223.098 200.582 194.787 205.937 170.955 203.392C147.148 200.85 127.532 190.368 118.348 172.137C104.406 144.649 118.682 108.474 149.417 80.9675L150.328 80.1523L151.468 80.5911L164.791 85.7153L167.335 86.6937L165.639 88.8269C152.943 104.791 148.938 122.126 155.736 135.483L155.739 135.489L155.742 135.496C156.938 137.887 158.487 140.151 160.259 142.045L160.62 142.406L160.642 142.428L160.663 142.451C168.065 150.334 179.973 154.769 194.155 155.176C208.311 155.582 224.539 151.959 240.287 143.959L240.291 143.957C258.122 134.947 271.806 122.099 279.56 108.74C287.326 95.3595 289.025 81.7246 283.478 70.8102L250.296 186.854ZM250.296 186.854C277.491 173.062 298.586 153.405 310.657 132.673C322.716 111.961 325.886 89.9183 316.637 71.6888L316.636 71.6872C308.597 55.8762 292.667 45.8649 272.994 41.8583C253.319 37.8513 229.733 39.7991 205.95 48.029L204.021 48.6969L204.728 50.6124L206.906 56.5052L207.605 58.3965M250.296 186.854L207.605 58.3965M207.605 58.3965L209.491 57.6822M207.605 58.3965L209.491 57.6822M209.491 57.6822C217.8 54.5348 225.96 52.529 233.845 51.6518C234.476 51.5887 235.14 51.5255 235.81 51.4617L235.813 51.4615C236.471 51.3987 237.135 51.3355 237.77 51.2721M209.491 57.6822L237.77 51.2721M237.77 51.2721C259.146 49.8978 276.442 56.9772 283.478 70.8096L237.77 51.2721Z" fill="#FF6961" stroke="white" stroke-width="4"/>
<path d="M168.948 128.061L168.948 128.061L168.954 128.072C173.717 137.457 183.751 142.754 195.681 144.031C207.632 145.311 221.756 142.614 235.307 135.742C248.861 128.931 259.391 119.135 265.409 108.728C271.416 98.3402 273.043 87.0903 268.213 77.704C264.081 69.5836 255.936 64.5048 246.047 62.4835C236.155 60.4616 224.353 61.4489 212.483 65.5807L210.528 66.2609L211.275 68.191L216.527 81.7702L217.171 83.4351L218.898 82.9837C224.27 81.5798 229.328 81.5169 233.403 82.5832C237.47 83.6474 240.443 85.7938 241.977 88.7504C243.868 92.488 243.356 97.2784 240.464 102.197C237.581 107.101 232.45 111.881 225.697 115.257C218.939 118.636 212.018 119.912 206.335 119.317C200.629 118.719 196.451 116.293 194.555 112.555L194.555 112.555L194.549 112.543C192.767 109.083 193.071 104.558 195.677 99.8192L196.786 97.8028L194.635 96.9857L178.109 90.7085L176.717 90.1799L175.812 91.3613C166.724 103.215 163.347 116.859 168.948 128.061Z" fill="#FF6961" stroke="white" stroke-width="4"/>
<path d="M214.62 82.2573L214.618 82.2524L209.501 68.9474L209.494 68.9294L205.145 57.2898L205.142 57.2821L205.139 57.2745L202.834 51.2561L202.833 51.2535L187.59 11.2873L185.738 6.43312L183.857 11.2757L168.547 50.6798L129.143 65.9897L124.306 67.8689L129.153 69.722L155.281 79.7123L155.286 79.7142L167.58 84.4522L167.927 84.586H168.058L180.777 89.4492L180.779 89.4502L196.79 95.5981L196.79 95.5982L219.464 104.309L223.648 105.917L222.05 101.729L214.62 82.2573Z" fill="#0D0E10" stroke="white" stroke-width="4"/>
<path d="M403.042 170.319V202.219H370.922V170.319H291.722V134.239L363.442 41.8394H403.042V140.619H425.922V170.319H403.042ZM370.922 80.1194L323.842 140.619H370.922V80.1194Z" fill="#0D0E10"/>
</svg>
