<svg width="38" height="38" viewBox="0 0 38 38" fill="none" xmlns="http://www.w3.org/2000/svg">
<circle cx="14.25" cy="14.25" r="13.75" transform="matrix(-1 0 0 1 33.25 4.75)" stroke="#E9E9E9"/>
<g clip-path="url(#clip0_1009_19736)">
<path d="M21.7073 19C21.7073 18.8297 21.6423 18.6595 21.5125 18.5297L17.4277 14.4449C17.1678 14.185 16.7465 14.185 16.4868 14.4449C16.2271 14.7046 16.2271 15.1258 16.4868 15.3857L20.1013 19L16.4869 22.6143C16.2272 22.8741 16.2272 23.2953 16.4869 23.555C16.7467 23.815 17.168 23.815 17.4278 23.555L21.5126 19.4703C21.6424 19.3404 21.7073 19.1702 21.7073 19Z" fill="#0D0E10"/>
</g>
<defs>
<clipPath id="clip0_1009_19736">
<rect width="9.5" height="9.5" fill="white" transform="matrix(4.37114e-08 1 1 -4.37114e-08 14.25 14.25)"/>
</clipPath>
</defs>
</svg>
