<svg width="319" height="260" viewBox="0 0 319 260" fill="none" xmlns="http://www.w3.org/2000/svg">
<g clip-path="url(#clip0_242_15588)">
<path d="M9.03611 101.579C7.18388 108.571 8.48588 116.016 12.5793 121.978C13.964 123.995 15.1208 125.841 15.6489 127.063C17.1444 130.525 18.5451 129.616 19.3795 130.892C21.4313 134.03 20.5888 140.024 21.7336 142.636C23.2896 146.191 25.4643 145.835 25.4643 145.835L50.1055 143.174C50.1055 143.174 51.2785 139.158 49.6742 132.128C49.0877 129.558 49.1381 123.004 50.6094 119.063C52.6631 113.571 50.6013 106.521 49.3174 99.8845C48.7148 96.7726 47.1951 90.9842 46.3365 88.9385C45.4336 86.782 45.0648 78.3695 41.9186 78.5267C36.3599 78.8028 39.498 99.6386 36.2632 97.3934C32.1274 94.5213 27.9151 90.9862 23.1041 86.649C12.3838 76.9869 11.8417 90.9782 9.03409 101.575L9.03611 101.579Z" fill="#FDAD9B"/>
<path d="M33.2492 129.725C33.1645 129.735 33.0759 129.705 33.0134 129.637C32.959 129.576 31.6771 128.141 31.0382 125.723C30.6633 124.302 30.5928 122.838 30.8246 121.371C31.1148 119.543 31.8807 117.707 33.1021 115.915C33.1867 115.79 33.358 115.758 33.483 115.843C33.6079 115.927 33.6402 116.099 33.5555 116.224C32.3805 117.949 31.6449 119.71 31.3667 121.458C31.145 122.851 31.2136 124.237 31.5683 125.583C32.1729 127.875 33.4064 129.256 33.4185 129.268C33.5213 129.381 33.5112 129.554 33.4003 129.655C33.356 129.695 33.3036 129.717 33.2492 129.723V129.725Z" fill="#F18C7E"/>
<path d="M43.8335 85.1394C43.5473 85.1394 43.1926 85.0769 42.8157 84.8613C42.6625 84.7746 41.9107 84.1397 42.1909 80.1975C42.1989 80.0806 42.2997 79.9939 42.4186 80C42.5355 80.0081 42.6242 80.1108 42.6161 80.2277C42.5013 81.8361 42.5537 84.2224 43.0253 84.4904C43.7166 84.8834 44.293 84.6376 44.3172 84.6275C44.426 84.5811 44.551 84.6275 44.5994 84.7363C44.6477 84.8431 44.5994 84.9681 44.4925 85.0165C44.4744 85.0245 44.2164 85.1374 43.8315 85.1374L43.8335 85.1394Z" fill="#F18C7E"/>
<path d="M22.097 131.374C22.0808 131.374 22.0647 131.376 22.0486 131.374C19.6179 131.225 18.1446 130.354 17.3364 129.649C16.4456 128.873 16.1412 128.127 16.1291 128.097C16.0727 127.956 16.1412 127.796 16.2823 127.74C16.4234 127.684 16.5826 127.752 16.6391 127.893C16.6391 127.893 16.9192 128.568 17.7214 129.258C18.4651 129.897 19.8235 130.687 22.0808 130.826C22.232 130.836 22.3469 130.965 22.3388 131.116C22.3308 131.251 22.226 131.356 22.097 131.372V131.374Z" fill="#F18C7E"/>
<path d="M7.21911 120.273L14.6199 121.72C16.5568 122.52 18.7759 121.597 19.576 119.66C20.3761 117.723 19.4551 115.504 17.5182 114.704L12.4976 112.63C9.06327 111.27 6.19323 110.947 4.90735 114.067C3.09141 118.471 5.34673 119.497 7.21911 120.271V120.273Z" fill="#FDAD9B"/>
<path d="M18.4269 116.798C18.2213 115.684 16.361 115.029 15.2243 115.079C14.3415 115.121 13.4587 116.895 13.239 118.098C13.0234 119.267 13.4446 119.64 13.7167 119.759C14.5773 120.136 16.0748 120.18 16.7339 120.18C16.9092 120.18 17.0281 120.176 17.0543 120.176C17.272 120.176 17.4796 120.059 17.667 119.833C18.1911 119.203 18.5841 117.643 18.4269 116.798ZM17.2297 119.469C17.137 119.577 17.0745 119.608 17.0503 119.608H17.0402C17.0201 119.608 14.93 119.67 13.9424 119.239C13.753 119.154 13.6965 118.749 13.7973 118.201C14.021 116.992 14.8413 115.667 15.2525 115.649C15.2868 115.649 15.321 115.649 15.3553 115.649C16.2764 115.649 17.7356 116.189 17.8686 116.903C17.9935 117.58 17.6489 118.973 17.2317 119.471L17.2297 119.469Z" fill="#F18C7E"/>
<path d="M15.713 122.385C13.6511 122.385 6.81666 120.37 6.52038 120.281C6.36922 120.237 6.28256 120.077 6.32891 119.926C6.37325 119.775 6.53247 119.69 6.68364 119.735C6.75619 119.757 13.9736 121.883 15.7976 121.813C17.537 121.744 18.3593 120.873 18.3674 120.865C18.4742 120.75 18.6536 120.742 18.7684 120.847C18.8833 120.952 18.8934 121.131 18.7886 121.248C18.7503 121.291 17.8111 122.304 15.8178 122.381C15.7835 122.381 15.7493 122.383 15.711 122.383L15.713 122.385Z" fill="#F18C7E"/>
<path d="M18.1739 108.96C15.4751 108.42 13.7257 105.794 14.2659 103.095L24.0651 54.17C24.6053 51.4713 27.2314 49.7219 29.9302 50.262C32.6289 50.8022 34.3783 53.4283 33.8382 56.127L24.0389 105.052C23.4988 107.751 20.8726 109.5 18.1739 108.96Z" fill="#66192D"/>
<path d="M2.8913 109.365L11.2878 112.511C13.402 113.827 16.1854 113.182 17.5035 111.066C18.8216 108.952 18.1747 106.169 16.0604 104.851L10.5783 101.436C6.81745 99.167 3.51408 98.2278 1.39581 101.636C-1.59515 106.445 0.847605 108.089 2.8913 109.365Z" fill="#FDAD9B"/>
<path d="M14.2838 105.147C13.9392 105.018 13.5966 104.931 13.2922 104.895C12.2704 104.778 10.916 106.658 10.4262 108.009C10.0796 108.97 10.1521 109.673 10.6399 109.99C11.8169 110.756 14.298 111.102 14.4531 111.123C14.4874 111.129 14.5237 111.131 14.5579 111.131C14.7655 111.131 14.9792 111.036 15.1948 110.851C15.7471 110.373 16.3114 109.268 16.5472 108.321C16.6238 108.017 16.6641 107.727 16.6601 107.481C16.644 106.465 15.4407 105.57 14.2818 105.145L14.2838 105.147ZM14.824 110.421C14.7111 110.52 14.6023 110.57 14.5398 110.56H14.5317C14.5055 110.556 12.0305 110.218 10.9482 109.51C10.7185 109.361 10.7225 108.859 10.9603 108.202C11.4682 106.799 12.6634 105.457 13.1894 105.457C13.2015 105.457 13.2116 105.457 13.2237 105.457C13.6026 105.501 14.0642 105.649 14.5035 105.862C15.3299 106.261 16.0837 106.89 16.0937 107.491C16.0937 107.632 16.0796 107.793 16.0454 107.968C15.8821 108.831 15.3299 109.984 14.824 110.419V110.421Z" fill="#F18C7E"/>
<path d="M13.6042 113.529C11.6895 113.529 8.69451 111.864 8.55141 111.786C8.41436 111.709 8.36599 111.536 8.44258 111.399C8.51916 111.262 8.6925 111.213 8.82955 111.29C9.87558 111.876 12.8665 113.305 14.1323 112.89C14.2814 112.842 14.4427 112.922 14.491 113.072C14.5394 113.221 14.4588 113.382 14.3096 113.43C14.1 113.499 13.8622 113.529 13.6042 113.529Z" fill="#F18C7E"/>
<path d="M5.54445 98.8284L13.4028 103.145C15.3074 104.752 18.1533 104.51 19.7616 102.607C21.368 100.703 21.1281 97.8569 19.2235 96.2486L14.2876 92.0826C10.8915 89.2973 7.75744 87.8965 5.17158 90.9641C1.52155 95.2953 3.7023 97.2724 5.54445 98.8284Z" fill="#FDAD9B"/>
<path d="M16.4728 95.8939C16.2369 95.8314 15.9669 95.8777 15.6847 96.0007C14.7697 96.3977 13.7095 97.5969 13.1916 98.5643C12.7078 99.4652 12.6816 100.171 13.117 100.554C13.4919 100.882 14.0381 101.182 14.5943 101.436C15.6001 101.896 16.634 102.194 16.7287 102.222C16.7952 102.243 16.8638 102.255 16.9343 102.255C17.1117 102.255 17.3011 102.188 17.5027 102.061C18.3149 101.545 19.3085 99.9389 19.4355 98.9352C19.6028 97.6272 17.7607 96.2365 16.4707 95.8919L16.4728 95.8939ZM18.8732 98.8647C18.7664 99.7051 17.8735 101.152 17.1983 101.581C17.0714 101.664 16.9585 101.698 16.898 101.68H16.8879C16.8718 101.674 15.7351 101.348 14.7092 100.866C14.2416 100.646 13.7962 100.394 13.4919 100.128C13.2863 99.9469 13.3629 99.4511 13.6914 98.8344C14.161 97.9597 14.9229 97.1555 15.5356 96.7343C15.8177 96.5449 16.0656 96.432 16.241 96.432C16.2712 96.432 16.2994 96.436 16.3256 96.4421C17.3918 96.7283 18.9921 97.9537 18.8732 98.8647Z" fill="#F18C7E"/>
<path d="M16.2771 104.528C13.1149 104.528 7.5864 100.326 7.33446 100.132C7.2095 100.038 7.18532 99.8582 7.28206 99.7333C7.37679 99.6083 7.55617 99.5841 7.68113 99.6809C7.74562 99.7292 14.1589 104.607 16.8455 103.891C16.9967 103.851 17.1539 103.942 17.1942 104.093C17.2345 104.244 17.1438 104.401 16.9926 104.441C16.7729 104.5 16.5331 104.528 16.2792 104.528H16.2771Z" fill="#F18C7E"/>
<path d="M10.7134 90.0088L17.3705 93.1911C19.0091 94.4226 21.337 94.0921 22.5684 92.4535C23.7999 90.8149 23.4693 88.4871 21.8308 87.2556L17.5821 84.0632C14.6617 81.9328 12.0214 80.9271 10.0402 83.5674C7.24274 87.296 9.12721 88.8196 10.7114 90.0108L10.7134 90.0088Z" fill="#FDAD9B"/>
<path d="M19.5604 87.0924C18.7442 86.9211 17.5208 88.3279 17.0108 89.394C17.0028 89.4102 16.9967 89.4243 16.9887 89.4404C16.7609 89.9302 16.6823 90.3453 16.7589 90.6557C16.7992 90.8311 16.8839 90.9721 17.0209 91.079C17.9319 91.7904 19.9393 92.254 20.0663 92.2822C20.1106 92.2943 20.157 92.3003 20.2013 92.3003C20.3565 92.3003 20.5218 92.2378 20.6951 92.1149C21.3381 91.6513 22.0798 90.2869 22.1382 89.4585C22.2168 88.3742 20.6367 87.3181 19.5624 87.0944L19.5604 87.0924ZM20.421 91.732C20.3182 91.8045 20.2316 91.8388 20.1792 91.8267H20.1711C20.151 91.8206 18.1456 91.3652 17.3091 90.7081C17.1298 90.5691 17.1701 90.1599 17.4119 89.6359C17.9198 88.5435 18.9638 87.5439 19.4113 87.5439C19.4294 87.5439 19.4476 87.5439 19.4637 87.5499C20.3525 87.7353 21.723 88.6685 21.6686 89.4223C21.6182 90.1176 20.9551 91.347 20.419 91.732H20.421Z" fill="#F18C7E"/>
<path d="M19.6199 94.1988C16.9897 94.1988 12.4589 91.1414 12.2473 90.9983C12.1405 90.9257 12.1123 90.7806 12.1848 90.6738C12.2574 90.567 12.4025 90.5388 12.5093 90.6113C12.5637 90.6496 18.064 94.3581 20.2326 93.6466C20.3556 93.6063 20.4886 93.6728 20.5289 93.7957C20.5692 93.9187 20.5027 94.0517 20.3797 94.092C20.152 94.1666 19.896 94.2008 19.6199 94.2008V94.1988Z" fill="#F18C7E"/>
<path d="M19.4338 148.499C19.4338 148.499 19.3814 137.394 20.8245 136.148C22.2696 134.903 31.0087 137.007 39.5886 133.285C48.1665 129.562 50.7564 127.807 51.4033 130.328C52.0503 132.849 51.8891 143.178 51.8891 143.178L19.4338 148.499Z" fill="#F1BD6C"/>
<path d="M81.2915 260H12.8741C11.429 218.331 17.6044 145.266 18.7552 145.143C18.979 145.117 19.2228 145.101 19.4828 145.095C19.8779 145.081 20.3112 145.087 20.7768 145.107H20.7848C21.6394 145.139 22.6068 145.208 23.671 145.268H23.675C25.63 145.385 27.8934 145.486 30.318 145.311H30.3301C31.0779 145.258 31.8397 145.18 32.6137 145.065C32.6137 145.065 32.6163 145.065 32.6217 145.065C32.6217 145.065 32.6258 145.065 32.6298 145.065C34.6533 144.771 36.7474 144.243 38.8334 143.356C43.7552 141.26 47.8466 140.232 50.495 140.193C50.8376 140.187 51.1561 140.197 51.4463 140.226H51.4523C51.6115 140.242 51.7607 140.262 51.9038 140.288C52.8349 140.447 53.4416 140.812 53.6613 141.37C53.8004 141.735 66.6329 190.417 74.9226 227.461C77.8853 240.712 80.2737 252.474 81.2854 260.004L81.2915 260Z" fill="#4573D2"/>
<path d="M82.9122 120.962C79.8406 127.51 79.7922 135.068 82.757 141.667C83.7607 143.9 84.5689 145.921 84.8692 147.219C85.7218 150.894 87.2636 150.249 87.8562 151.653C89.3154 155.108 87.4168 160.854 88.0738 163.629C88.9707 167.406 91.1736 167.442 91.1736 167.442L120.42 165.179C120.42 165.179 119.695 162.226 119.37 155.023C119.251 152.391 118.544 149.205 120.696 145.593C123.697 140.554 122.927 133.25 122.849 126.49C122.813 123.32 122.349 117.354 121.871 115.188C121.367 112.904 122.508 104.562 119.384 104.155C113.866 103.434 113.233 124.497 110.452 121.71C106.894 118.146 103.381 113.916 99.423 108.789C90.6012 97.3672 87.57 111.036 82.9142 120.964L82.9122 120.962Z" fill="#FDAD9B"/>
<path d="M101.706 152.98C101.622 152.973 101.539 152.929 101.491 152.851C101.448 152.782 100.443 151.141 100.247 148.646C100.132 147.183 100.324 145.728 100.814 144.325C101.426 142.578 102.507 140.909 104.028 139.363C104.135 139.254 104.308 139.254 104.417 139.359C104.526 139.466 104.526 139.639 104.421 139.748C102.958 141.235 101.918 142.838 101.334 144.507C100.868 145.837 100.687 147.215 100.795 148.602C100.981 150.964 101.948 152.542 101.958 152.558C102.039 152.687 101.999 152.857 101.87 152.937C101.819 152.969 101.763 152.982 101.708 152.978L101.706 152.98Z" fill="#F18C7E"/>
<path d="M125.934 260H57.6836C59.5378 249.804 62.0612 238.604 64.8506 227.456C73.8114 191.638 85.4891 156.341 86.3578 156.396C86.9241 156.436 87.5973 156.549 88.3551 156.722H88.3612C92.4566 157.637 99.1158 159.965 106.46 158.085C112.382 156.571 117.007 156.305 119.47 157.016H119.478C120.625 157.351 121.31 157.897 121.435 158.629C121.506 159.06 125.109 218.746 125.934 259.998V260Z" fill="#FF6961"/>
<path d="M120.43 111.032C120.116 111.032 119.62 110.953 119.134 110.546C118.999 110.433 118.372 109.674 119.354 105.846C119.384 105.731 119.499 105.663 119.614 105.693C119.729 105.723 119.797 105.838 119.767 105.953C119.368 107.515 118.991 109.871 119.408 110.22C120.019 110.73 120.629 110.593 120.656 110.587C120.771 110.56 120.885 110.629 120.914 110.744C120.942 110.859 120.873 110.973 120.758 111.002C120.746 111.006 120.621 111.034 120.43 111.034V111.032Z" fill="#F18C7E"/>
<path d="M90.4426 152.611C90.4265 152.611 90.4103 152.607 90.3942 152.603C88.0301 152.022 86.7361 150.902 86.065 150.065C85.3273 149.142 85.162 148.356 85.154 148.322C85.1237 148.173 85.2205 148.028 85.3696 147.997C85.5188 147.967 85.6619 148.064 85.6921 148.211C85.6921 148.211 85.8473 148.924 86.5144 149.747C87.1312 150.509 88.3283 151.528 90.5232 152.069C90.6703 152.105 90.761 152.254 90.7248 152.401C90.6925 152.532 90.5716 152.619 90.4406 152.611H90.4426Z" fill="#F18C7E"/>
<path d="M77.7834 139.033L84.8073 141.778C86.5709 142.91 88.9169 142.398 90.0516 140.637C91.1843 138.873 90.6744 136.527 88.9108 135.395L84.3417 132.458C81.2057 130.505 78.4404 129.677 76.6184 132.517C74.0467 136.525 76.0803 137.938 77.7854 139.033H77.7834Z" fill="#FDAD9B"/>
<path d="M86.5861 135.35C85.7093 135.244 84.5242 136.822 84.0929 137.964C83.6697 139.079 84.0184 139.52 84.2642 139.686C85.2518 140.351 87.3399 140.671 87.4749 140.691C87.5112 140.697 87.5475 140.701 87.5797 140.701C87.7631 140.701 87.9485 140.621 88.138 140.464C88.7668 139.938 89.4299 138.472 89.4279 137.612C89.4279 136.481 87.7147 135.5 86.5841 135.35H86.5861ZM87.7752 140.026C87.6664 140.119 87.5978 140.133 87.5737 140.129H87.5636C87.5434 140.125 85.4755 139.813 84.5827 139.212C84.4114 139.099 84.4295 138.688 84.625 138.166C85.0503 137.043 86.058 135.913 86.4833 135.913C86.4934 135.913 86.5034 135.913 86.5135 135.915C87.4185 136.034 88.8595 136.86 88.8615 137.614C88.8615 138.303 88.275 139.609 87.7752 140.026Z" fill="#F18C7E"/>
<path d="M86.6656 142.701C86.4177 142.701 86.1517 142.683 85.8675 142.642C83.9649 142.372 77.3743 139.055 77.0941 138.914C76.9531 138.843 76.8966 138.672 76.9692 138.531C77.0397 138.39 77.211 138.333 77.3521 138.404C77.4206 138.438 84.1362 141.82 85.9481 142.076C87.6875 142.322 88.6368 141.61 88.6448 141.604C88.7698 141.508 88.9472 141.532 89.0439 141.657C89.1406 141.782 89.1165 141.961 88.9915 142.056C88.9512 142.086 88.1369 142.699 86.6636 142.699L86.6656 142.701Z" fill="#F18C7E"/>
<path d="M87.883 164.498C87.9253 163.827 88.5925 163.151 89.2616 163.113C90.1363 163.063 90.7591 163.69 90.7168 164.361C90.6684 165.145 89.9307 165.846 89.1185 165.794C88.4473 165.751 87.8387 165.167 87.881 164.498H87.883Z" fill="#66192D"/>
<path d="M90.5829 129.856C88.0232 128.842 86.7716 125.946 87.7854 123.387L106.163 76.997C107.176 74.4374 110.073 73.1858 112.632 74.1995C115.192 75.2133 116.443 78.1095 115.43 80.6691L97.0526 127.059C96.0388 129.618 93.1426 130.87 90.5829 129.856Z" fill="#66192D"/>
<path d="M75.4763 127.526L83.1754 132.122C85.0216 133.794 87.8735 133.655 89.5483 131.811C91.2232 129.965 91.0841 127.113 89.2379 125.438L84.4552 121.099C81.1599 118.195 78.0782 116.681 75.3835 119.656C71.5803 123.854 73.6905 125.908 75.4763 127.528V127.526Z" fill="#FDAD9B"/>
<path d="M87.4362 125.408C87.1198 125.221 86.7973 125.074 86.503 124.983C85.5235 124.681 83.8507 126.297 83.1291 127.536C82.6152 128.421 82.5648 129.125 82.986 129.522C84.0079 130.485 86.3861 131.269 86.5373 131.317C86.6119 131.344 86.6864 131.358 86.7671 131.358C86.9364 131.358 87.1198 131.299 87.3173 131.184C87.9441 130.816 88.6979 129.83 89.099 128.939C89.228 128.653 89.3207 128.377 89.361 128.133C89.5242 127.131 88.5024 126.037 87.4382 125.406L87.4362 125.408ZM87.025 130.695C86.896 130.773 86.7812 130.803 86.7207 130.783H86.7126C86.6885 130.773 84.3142 129.997 83.373 129.108C83.1735 128.921 83.2682 128.427 83.6189 127.825C84.3364 126.585 85.6706 125.513 86.235 125.513C86.2712 125.513 86.3055 125.519 86.3357 125.527C86.7005 125.638 87.1258 125.866 87.5208 126.154C88.2625 126.694 88.8914 127.45 88.7946 128.04C88.7725 128.179 88.7261 128.339 88.6636 128.504C88.3492 129.324 87.5995 130.358 87.025 130.695Z" fill="#F18C7E"/>
<path d="M85.7329 133.581C83.8545 133.581 80.7446 131.031 80.6075 130.916C80.4866 130.816 80.4685 130.636 80.5692 130.515C80.67 130.394 80.8494 130.376 80.9703 130.477C81.8954 131.241 84.5841 133.178 85.9022 132.998C86.0594 132.978 86.2025 133.085 86.2227 133.242C86.2448 133.397 86.136 133.543 85.9788 133.563C85.8982 133.573 85.8155 133.579 85.7309 133.579L85.7329 133.581Z" fill="#F18C7E"/>
<path d="M79.9657 117.633L86.9272 123.284C88.5134 125.205 91.3572 125.477 93.28 123.888C95.2007 122.302 95.4728 119.459 93.8866 117.538L89.7751 112.558C86.9312 109.212 84.0975 107.271 81.0057 109.829C76.6402 113.438 78.434 115.774 79.9678 117.633H79.9657Z" fill="#FDAD9B"/>
<path d="M91.2436 116.697C91.024 116.595 90.7478 116.593 90.4475 116.663C89.4761 116.891 88.2184 117.882 87.5352 118.741C86.9003 119.541 86.7491 120.232 87.1099 120.684C87.4183 121.075 87.902 121.47 88.4038 121.817C89.3128 122.445 90.2742 122.925 90.3649 122.969C90.4677 123.024 90.5785 123.05 90.7015 123.05C90.8385 123.05 90.9917 123.016 91.155 122.949C92.0478 122.586 93.3115 121.184 93.6159 120.22C94.0149 118.963 92.4509 117.266 91.2436 116.693V116.697ZM93.0737 120.051C92.8177 120.859 91.683 122.123 90.9413 122.425C90.8002 122.482 90.6833 122.498 90.6289 122.468L90.6209 122.464C90.6047 122.455 89.5426 121.931 88.6215 121.274C88.2003 120.976 87.8073 120.65 87.5553 120.333C87.384 120.118 87.5473 119.642 87.9826 119.096C88.5993 118.32 89.4942 117.663 90.1714 117.36C90.4314 117.246 90.6592 117.181 90.8264 117.181C90.895 117.181 90.9514 117.193 90.9998 117.215C91.9974 117.687 93.3498 119.176 93.0737 120.053V120.051Z" fill="#F18C7E"/>
<path d="M90.0369 125.209C86.9612 125.209 81.721 119.485 81.4953 119.237C81.3905 119.12 81.3985 118.941 81.5154 118.834C81.6323 118.727 81.8117 118.737 81.9185 118.852C81.9729 118.912 87.4107 124.866 90.182 124.632C90.3352 124.618 90.4762 124.737 90.4883 124.892C90.5004 125.049 90.3835 125.186 90.2283 125.199C90.1659 125.203 90.1034 125.207 90.0389 125.207L90.0369 125.209Z" fill="#F18C7E"/>
<path d="M86.6269 109.879L92.6089 114.198C94.0015 115.702 96.3516 115.792 97.8551 114.4C99.3607 113.007 99.4514 110.659 98.0587 109.153L94.449 105.254C91.9558 102.638 89.5393 101.174 87.1167 103.42C83.6984 106.588 85.2806 108.424 86.6269 109.879Z" fill="#FDAD9B"/>
<path d="M95.8506 108.587C95.0827 108.277 93.6256 109.436 92.9302 110.393C92.9201 110.409 92.9101 110.423 92.9 110.437C92.5896 110.881 92.4364 111.276 92.4546 111.596C92.4626 111.774 92.5251 111.929 92.638 112.056C93.4059 112.92 95.3004 113.733 95.4173 113.785C95.4939 113.819 95.5725 113.835 95.6612 113.835C95.7841 113.835 95.9212 113.801 96.0683 113.733C96.7818 113.394 97.7573 112.183 97.9629 111.377C98.2329 110.327 96.8685 109.004 95.8486 108.591L95.8506 108.587ZM97.5114 111.258C97.3381 111.933 96.4634 113.023 95.8688 113.307C95.7579 113.36 95.6612 113.38 95.6128 113.358L95.6068 113.354C95.5866 113.346 93.6941 112.539 92.9887 111.745C92.8395 111.576 92.9504 111.179 93.2829 110.709C93.946 109.77 95.0747 109.002 95.5604 109.002C95.6048 109.002 95.643 109.008 95.6753 109.023C96.5158 109.363 97.6988 110.526 97.5114 111.258Z" fill="#F18C7E"/>
<path d="M95.1335 115.639C92.5839 115.639 88.1539 111.316 87.9604 111.127C87.8677 111.036 87.8677 110.887 87.9584 110.796C88.0491 110.703 88.1982 110.701 88.2889 110.794C88.3373 110.84 93.0858 115.47 95.3471 115.16C95.4761 115.143 95.593 115.232 95.6112 115.359C95.6293 115.488 95.5386 115.605 95.4116 115.623C95.3229 115.635 95.2302 115.641 95.1355 115.641L95.1335 115.639Z" fill="#F18C7E"/>
<path d="M162.294 111.915C160.678 118.965 162.228 126.361 166.521 132.184C167.974 134.153 169.191 135.961 169.759 137.164C171.37 140.574 172.74 139.619 173.617 140.867C175.772 143.934 175.133 149.952 176.364 152.526C178.039 156.027 180.2 155.598 180.2 155.598L208.305 147.201C208.305 147.201 206.971 144.47 205.131 137.497C204.458 134.949 203.093 131.985 204.432 128C206.3 122.441 204.002 115.464 202.497 108.875C201.789 105.786 200.076 100.052 199.151 98.0342C198.176 95.91 197.527 87.5136 194.387 87.7756C188.84 88.2371 192.675 108.958 189.366 106.822C185.135 104.091 180.808 100.699 175.854 96.5247C164.817 87.2274 164.743 101.229 162.292 111.915H162.294Z" fill="#FDAD9B"/>
<path d="M187.432 139.234C187.348 139.246 187.259 139.22 187.194 139.154C187.138 139.095 185.808 137.704 185.09 135.308C184.669 133.901 184.548 132.44 184.731 130.965C184.961 129.129 185.665 127.268 186.824 125.434C186.904 125.305 187.073 125.269 187.202 125.35C187.331 125.43 187.368 125.6 187.287 125.729C186.17 127.492 185.493 129.278 185.276 131.033C185.102 132.432 185.215 133.817 185.616 135.151C186.297 137.42 187.577 138.758 187.589 138.773C187.694 138.881 187.692 139.055 187.583 139.162C187.541 139.202 187.489 139.228 187.434 139.236L187.432 139.234Z" fill="#F18C7E"/>
<path d="M238.459 260H172.545C172.535 259.929 172.525 259.863 172.515 259.792C172.358 258.654 172.209 257.481 172.07 256.284C171.493 251.402 171.056 246.073 170.733 240.48C170.665 239.283 170.6 238.072 170.542 236.849C170.221 230.187 170.048 223.21 169.992 216.216C169.986 215.061 169.979 213.901 169.975 212.742C169.959 207.078 170.014 201.429 170.117 195.949C170.141 194.806 170.167 193.669 170.193 192.543C170.348 186.011 170.57 179.773 170.828 174.105C170.882 172.918 170.939 171.753 170.995 170.615C171.152 167.491 171.318 164.587 171.489 161.934C171.566 160.723 171.642 159.568 171.721 158.474C172.275 150.678 172.825 145.871 173.156 145.823C173.718 145.738 174.399 145.71 175.175 145.72H175.183C179.38 145.746 186.381 146.615 193.162 143.221C198.625 140.49 203.09 139.252 205.651 139.428H205.661C206.853 139.512 207.637 139.899 207.913 140.584C207.957 140.701 209.277 145.385 211.369 152.951C211.656 153.983 211.956 155.072 212.266 156.208C213.457 160.539 214.84 165.586 216.335 171.119C216.642 172.251 216.954 173.408 217.271 174.579C218.424 178.858 219.637 183.385 220.872 188.048C221.165 189.145 221.455 190.243 221.751 191.356C223.39 197.551 225.06 203.954 226.701 210.337C226.987 211.456 227.271 212.572 227.556 213.689C229.406 220.926 231.192 228.091 232.816 234.847C233.086 235.962 233.35 237.062 233.61 238.151C235.025 244.104 236.301 249.681 237.359 254.647C237.605 255.802 237.839 256.926 238.066 258.013C238.203 258.694 238.338 259.357 238.465 260.006L238.459 260Z" fill="#5DA283"/>
<path d="M196.456 94.3178C196.182 94.3178 195.851 94.2613 195.494 94.0739C195.339 93.9913 194.565 93.3826 194.714 89.4323C194.718 89.3154 194.813 89.2288 194.936 89.2267C195.053 89.2308 195.146 89.3295 195.142 89.4484C195.081 91.0588 195.212 93.4431 195.694 93.695C196.405 94.0699 196.984 93.7917 196.99 93.7897C197.095 93.7373 197.224 93.7817 197.276 93.8865C197.328 93.9913 197.284 94.1203 197.179 94.1727C197.161 94.1827 196.879 94.3178 196.458 94.3178H196.456Z" fill="#F18C7E"/>
<path d="M176.346 141.256C176.33 141.258 176.313 141.26 176.297 141.258C173.863 141.189 172.361 140.369 171.531 139.692C170.614 138.946 170.285 138.212 170.273 138.18C170.213 138.041 170.275 137.88 170.414 137.819C170.553 137.759 170.714 137.821 170.775 137.96C170.775 137.96 171.077 138.625 171.904 139.289C172.667 139.901 174.052 140.647 176.313 140.709C176.465 140.714 176.583 140.84 176.579 140.992C176.575 141.127 176.475 141.235 176.346 141.256Z" fill="#F18C7E"/>
<path d="M161.104 130.66L168.549 131.858C170.512 132.591 172.697 131.596 173.433 129.633C174.166 127.669 173.173 125.485 171.21 124.749L166.123 122.844C162.646 121.599 159.766 121.375 158.585 124.535C156.918 128.998 159.205 129.947 161.104 130.658V130.66Z" fill="#FDAD9B"/>
<path d="M170.912 129.949C170.912 129.949 168.754 130.09 167.679 129.665C166.607 129.239 167.956 125.565 168.949 125.485C169.943 125.404 171.7 125.936 171.906 126.871C172.111 127.807 171.575 129.927 170.912 129.949Z" fill="#F18C7E"/>
<path d="M169.543 132.488C167.346 132.488 160.701 130.767 160.408 130.693C160.255 130.652 160.165 130.497 160.205 130.346C160.245 130.193 160.398 130.102 160.552 130.142C160.624 130.163 167.91 132.053 169.73 131.914C171.465 131.789 172.259 130.89 172.268 130.882C172.37 130.763 172.55 130.749 172.669 130.852C172.788 130.955 172.804 131.132 172.701 131.251C172.663 131.295 171.76 132.339 169.77 132.482C169.702 132.486 169.625 132.49 169.543 132.49V132.488Z" fill="#F18C7E"/>
<path d="M171.67 118.985C168.955 118.535 167.117 115.97 167.568 113.255L175.721 64.0275C176.17 61.3127 178.736 59.4746 181.451 59.9261C184.166 60.3755 186.004 62.9412 185.552 65.656L177.4 114.883C176.95 117.598 174.385 119.436 171.67 118.985Z" fill="#66192D"/>
<path d="M156.412 119.902L164.909 122.766C167.068 124.011 169.827 123.272 171.073 121.113C172.318 118.955 171.579 116.195 169.422 114.95L163.829 111.721C159.994 109.579 156.662 108.752 154.659 112.227C151.829 117.135 154.326 118.697 156.412 119.902Z" fill="#FDAD9B"/>
<path d="M168.055 120.99C168.055 120.99 165.496 120.732 164.321 120.023C163.146 119.313 165.449 115.268 166.629 115.369C167.81 115.47 169.767 116.437 169.825 117.574C169.884 118.711 168.839 121.093 168.055 120.988V120.99Z" fill="#F18C7E"/>
<path d="M167.136 123.707C165.218 123.707 162.287 122.206 162.146 122.131C162.007 122.058 161.952 121.887 162.023 121.748C162.096 121.609 162.267 121.555 162.406 121.625C163.47 122.175 166.507 123.503 167.761 123.048C167.908 122.994 168.071 123.07 168.126 123.217C168.18 123.364 168.104 123.528 167.957 123.582C167.719 123.669 167.441 123.707 167.136 123.707Z" fill="#F18C7E"/>
<path d="M158.709 109.283L166.708 113.334C168.665 114.875 171.503 114.539 173.045 112.582C174.587 110.625 174.25 107.789 172.293 106.245L167.22 102.249C163.731 99.5801 160.553 98.2822 158.072 101.436C154.569 105.888 156.816 107.791 158.709 109.283Z" fill="#FDAD9B"/>
<path d="M170.078 112.028C170.078 112.028 167.581 111.407 166.521 110.536C165.461 109.665 168.318 105.993 169.471 106.261C170.626 106.529 172.424 107.769 172.319 108.902C172.212 110.034 170.838 112.243 170.078 112.028Z" fill="#F18C7E"/>
<path d="M169.502 114.623C166.32 114.623 160.797 110.711 160.541 110.528C160.412 110.437 160.384 110.258 160.475 110.131C160.566 110.002 160.745 109.974 160.872 110.065C160.938 110.111 167.515 114.771 170.171 113.966C170.322 113.92 170.482 114.005 170.526 114.156C170.572 114.307 170.486 114.464 170.337 114.511C170.085 114.587 169.802 114.621 169.502 114.621V114.623Z" fill="#F18C7E"/>
<path d="M163.581 100.296L170.341 103.252C172.02 104.427 174.336 104.02 175.513 102.341C176.69 100.662 176.281 98.3467 174.602 97.1717L170.249 94.1223C167.26 92.0907 164.587 91.1737 162.695 93.8784C160.024 97.6977 161.957 99.1569 163.581 100.296Z" fill="#FDAD9B"/>
<path d="M173.047 102.023C173.047 102.023 170.967 101.628 170.054 100.963C169.143 100.298 171.32 97.1475 172.279 97.3148C173.241 97.4821 174.776 98.4152 174.74 99.3524C174.706 100.288 173.678 102.166 173.045 102.025L173.047 102.023Z" fill="#F18C7E"/>
<path d="M172.501 104.187C169.855 104.187 165.356 101.368 165.145 101.235C165.036 101.166 165.001 101.021 165.072 100.912C165.141 100.803 165.286 100.769 165.394 100.84C165.451 100.876 171.07 104.399 173.215 103.613C173.337 103.569 173.47 103.631 173.515 103.752C173.559 103.873 173.497 104.008 173.376 104.052C173.12 104.147 172.824 104.189 172.501 104.189V104.187Z" fill="#F18C7E"/>
<path d="M287.112 125.914C290.699 132.194 291.356 139.724 288.932 146.538C288.112 148.844 287.469 150.926 287.273 152.242C286.719 155.972 285.131 155.454 284.653 156.904C283.478 160.463 285.832 166.04 285.399 168.859C284.808 172.697 282.617 172.91 282.617 172.91L253.284 173.007C253.284 173.007 253.77 170.006 253.514 162.801C253.419 160.167 253.869 156.936 251.434 153.508C248.038 148.727 248.215 141.385 247.752 134.641C247.534 131.479 247.514 125.495 247.816 123.296C248.135 120.98 246.327 112.757 249.406 112.098C254.85 110.935 257.174 131.878 259.724 128.877C262.983 125.037 266.143 120.539 269.678 115.109C277.552 103.014 281.674 116.395 287.114 125.916L287.112 125.914Z" fill="#FDAD9B"/>
<path d="M270.956 159.34C271.04 159.328 271.119 159.276 271.161 159.195C271.197 159.123 272.068 157.405 272.064 154.904C272.06 153.435 271.754 152.002 271.151 150.644C270.401 148.953 269.188 147.375 267.547 145.956C267.433 145.857 267.259 145.869 267.16 145.984C267.062 146.099 267.074 146.272 267.189 146.371C268.767 147.735 269.932 149.249 270.649 150.865C271.222 152.153 271.512 153.514 271.516 154.904C271.522 157.272 270.684 158.925 270.675 158.941C270.607 159.076 270.659 159.241 270.794 159.312C270.847 159.34 270.905 159.348 270.96 159.34H270.956Z" fill="#F18C7E"/>
<path d="M318.185 260H254.966C252.771 219.5 251.715 166.967 251.747 166.558C251.813 165.82 252.45 165.225 253.567 164.798H253.573C255.975 163.887 260.603 163.78 266.629 164.814C274.1 166.096 280.552 163.24 284.561 162.001L284.567 161.997C285.307 161.765 285.968 161.596 286.532 161.511C287.719 161.34 309.756 220.009 318.185 260Z" fill="#F1BD6C"/>
<path d="M248.776 119.039C248.667 119.039 248.599 119.029 248.589 119.027C248.472 119.007 248.393 118.898 248.413 118.781C248.433 118.664 248.544 118.586 248.659 118.606C248.683 118.61 249.306 118.697 249.873 118.14C250.259 117.759 249.695 115.44 249.171 113.916C249.133 113.805 249.191 113.682 249.304 113.644C249.415 113.606 249.538 113.664 249.576 113.777C250.862 117.516 250.298 118.322 250.173 118.445C249.645 118.965 249.066 119.039 248.778 119.039H248.776Z" fill="#F18C7E"/>
<path d="M282.154 158.066C282.17 158.064 282.187 158.06 282.203 158.054C284.512 157.285 285.714 156.065 286.312 155.176C286.973 154.197 287.076 153.399 287.08 153.366C287.098 153.215 286.991 153.078 286.84 153.062C286.689 153.044 286.554 153.151 286.536 153.302C286.536 153.302 286.439 154.026 285.841 154.9C285.286 155.708 284.176 156.823 282.031 157.536C281.888 157.585 281.81 157.74 281.858 157.883C281.9 158.012 282.029 158.087 282.158 158.069L282.154 158.066Z" fill="#F18C7E"/>
<path d="M293.678 143.513L286.898 146.814C285.231 148.084 282.851 147.764 281.579 146.099C280.307 144.432 280.628 142.052 282.295 140.78L286.612 137.485C289.581 135.286 292.271 134.238 294.315 136.922C297.201 140.711 295.286 142.284 293.676 143.511L293.678 143.513Z" fill="#FDAD9B"/>
<path d="M287.306 142.957C286.784 141.85 285.468 140.365 284.609 140.552C283.496 140.794 281.868 141.907 281.957 143.037C282.023 143.894 282.801 145.301 283.47 145.774C283.654 145.903 283.829 145.97 283.996 145.97C284.049 145.97 284.099 145.962 284.151 145.95C284.284 145.917 286.338 145.43 287.271 144.688C287.503 144.505 287.814 144.035 287.306 142.959V142.957ZM286.919 144.243C286.074 144.912 284.039 145.389 284.018 145.393L284.01 145.397C283.984 145.403 283.916 145.391 283.799 145.307C283.269 144.932 282.577 143.676 282.523 142.989C282.465 142.241 283.837 141.3 284.728 141.107C284.744 141.107 284.76 141.102 284.778 141.102C285.216 141.102 286.286 142.13 286.79 143.201C287.03 143.704 287.078 144.112 286.917 144.241L286.919 144.243Z" fill="#F18C7E"/>
<path d="M284.704 147.903C283.489 147.903 282.783 147.457 282.747 147.433C282.616 147.348 282.578 147.171 282.662 147.04C282.747 146.909 282.924 146.871 283.055 146.955C283.075 146.967 284.093 147.59 285.782 147.209C287.566 146.808 293.991 142.896 294.056 142.856C294.191 142.773 294.366 142.818 294.447 142.951C294.529 143.086 294.487 143.261 294.352 143.342C294.084 143.505 287.784 147.342 285.907 147.763C285.464 147.864 285.061 147.903 284.704 147.903Z" fill="#F18C7E"/>
<path d="M280.181 135.397C282.65 134.181 283.666 131.193 282.448 128.724L260.397 83.9624C259.181 81.4935 256.193 80.4777 253.724 81.695C251.255 82.9104 250.239 85.8993 251.456 88.3682L273.508 133.129C274.723 135.598 277.712 136.614 280.181 135.397Z" fill="#66192D"/>
<path d="M295.054 131.86L287.747 137.059C286.042 138.875 283.186 138.966 281.371 137.263C279.553 135.558 279.462 132.704 281.167 130.886L285.587 126.176C288.638 123.016 291.589 121.26 294.511 124.007C298.639 127.885 296.702 130.104 295.054 131.862V131.86Z" fill="#FDAD9B"/>
<path d="M287.429 132.484C286.608 131.305 284.811 129.834 283.859 130.211C283.573 130.324 283.265 130.497 282.96 130.711C281.953 131.422 281.023 132.597 281.265 133.581C281.326 133.819 281.439 134.089 281.59 134.363C282.061 135.219 282.894 136.142 283.547 136.461C283.726 136.548 283.893 136.59 284.047 136.59C284.149 136.59 284.246 136.57 284.337 136.529C284.48 136.469 286.79 135.495 287.729 134.453C288.118 134.022 288.011 133.325 287.427 132.484H287.429ZM287.31 134.071C286.443 135.03 284.139 135.997 284.117 136.003L284.107 136.007C284.049 136.034 283.934 136.011 283.799 135.945C283.198 135.653 282.368 134.681 281.991 133.889C281.912 133.73 281.856 133.579 281.822 133.44C281.676 132.857 282.245 132.055 282.942 131.459C283.311 131.14 283.716 130.88 284.071 130.739C284.111 130.725 284.158 130.717 284.208 130.717C284.794 130.717 286.163 131.66 286.961 132.809C287.36 133.383 287.493 133.867 287.31 134.071Z" fill="#F18C7E"/>
<path d="M285.16 138.726C285.128 138.726 285.098 138.726 285.066 138.724C284.908 138.716 284.787 138.581 284.797 138.424C284.806 138.267 284.943 138.146 285.098 138.156C286.42 138.243 288.951 136.08 289.812 135.246C289.925 135.137 290.104 135.139 290.215 135.252C290.324 135.364 290.322 135.544 290.209 135.655C290.078 135.782 287.023 138.728 285.16 138.728V138.726Z" fill="#F18C7E"/>
<path d="M289.784 122.359L283.3 128.552C281.874 130.594 279.06 131.094 277.018 129.667C274.975 128.24 274.477 125.428 275.904 123.385L279.602 118.09C282.168 114.527 284.836 112.364 288.124 114.664C292.765 117.911 291.165 120.384 289.784 122.359Z" fill="#FDAD9B"/>
<path d="M282.323 124.072C281.575 123.27 280.236 122.383 279.251 122.236C278.947 122.187 278.672 122.214 278.463 122.335C277.304 123.002 275.883 124.82 276.379 126.041C276.762 126.974 278.134 128.272 279.051 128.562C279.19 128.609 279.321 128.631 279.44 128.631C279.592 128.631 279.729 128.593 279.841 128.522C279.928 128.47 280.849 127.915 281.704 127.214C282.175 126.827 282.625 126.396 282.903 125.978C283.225 125.497 283.018 124.822 282.323 124.074V124.072ZM282.429 125.66C282.204 125.995 281.839 126.353 281.444 126.684C280.577 127.411 279.561 128.02 279.547 128.03L279.539 128.034C279.485 128.071 279.368 128.062 279.225 128.016C278.461 127.774 277.227 126.607 276.907 125.823C276.56 124.971 277.79 123.377 278.747 122.826C278.803 122.794 278.88 122.778 278.977 122.778C279.136 122.778 279.346 122.824 279.581 122.905C280.283 123.153 281.226 123.735 281.905 124.459C282.383 124.969 282.585 125.428 282.429 125.658V125.66Z" fill="#F18C7E"/>
<path d="M280.165 130.727H280.163C280.006 130.727 279.879 130.6 279.879 130.443C279.879 130.286 280.006 130.159 280.163 130.159H280.165C282.942 130.159 287.886 123.798 287.935 123.733C288.032 123.608 288.209 123.586 288.334 123.683C288.459 123.78 288.481 123.957 288.386 124.082C288.177 124.354 283.221 130.729 280.165 130.729V130.727Z" fill="#F18C7E"/>
<path d="M282.517 115.166L276.902 119.952C275.634 121.563 273.3 121.843 271.688 120.577C270.075 119.309 269.797 116.977 271.063 115.365L274.348 111.187C276.622 108.378 278.915 106.727 281.509 108.769C285.171 111.651 283.742 113.608 282.517 115.168V115.166Z" fill="#FDAD9B"/>
<path d="M276.312 116.228C276.3 116.214 276.288 116.198 276.274 116.183C275.504 115.285 273.962 114.249 273.223 114.619C272.239 115.115 270.985 116.542 271.338 117.566C271.608 118.352 272.674 119.481 273.416 119.761C273.545 119.811 273.666 119.835 273.775 119.835C273.884 119.835 273.98 119.811 274.069 119.763C274.182 119.702 276.004 118.741 276.701 117.818C276.802 117.683 276.851 117.522 276.846 117.344C276.838 117.026 276.657 116.641 276.312 116.226V116.228ZM276.326 117.538C275.688 118.386 273.868 119.342 273.847 119.352L273.841 119.356C273.795 119.38 273.7 119.37 273.583 119.325C272.967 119.092 272.007 118.074 271.782 117.415C271.536 116.699 272.62 115.446 273.432 115.039C273.473 115.018 273.527 115.008 273.587 115.008C274.095 115.008 275.236 115.669 275.95 116.528C276.318 116.969 276.462 117.356 276.324 117.538H276.326Z" fill="#F18C7E"/>
<path d="M274.333 121.599C274.297 121.599 274.26 121.599 274.224 121.595C274.095 121.587 273.996 121.476 274.004 121.347C274.012 121.218 274.125 121.117 274.252 121.127C274.282 121.127 274.311 121.129 274.341 121.129C276.645 121.129 280.891 116.258 280.936 116.21C281.02 116.113 281.167 116.101 281.266 116.185C281.365 116.27 281.375 116.417 281.29 116.516C281.109 116.726 276.858 121.599 274.333 121.599Z" fill="#F18C7E"/>
<path d="M39.0087 66.526L25.8497 77.1575C24.4832 78.262 22.7055 78.2519 21.7058 77.1354L12.6946 67.0762C12.088 66.399 11.4733 65.6694 10.8747 64.8895C7.49673 60.4978 5.9307 54.7215 6.35798 48.5845L7.73858 28.7947C7.74261 28.7423 7.74261 28.692 7.73858 28.6416C7.68215 27.3214 8.5347 25.9993 9.75406 25.4471C9.97173 25.3483 10.2035 25.308 10.4232 25.3261C17.6265 25.9066 25.2329 23.6271 31.8034 18.921L31.8336 18.8989C32.009 18.7739 32.2024 18.6852 32.4 18.6409C33.0913 18.4857 33.7786 18.4978 34.4114 18.6752C34.6009 18.7276 34.7682 18.8303 34.8992 18.9714L35.397 19.4995C39.3634 23.7057 44.8858 26.0356 50.9827 26.0739L53.8446 26.092C54.022 26.092 54.1933 26.1303 54.3445 26.2049C55.8299 26.9345 56.4164 28.7988 55.6989 30.6147C55.6807 30.6631 55.6626 30.7094 55.6485 30.7578L50.2893 49.5821C48.4371 56.088 44.4868 62.0739 39.1498 66.4111C39.1034 66.4494 39.0551 66.4877 39.0067 66.526H39.0087Z" fill="#FF6961"/>
<path d="M34.651 32.3409L31.8787 32.0646C31.4835 32.0258 31.0473 32.1233 30.6398 32.3463L23.0092 36.4953C21.9497 37.0699 21.3356 38.3119 21.6349 39.2712L22.0057 40.4563C22.3116 41.4363 23.4465 41.7368 24.5189 41.1269L27.2288 39.5809C27.7028 39.3085 28.1395 39.6457 27.9689 40.1499L25.159 48.3106L22.4545 56.1561C22.073 57.2666 22.5985 58.2556 23.6297 58.356L25.6237 58.5556C26.1291 58.607 26.6599 58.436 27.1173 58.1178C27.5938 57.787 27.9898 57.2962 28.1817 56.7269L35.8221 34.5424C36.2058 33.4301 35.6801 32.4431 34.647 32.3405L34.651 32.3409Z" fill="white"/>
<path d="M121.681 88.0858L105.996 97.2141C104.367 98.1609 102.484 97.8598 101.609 96.5094L93.7112 84.3464C93.18 83.5283 92.6489 82.6512 92.1416 81.724C89.2833 76.5054 88.5692 70.1152 90.03 63.6683L94.7387 42.8811C94.7518 42.8266 94.7583 42.7721 94.7649 42.7175C94.9216 41.306 96.0427 40.0428 97.4251 39.6566C97.6733 39.5868 97.9236 39.5824 98.1544 39.637C105.691 41.4369 114.127 40.2675 121.859 36.3491L121.894 36.3317C122.101 36.227 122.319 36.1659 122.536 36.1506C123.294 36.1004 124.021 36.2248 124.663 36.5171C124.855 36.6044 125.016 36.7397 125.133 36.912L125.575 37.5556C129.089 42.6761 134.557 46.0555 141.012 47.0984L144.04 47.587C144.228 47.6176 144.402 47.6852 144.55 47.79C146.004 48.8088 146.32 50.8858 145.262 52.6966C145.233 52.7446 145.207 52.7926 145.185 52.8406L136.421 71.95C133.391 78.5562 128.225 84.2613 121.857 87.9899C121.8 88.0226 121.744 88.0553 121.687 88.088L121.681 88.0858Z" fill="#5DA283"/>
<path d="M124.106 56.9581C123.914 55.9453 123.521 55.0312 122.921 54.2174C122.319 53.4033 121.561 52.6998 120.647 52.1153C119.732 51.5287 118.739 51.0687 117.672 50.7399C116.539 50.3882 115.414 50.2177 114.293 50.2364C113.175 50.2513 112.12 50.452 111.133 50.8372C110.146 51.2244 109.254 51.7806 108.456 52.5182C108.444 52.5272 108.43 52.538 108.42 52.5514C107.168 53.7129 107.554 55.7555 109.123 56.4817L109.594 56.6991C110.597 57.1646 111.76 56.906 112.516 56.1276C112.773 55.8618 113.058 55.6435 113.37 55.4619C114.148 55.0195 114.992 54.9394 115.91 55.2204C116.784 55.4918 117.401 55.9578 117.763 56.6166C118.126 57.2754 118.178 58.0048 117.919 58.809C117.704 59.4845 117.329 60.0417 116.807 60.4822C116.725 60.5538 116.639 60.6207 116.549 60.6892C116.549 60.6892 116.549 60.6892 116.546 60.691C116.077 61.0521 115.533 61.3768 114.914 61.6754L110.396 63.6738L110.394 63.6736L104.355 66.3516C103.714 66.6391 103.226 67.1719 103.017 67.8293L102.667 68.9177C102.257 70.1997 102.991 71.5687 104.308 71.9767L107.513 72.9678L115.651 75.4925L116.271 75.6845C116.591 75.7847 116.917 75.8166 117.227 75.7942C118.211 75.7187 119.094 75.0797 119.403 74.1079C119.811 72.8276 119.078 71.4586 117.76 71.0506L117.091 70.8444L112.729 69.4902C112.017 69.2682 111.961 68.314 112.637 68.0182L117.551 65.8885C117.975 65.6999 118.389 65.5038 118.797 65.3069C119.042 65.1884 119.284 65.0653 119.525 64.9442C120.168 64.6213 120.769 64.2408 121.328 63.8112C121.884 63.379 122.377 62.8741 122.804 62.2961C123.229 61.7199 123.573 61.0289 123.83 60.2225C124.202 59.0593 124.295 57.9707 124.106 56.9561L124.106 56.9581Z" fill="white"/>
<path d="M192 77.1602L178.976 85.6614C177.623 86.5442 175.896 86.3204 174.949 85.1374L166.419 74.4958C165.845 73.7803 165.264 73.0124 164.7 72.1982C161.518 67.6211 160.123 61.9476 160.677 56.1733L162.463 37.5526C162.467 37.5042 162.469 37.4558 162.467 37.4074C162.441 36.1478 163.299 34.9949 164.497 34.6181C164.71 34.5515 164.936 34.5395 165.15 34.5838C172.135 36.0067 179.578 34.7652 186.066 31.091L186.096 31.0749C186.27 30.9761 186.459 30.9177 186.653 30.8995C187.328 30.8371 187.997 30.9318 188.608 31.1757C188.791 31.2482 188.95 31.3651 189.075 31.5163L189.549 32.0786C193.308 36.5529 198.621 39.433 204.544 40.2069L207.323 40.5697C207.497 40.5919 207.66 40.6483 207.805 40.737C209.232 41.6097 209.76 43.4498 209.023 45.0883C209.002 45.1307 208.986 45.175 208.972 45.2193L203.343 62.4414C201.398 68.395 197.425 73.5969 192.141 77.0695C192.095 77.0998 192.048 77.13 192 77.1622V77.1602Z" fill="#938CE1"/>
<path d="M189.547 54.5064C190.435 53.7013 190.975 52.6332 191.167 51.3C191.336 50.1485 191.238 49.1146 190.873 48.1965C190.511 47.282 189.978 46.4837 189.269 45.8045C188.564 45.1267 187.725 44.5773 186.764 44.1626C185.8 43.7463 184.787 43.4629 183.727 43.3096C182.735 43.1676 181.747 43.1558 180.762 43.2782C179.779 43.4004 178.851 43.6584 177.976 44.0486C177.104 44.4405 176.317 44.9733 175.623 45.642C175.391 45.8665 175.173 46.1068 174.971 46.3631C174.326 47.179 174.644 48.3847 175.612 48.7616L177.786 49.6043C178.405 49.8471 179.13 49.6737 179.532 49.1413C179.786 48.8048 180.098 48.5284 180.464 48.3084C181.134 47.9113 181.872 47.7685 182.685 47.8891C183.472 48.0018 184.141 48.332 184.683 48.8735C185.226 49.4147 185.434 50.1157 185.309 50.978C185.225 51.5661 185.036 52.0265 184.747 52.3563C184.458 52.6821 184.1 52.9273 183.675 53.0857C183.25 53.244 182.783 53.3255 182.276 53.336C181.769 53.3425 181.244 53.305 180.702 53.2293L180.568 53.2086C179.728 53.0883 178.946 53.6695 178.826 54.5107L178.671 55.5927C178.656 55.6871 178.65 55.7779 178.655 55.869C178.657 55.9442 178.666 56.0224 178.682 56.0933C178.801 56.7233 179.307 57.238 179.974 57.3316C180.56 57.4163 181.139 57.5513 181.711 57.7363C182.283 57.9234 182.781 58.1676 183.207 58.4708C183.636 58.7757 183.961 59.1487 184.185 59.5979C184.408 60.045 184.475 60.5713 184.386 61.1825C184.306 61.7454 184.13 62.2015 183.86 62.5568C183.592 62.9078 183.277 63.1786 182.916 63.3691C182.553 63.558 182.155 63.6793 181.722 63.7326C181.289 63.7839 180.872 63.7796 180.464 63.7226C179.384 63.5686 178.535 63.1395 177.923 62.4421C177.731 62.2226 177.564 62.0012 177.425 61.7708C177.312 61.5914 177.214 61.4075 177.134 61.2205C176.87 60.6146 176.262 60.2271 175.601 60.3041L173.065 60.5939C172.1 60.7027 171.46 61.675 171.778 62.5947C171.936 63.0528 172.13 63.4824 172.362 63.8831C172.879 64.7759 173.522 65.5335 174.296 66.163C175 66.7368 175.797 67.2156 176.683 67.5957C176.769 67.6326 176.852 67.6678 176.938 67.7027C177.929 68.0981 178.966 68.3756 180.046 68.5316C181.151 68.6916 182.261 68.6975 183.375 68.5496C183.74 68.4992 184.095 68.4343 184.438 68.3448C185.154 68.1688 185.828 67.9162 186.467 67.5814C187.412 67.0855 188.22 66.4 188.887 65.5192C189.554 64.6384 189.984 63.5457 190.172 62.2397C190.268 61.5658 190.248 60.9134 190.111 60.2824C189.969 59.6521 189.733 59.0661 189.396 58.5254C189.06 57.9847 188.637 57.4949 188.125 57.0671C187.61 56.6356 187.028 56.2928 186.373 56.0378L186.389 55.9351C187.605 55.7887 188.657 55.3118 189.545 54.5067L189.547 54.5064Z" fill="white"/>
<path d="M275.556 96.3034L268.369 105.764C267.623 106.745 265.646 106.776 263.76 105.834L246.769 97.3474C245.627 96.777 244.437 96.1583 243.228 95.4992C236.428 91.7827 230.67 86.8308 226.874 81.5241L214.632 64.4149C214.6 64.3706 214.564 64.3262 214.526 64.2819C213.544 63.1452 213.57 61.9843 214.538 61.4804C214.711 61.3897 214.939 61.3494 215.195 61.3615C223.583 61.7061 230.43 59.5758 234.437 55.3716L234.455 55.3534C234.562 55.2406 234.715 55.162 234.902 55.1196C235.559 54.9705 236.331 54.9665 237.157 55.1055C237.403 55.1478 237.659 55.2325 237.905 55.3494L238.826 55.7948C246.151 59.34 253.892 61.2305 260.678 61.1317L263.863 61.0854C264.06 61.0834 264.276 61.1116 264.495 61.172C266.65 61.7706 268.597 63.3669 269.067 64.949C269.079 64.9893 269.093 65.0316 269.111 65.074L276.272 81.4354C278.747 87.0907 278.533 92.341 275.635 96.2006C275.609 96.2349 275.583 96.2691 275.558 96.3034H275.556Z" fill="#0D0E10"/>
<path d="M265.643 84.253L264.798 82.8966C264.22 81.9695 262.893 81.2963 261.837 81.3951L261.795 81.3991C260.737 81.4979 259.413 80.8247 258.832 79.8936L251.542 68.2019C250.962 67.2708 249.634 66.5976 248.58 66.6964L243.581 67.164C242.944 67.2264 242.523 67.559 242.459 68.0568L240.54 82.7515C240.502 83.0477 240.592 83.3863 240.8 83.7189L242.483 86.4156C243.061 87.3447 244.387 88.0178 245.443 87.9191L250.918 87.4072L254.755 87.0504C255.813 86.9497 257.139 87.6228 257.718 88.5519L258.607 89.9749C259.185 90.904 260.509 91.5771 261.567 91.4784L262.343 91.4078L263.933 91.2587C264.992 91.1579 265.379 90.3255 264.8 89.3964L263.911 87.9735C263.756 87.7236 263.671 87.4837 263.649 87.26C263.589 86.6514 264.004 86.1838 264.778 86.1112C265.834 86.0125 266.223 85.1781 265.643 84.251V84.253ZM251.851 82.3262L250.52 82.4512C249.765 82.5197 248.928 82.2113 248.297 81.7337C247.66 81.254 247.233 80.609 247.292 80.0105L247.979 73.0672L248.098 73.0571L252.635 80.3309V80.3349L252.717 80.466C253.296 81.3951 252.909 82.2295 251.851 82.3262Z" fill="white"/>
</g>
<defs>
<clipPath id="clip0_242_15588">
<rect width="318.183" height="288" fill="white" transform="translate(0 -28)"/>
</clipPath>
</defs>
</svg>
