<svg width="206" height="60" viewBox="0 0 206 60" fill="none" xmlns="http://www.w3.org/2000/svg">
<path fill-rule="evenodd" clip-rule="evenodd" d="M178.689 27.0332H178.683C177.481 27.0332 176.492 26.0454 176.492 24.8448C176.492 24.8428 176.492 24.8405 176.492 24.8384C176.492 23.6341 177.484 22.6433 178.689 22.6433C179.895 22.6433 180.886 23.6341 180.886 24.8384C180.886 26.0424 179.895 27.0332 178.689 27.0332ZM178.685 23.0428C177.7 23.0428 176.908 23.8407 176.908 24.8384C176.908 25.837 177.7 26.6337 178.685 26.6337C179.662 26.6337 180.47 25.8359 180.47 24.8384C180.47 23.8395 179.661 23.0428 178.685 23.0428ZM178.357 25.1895V26.0917H177.837V23.5848H178.83C179.317 23.5848 179.726 23.8407 179.726 24.3751C179.742 24.6936 179.546 24.9869 179.245 25.094L179.766 26.0917H179.198L178.741 25.1895H178.356H178.357ZM179.198 24.3917C179.198 24.1437 178.989 24.0799 178.789 24.0799H178.357V24.7023H178.797C178.989 24.7023 179.198 24.6231 179.198 24.3917ZM89.9009 39.1056L82.3865 27.8454V39.1056H79.0469V22.7782H82.9084L90.0053 33.4338V22.7782H93.3452V39.1056H89.9009ZM95.3346 33.5589C95.3346 30.2433 98.0689 27.7203 101.451 27.7203C104.811 27.7203 107.504 30.1809 107.504 33.4962C107.504 36.8534 104.769 39.3557 101.409 39.3557C98.0272 39.3557 95.3346 36.9161 95.3346 33.5589ZM98.6744 33.5172C98.6744 35.2061 99.906 36.3738 101.43 36.3738C102.953 36.3738 104.164 35.2061 104.164 33.5172C104.164 31.8489 102.932 30.6813 101.409 30.6813C99.885 30.6813 98.6744 31.8489 98.6744 33.5172ZM115.487 27.9704V31.1609C115.049 31.0776 114.59 31.0776 114.443 31.0776C112.878 31.0776 111.793 32.1619 111.793 34.2262V39.1056H108.599V27.9704H111.688V29.597H111.73C112.335 28.325 113.463 27.8454 114.611 27.8454C114.861 27.8454 115.258 27.908 115.487 27.9704ZM124.892 39.1056V37.6877H124.851C123.807 39.2097 122.137 39.314 121.386 39.314C118.15 39.314 116.084 36.5198 116.084 33.5172C116.084 30.702 118.234 27.762 121.427 27.762C122.074 27.762 123.619 27.8871 124.767 29.2424H124.809V22.1319H128.044V39.1056H124.892ZM124.892 33.5172C124.892 31.8489 123.661 30.702 122.137 30.702C120.613 30.702 119.382 31.8489 119.382 33.5172C119.382 35.2061 120.613 36.3738 122.137 36.3738C123.661 36.3738 124.892 35.2061 124.892 33.5172ZM134.964 39.1056L129.057 22.7782H132.71L136.947 35.1854L141.205 22.7782H144.795L138.867 39.1056H134.964ZM158.103 28.0121C158.103 31.6196 155.556 33.3502 152.133 33.3502H149.565V39.1056H146.184V22.7782H152.258C155.535 22.7782 158.103 24.5508 158.103 28.0121ZM154.7 28.0957C154.7 26.5108 153.364 25.9687 151.966 25.9687H149.565V30.2016H151.987C153.323 30.2016 154.7 29.6177 154.7 28.0957ZM170.658 39.1056L163.144 27.8454V39.1056H159.804V22.7782H163.666L170.763 33.4338V22.7782H174.102V39.1056H170.658Z" fill="#373B42"/>
<path fill-rule="evenodd" clip-rule="evenodd" d="M28.9626 46.7878C26.3066 43.1298 24.8791 38.7231 24.8867 34.2042C24.8867 22.3635 34.4753 12.7659 46.3027 12.7659C58.1312 12.7659 67.7187 22.3635 67.7187 34.2042C67.7263 38.7231 66.2991 43.1301 63.6428 46.7878L53.3568 30.0678L52.3636 31.7469L53.3711 36.4154L46.3027 24.3103L41.9302 31.6996L42.9488 36.4154L39.2431 30.0765L28.9626 46.7878Z" fill="#4687FF"/>
</svg>
