<svg width="14" height="14" viewBox="0 0 14 14" fill="none" xmlns="http://www.w3.org/2000/svg">
<path fill-rule="evenodd" clip-rule="evenodd" d="M7 0C3.13906 0 0 3.13906 0 7C0 10.8609 3.13906 14 7 14C10.8609 14 14 10.8609 14 7C14 3.13906 10.8609 0 7 0Z" fill="#5DA283"/>
<path fill-rule="evenodd" clip-rule="evenodd" d="M10.3857 4.64019C10.5553 4.80972 10.5553 5.08862 10.3857 5.25815L6.28418 9.35972C6.19941 9.44448 6.0873 9.48823 5.9752 9.48823C5.86309 9.48823 5.75098 9.44448 5.66621 9.35972L3.61543 7.30894C3.4459 7.1394 3.4459 6.8605 3.61543 6.69097C3.78496 6.52144 4.06387 6.52144 4.2334 6.69097L5.9752 8.43276L9.76777 4.64019C9.9373 4.46792 10.2162 4.46792 10.3857 4.64019Z" fill="white"/>
</svg>
