<svg width="252" height="245" viewBox="0 0 252 245" fill="none" xmlns="http://www.w3.org/2000/svg">
<path d="M218.878 40.0843H96.6266V135.739H250.909V69.6538C250.909 53.3466 236.565 40.0843 218.878 40.0843Z" fill="#4573D2"/>
<path d="M250.909 136.263H96.6265C96.4835 136.26 96.3473 136.201 96.2473 136.098C96.1472 135.996 96.0912 135.859 96.0912 135.716V40.0843C96.0912 39.9424 96.1476 39.8062 96.248 39.7058C96.3484 39.6055 96.4845 39.5491 96.6265 39.5491H218.877C236.838 39.5491 251.456 53.073 251.456 69.6896V135.739C251.447 135.879 251.386 136.011 251.285 136.108C251.183 136.205 251.049 136.26 250.909 136.263ZM97.1736 135.168H250.362V69.6539C250.362 53.6321 236.243 40.5958 218.877 40.5958H97.1736V135.168Z" fill="#0D0E10"/>
<path d="M128.658 70.8431V135.703H64.5946V70.8431C64.5738 63.1258 67.4715 55.6861 72.7066 50.0159C75.5883 46.8709 79.0934 44.3604 82.9986 42.6443C86.9039 40.9282 91.1236 40.0442 95.3893 40.0484H98.125C104.323 40.096 110.362 42.0114 115.455 45.5444C120.548 49.0774 124.457 54.0638 126.672 59.8526C127.124 61.0155 127.498 62.2077 127.79 63.421C127.833 63.54 127.861 63.6638 127.873 63.7897C128.411 66.1018 128.675 68.4693 128.658 70.8431Z" fill="#0D0E10"/>
<path d="M128.658 136.346H64.5947C64.4379 136.343 64.2885 136.279 64.1776 136.168C64.0667 136.057 64.003 135.908 64 135.751V70.8431C64.0032 62.5191 67.3113 54.5369 73.1972 48.6509C79.0832 42.7649 87.0654 39.4568 95.3894 39.4537H98.1251C104.442 39.512 110.594 41.4726 115.779 45.0795C120.965 48.6865 124.943 53.7726 127.195 59.6742C127.674 60.8347 128.071 62.027 128.385 63.2425C128.435 63.3969 128.466 63.5566 128.48 63.7183C129.032 66.0285 129.308 68.3963 129.3 70.7717V135.644C129.317 135.735 129.313 135.828 129.288 135.917C129.263 136.006 129.217 136.087 129.155 136.155C129.092 136.223 129.015 136.276 128.929 136.309C128.843 136.342 128.75 136.355 128.658 136.346ZM65.1894 135.156H128.063V70.8431C128.068 68.5321 127.8 66.2286 127.266 63.98C127.276 63.8851 127.276 63.7894 127.266 63.6945V63.5637C126.949 62.399 126.559 61.2549 126.101 60.1381C123.926 54.4666 120.095 49.581 115.105 46.1168C110.116 42.6526 104.199 40.7702 98.1251 40.7145H95.4013C91.4386 40.7067 87.5133 41.48 83.8497 42.9903C80.1861 44.5006 76.8562 46.7183 74.0503 49.5165C71.2444 52.3146 69.0176 55.6384 67.4972 59.2978C65.9767 62.9572 65.1926 66.8804 65.1894 70.8431V135.156Z" fill="#0D0E10"/>
<path d="M64.6064 135.739H128.658V192.5C128.658 200.241 125.583 207.665 120.109 213.139C114.635 218.613 107.21 221.688 99.469 221.688H93.7834C86.042 221.688 78.6177 218.613 73.1437 213.139C67.6697 207.665 64.5945 200.241 64.5945 192.5V135.739H64.6064Z" fill="white"/>
<path d="M99.4687 222.235H93.7951C85.9086 222.235 78.3451 219.103 72.7685 213.526C67.1919 207.949 64.059 200.386 64.059 192.499V135.739C64.0621 135.595 64.1207 135.458 64.2226 135.356C64.3246 135.254 64.462 135.195 64.6062 135.192H128.658C128.802 135.195 128.939 135.254 129.041 135.356C129.143 135.458 129.202 135.595 129.205 135.739V192.499C129.205 200.386 126.072 207.949 120.495 213.526C114.919 219.103 107.355 222.235 99.4687 222.235ZM65.1414 136.262V192.476C65.1509 200.071 68.1731 207.352 73.545 212.722C78.9169 218.092 86.1997 221.111 93.7951 221.117H99.4687C107.063 221.111 114.345 218.091 119.715 212.721C125.085 207.351 128.104 200.07 128.111 192.476V136.262H65.1414Z" fill="#0D0E10"/>
<path d="M112.457 187.754H80.8057C80.648 187.754 80.4967 187.691 80.3852 187.579C80.2737 187.468 80.211 187.317 80.211 187.159C80.211 187.001 80.2737 186.85 80.3852 186.738C80.4967 186.627 80.648 186.564 80.8057 186.564H112.457C112.615 186.564 112.766 186.627 112.877 186.738C112.989 186.85 113.052 187.001 113.052 187.159C113.052 187.317 112.989 187.468 112.877 187.579C112.766 187.691 112.615 187.754 112.457 187.754Z" fill="#F1BD6C"/>
<path d="M163.044 88.2093C166.427 88.2093 169.17 85.4667 169.17 82.0836C169.17 78.7005 166.427 75.958 163.044 75.958C159.661 75.958 156.919 78.7005 156.919 82.0836C156.919 85.4667 159.661 88.2093 163.044 88.2093Z" fill="white"/>
<path d="M163.045 88.7442C161.724 88.7466 160.432 88.3569 159.333 87.6246C158.234 86.8923 157.377 85.8503 156.87 84.6305C156.364 83.4107 156.23 82.0681 156.488 80.7726C156.745 79.4771 157.38 78.287 158.314 77.3531C159.248 76.4192 160.438 75.7834 161.734 75.5263C163.029 75.2692 164.372 75.4024 165.592 75.9089C166.811 76.4154 167.853 77.2725 168.586 78.3717C169.318 79.4708 169.708 80.7626 169.705 82.0833C169.702 83.849 168.999 85.5413 167.751 86.7898C166.503 88.0383 164.81 88.7411 163.045 88.7442ZM163.045 76.5049C161.941 76.5049 160.863 76.832 159.945 77.445C159.028 78.058 158.313 78.9292 157.891 79.9485C157.468 80.9679 157.358 82.0895 157.573 83.1717C157.788 84.2538 158.32 85.2478 159.1 86.0279C159.88 86.8081 160.874 87.3394 161.956 87.5546C163.038 87.7699 164.16 87.6594 165.179 87.2372C166.199 86.815 167.07 86.1 167.683 85.1826C168.296 84.2652 168.623 83.1867 168.623 82.0833C168.623 81.3508 168.479 80.6254 168.198 79.9485C167.918 79.2717 167.507 78.6568 166.989 78.1388C166.471 77.6207 165.856 77.2098 165.179 76.9295C164.503 76.6491 163.777 76.5049 163.045 76.5049Z" fill="#0D0E10"/>
<path d="M163.045 76.5051C162.901 76.5021 162.763 76.4434 162.661 76.3415C162.559 76.2395 162.501 76.1021 162.498 75.9579V0.594816C162.501 0.451776 162.56 0.315648 162.662 0.215597C162.764 0.115546 162.902 0.0595365 163.045 0.0595703C163.187 0.0595703 163.323 0.115962 163.423 0.216341C163.524 0.31672 163.58 0.452859 163.58 0.594816V75.9579C163.58 76.101 163.524 76.2384 163.424 76.3407C163.324 76.443 163.188 76.502 163.045 76.5051Z" fill="#0D0E10"/>
<path d="M185.562 6.29216L163.045 16.4262V0.594727H185.562V6.29216Z" fill="#FF6961"/>
<path d="M163.045 17.0209C162.931 17.0206 162.819 16.9876 162.724 16.9258C162.638 16.8737 162.568 16.8002 162.52 16.7125C162.472 16.6249 162.448 16.5261 162.45 16.4262V0.594721C162.45 0.436992 162.513 0.285721 162.624 0.174189C162.736 0.0626575 162.887 0 163.045 0H185.573C185.73 0.00304506 185.879 0.066682 185.99 0.177561C186.101 0.288439 186.165 0.437945 186.168 0.594721V6.28026C186.166 6.396 186.132 6.50901 186.069 6.60596C186.006 6.70291 185.916 6.77975 185.811 6.8274L163.283 16.9615C163.209 16.999 163.128 17.0194 163.045 17.0209ZM163.64 1.18944V15.4628L184.966 5.86395V1.10618L163.64 1.18944Z" fill="#0D0E10"/>
<path d="M175.855 135.739H150.044V141.901H175.855V135.739Z" fill="white"/>
<path d="M175.854 142.436H150.043C149.9 142.436 149.763 142.38 149.661 142.28C149.558 142.18 149.499 142.043 149.496 141.9V135.739C149.499 135.595 149.558 135.458 149.66 135.356C149.762 135.254 149.899 135.195 150.043 135.192H175.854C175.998 135.195 176.136 135.254 176.238 135.356C176.34 135.458 176.398 135.595 176.401 135.739V141.9C176.398 142.043 176.339 142.18 176.237 142.28C176.135 142.38 175.997 142.436 175.854 142.436ZM150.591 141.353H175.307V136.262H150.591V141.353Z" fill="#0D0E10"/>
<path d="M154.52 270.1V141.894H170.154V270.1" fill="white"/>
<path d="M169.606 269.981C169.462 269.977 169.326 269.889 169.226 269.738C169.125 269.587 169.069 269.384 169.069 269.172V142.523H154.568V269.172C154.58 269.287 154.575 269.404 154.553 269.516C154.531 269.628 154.493 269.731 154.441 269.819C154.39 269.907 154.326 269.978 154.254 270.027C154.183 270.075 154.105 270.1 154.026 270.1C153.947 270.1 153.869 270.075 153.797 270.027C153.726 269.978 153.662 269.907 153.61 269.819C153.559 269.731 153.521 269.628 153.499 269.516C153.477 269.404 153.472 269.287 153.483 269.172V141.661C153.483 141.555 153.497 141.449 153.525 141.351C153.552 141.253 153.593 141.164 153.644 141.089C153.695 141.014 153.755 140.954 153.822 140.913C153.888 140.873 153.96 140.852 154.032 140.852H169.606C169.678 140.852 169.749 140.873 169.816 140.913C169.882 140.954 169.943 141.014 169.994 141.089C170.045 141.164 170.085 141.253 170.113 141.351C170.14 141.449 170.154 141.555 170.154 141.661V269.172C170.154 269.278 170.14 269.383 170.113 269.482C170.085 269.58 170.045 269.669 169.994 269.744C169.943 269.819 169.882 269.879 169.816 269.92C169.749 269.96 169.678 269.981 169.606 269.981Z" fill="#0D0E10"/>
<path d="M154.195 155.365L169.729 166.796V141.901H154.195V155.365Z" fill="#0D0E10"/>
<path d="M169.729 167.39C169.606 167.391 169.485 167.354 169.384 167.283L153.838 155.853C153.765 155.797 153.706 155.725 153.664 155.642C153.623 155.56 153.601 155.469 153.6 155.377V141.901C153.6 141.743 153.663 141.592 153.775 141.48C153.886 141.369 154.037 141.306 154.195 141.306H169.729C169.887 141.306 170.038 141.369 170.15 141.48C170.261 141.592 170.324 141.743 170.324 141.901V166.796C170.327 166.906 170.298 167.015 170.241 167.11C170.184 167.205 170.102 167.281 170.003 167.331C169.918 167.374 169.824 167.395 169.729 167.39ZM154.79 155.068L169.134 165.63V142.495H154.79V155.068Z" fill="#0D0E10"/>
<path d="M41.8159 55.6782L38.7756 134.352L108.966 124.113C109.094 120.826 110.716 118.005 112.536 117.813L120.79 116.945C121.48 116.876 122.144 115.977 122.358 114.703C122.527 113.82 122.43 112.907 122.08 112.08C122.007 111.869 121.873 111.686 121.694 111.553C121.516 111.42 121.301 111.345 121.079 111.336L107.51 112.09C107.245 112.084 106.987 112.002 106.767 111.854C106.547 111.706 106.374 111.498 106.268 111.255C105.926 110.583 105.772 109.83 105.824 109.077C105.893 107.337 106.76 105.924 107.756 105.903L109.662 105.817L117.102 105.667C118.172 105.667 119.136 104.051 119.163 102.129C119.189 101.369 119.041 100.612 118.729 99.9184C118.64 99.6492 118.476 99.4107 118.257 99.2299C118.039 99.0492 117.774 98.9335 117.493 98.896L102.66 98.441C102.371 98.4063 102.096 98.2966 101.862 98.1229C101.629 97.9493 101.444 97.7176 101.327 97.4508C100.861 96.5136 100.718 95.4482 100.921 94.4211C101.178 92.9224 102.082 91.9642 103.003 92.0285L123.279 93.5165C124.205 93.5861 125.008 92.1944 125.083 90.4173C125.152 88.6348 124.473 87.0986 123.547 86.9862L109.207 85.2038C108.931 85.1392 108.676 85.0084 108.462 84.8228C108.248 84.6372 108.083 84.4024 107.981 84.1386C107.648 83.4265 107.497 82.643 107.542 81.8583C107.612 80.1401 108.468 78.8768 109.448 79.0428L110.705 79.2301L119.195 80.6539C119.992 80.7878 121.213 80.199 121.416 77.8224C121.759 74.0433 119.96 73.5402 119.489 73.4331L110.994 71.2225L41.8159 55.6782Z" fill="#FF6961"/>
<path d="M41.8159 55.6781L111.059 71.201L119.553 73.4117C120.024 73.5187 121.823 74.0219 121.48 77.8009C121.471 78.6585 121.163 79.4859 120.608 80.1401C120.441 80.3238 120.232 80.4638 119.999 80.5478C119.766 80.6318 119.515 80.6572 119.27 80.6218L110.78 79.198L109.522 79.0106C109.331 78.9844 109.136 79.0059 108.955 79.0731C108.774 79.1403 108.612 79.2512 108.484 79.396C107.913 80.0759 107.605 80.9383 107.617 81.8262C107.572 82.6109 107.723 83.3944 108.056 84.1064C108.158 84.3702 108.323 84.6051 108.537 84.7907C108.75 84.9763 109.006 85.107 109.282 85.1716L123.622 86.9541C124.564 87.0825 125.227 88.5599 125.158 90.3852C125.173 91.3773 124.84 92.3434 124.216 93.1151C124.108 93.236 123.975 93.3318 123.826 93.3956C123.677 93.4595 123.516 93.4898 123.354 93.4844L103.078 91.9963C102.854 91.9904 102.632 92.0328 102.426 92.1205C102.22 92.2083 102.035 92.3394 101.884 92.5048C101.403 93.0278 101.093 93.6851 100.996 94.389C100.793 95.4161 100.936 96.4814 101.402 97.4186C101.519 97.6854 101.704 97.9171 101.937 98.0908C102.171 98.2645 102.446 98.3741 102.735 98.4089L117.568 98.8639C117.849 98.9013 118.114 99.017 118.332 99.1978C118.551 99.3786 118.714 99.6171 118.804 99.8862C119.116 100.58 119.264 101.337 119.238 102.097C119.267 103.218 118.88 104.311 118.151 105.164C117.902 105.444 117.551 105.613 117.177 105.635L109.737 105.785L107.831 105.871C107.474 105.895 107.141 106.056 106.9 106.32C106.361 107.005 106.023 107.827 105.925 108.693C105.827 109.559 105.971 110.435 106.343 111.223C106.449 111.466 106.622 111.674 106.842 111.822C107.062 111.97 107.32 112.052 107.585 112.058L121.127 111.288C121.35 111.296 121.564 111.372 121.743 111.505C121.921 111.638 122.056 111.821 122.128 112.032C122.478 112.859 122.575 113.772 122.406 114.654C122.318 115.346 122.023 115.995 121.561 116.517C121.372 116.714 121.124 116.842 120.854 116.881L112.6 117.748C111.999 117.839 111.447 118.134 111.037 118.583C109.738 120.112 109.023 122.053 109.019 124.059L38.7756 134.352L41.7999 55.6942M41.3128 55.2071C41.1914 55.3335 41.1176 55.4981 41.104 55.6728L38.1011 134.31C38.0974 134.411 38.116 134.512 38.1557 134.605C38.1955 134.698 38.2553 134.782 38.331 134.849C38.4067 134.917 38.4963 134.967 38.5935 134.996C38.6907 135.024 38.7931 135.031 38.8933 135.016L109.078 124.782C109.225 124.756 109.361 124.687 109.469 124.584C109.592 124.461 109.665 124.297 109.672 124.123C109.673 122.295 110.309 120.524 111.471 119.113C111.77 118.777 112.173 118.55 112.616 118.471L120.87 117.604C121.304 117.549 121.706 117.345 122.005 117.026C122.571 116.403 122.934 115.622 123.043 114.788C123.236 113.766 123.119 112.709 122.706 111.753C122.578 111.416 122.35 111.127 122.052 110.923C121.755 110.719 121.402 110.611 121.042 110.613L107.504 111.389C107.221 111.405 106.991 111.057 106.91 110.913C106.612 110.256 106.496 109.531 106.573 108.814C106.65 108.096 106.918 107.413 107.349 106.834C107.469 106.7 107.632 106.613 107.81 106.588L109.704 106.47L117.118 106.326C117.674 106.297 118.197 106.051 118.574 105.64C119.43 104.659 119.889 103.394 119.864 102.092C119.89 101.222 119.718 100.358 119.361 99.5651C119.216 99.1871 118.97 98.8567 118.648 98.6109C118.327 98.3651 117.943 98.2136 117.541 98.1734L102.708 97.7291C102.54 97.6957 102.383 97.6202 102.252 97.5098C102.121 97.3993 102.02 97.2575 101.959 97.0975C101.567 96.2975 101.451 95.3905 101.627 94.5175C101.7 93.9547 101.941 93.427 102.318 93.0026C102.4 92.9089 102.501 92.8334 102.615 92.7809C102.728 92.7283 102.851 92.7 102.976 92.6975L123.252 94.1856C123.513 94.1984 123.773 94.1538 124.014 94.0548C124.256 93.9558 124.473 93.8049 124.649 93.6129C125.381 92.7217 125.777 91.6023 125.768 90.4494C125.848 88.228 124.96 86.4295 123.622 86.2903L109.314 84.4865C109.154 84.4305 109.009 84.3393 108.89 84.2198C108.77 84.1003 108.679 83.9554 108.623 83.796C108.344 83.1878 108.218 82.521 108.254 81.8529C108.239 81.1397 108.475 80.444 108.923 79.8885C108.974 79.8234 109.04 79.7716 109.116 79.7371C109.191 79.7027 109.274 79.6867 109.357 79.6904L110.625 79.8885L119.093 81.3123C119.448 81.3616 119.81 81.3262 120.148 81.2089C120.487 81.0917 120.793 80.896 121.042 80.6379C121.719 79.8684 122.104 78.8848 122.128 77.8598C122.487 73.8078 120.522 72.9246 119.655 72.7319L111.209 70.548L41.9711 55.009C41.8713 54.9866 41.7677 54.9866 41.6678 55.0088C41.5678 55.031 41.474 55.0749 41.393 55.1375L41.3128 55.2071Z" fill="#0D0E10"/>
<path d="M81.7954 107.616C81.7283 107.681 81.6379 107.718 81.5439 107.717C81.493 107.715 81.4432 107.703 81.3979 107.679C81.3526 107.656 81.3129 107.624 81.2816 107.583L42.7366 57.4552C42.6813 57.3814 42.6576 57.2886 42.6707 57.1973C42.6837 57.106 42.7325 57.0236 42.8062 56.9681C42.8419 56.9403 42.8828 56.9199 42.9265 56.9081C42.9701 56.8963 43.0157 56.8933 43.0606 56.8992C43.1054 56.9052 43.1486 56.9201 43.1877 56.9429C43.2267 56.9658 43.2608 56.9962 43.288 57.0324L81.5439 106.797L110.138 71.7791C110.199 71.7192 110.281 71.684 110.366 71.6803C110.452 71.6765 110.536 71.7045 110.602 71.7589C110.669 71.8132 110.712 71.8901 110.726 71.9749C110.739 72.0596 110.72 72.1462 110.673 72.218L81.8222 107.6L81.7954 107.616Z" fill="#0D0E10"/>
<path d="M39.0218 134.599C38.9598 134.661 38.8762 134.697 38.7884 134.699C38.7007 134.701 38.6155 134.669 38.5508 134.609C38.5162 134.579 38.488 134.542 38.4677 134.501C38.4474 134.46 38.4354 134.415 38.4324 134.37C38.4294 134.324 38.4355 134.278 38.4503 134.235C38.4651 134.191 38.4883 134.151 38.5187 134.117L72.7439 96.0483C72.7725 96.0121 72.8085 95.9824 72.8495 95.9612C72.8904 95.94 72.9354 95.9277 72.9815 95.9251C73.0275 95.9226 73.0736 95.9299 73.1166 95.9465C73.1596 95.9631 73.1986 95.9887 73.231 96.0215C73.2975 96.085 73.3369 96.1717 73.3408 96.2635C73.3448 96.3552 73.3132 96.445 73.2525 96.514L39.0379 134.583L39.0218 134.599Z" fill="#0D0E10"/>
<path d="M109.207 124.321L109.164 124.364C109.088 124.416 108.996 124.436 108.905 124.42C108.815 124.404 108.735 124.353 108.682 124.279L89.8192 97.1082C89.7672 97.0328 89.7471 96.9399 89.7631 96.8497C89.7791 96.7596 89.83 96.6793 89.9048 96.6264C89.9418 96.5997 89.9838 96.5807 90.0283 96.5706C90.0728 96.5604 90.1189 96.5593 90.1638 96.5673C90.2087 96.5752 90.2516 96.5922 90.2899 96.6171C90.3281 96.6419 90.361 96.6743 90.3865 96.7121L109.25 123.882C109.294 123.949 109.314 124.03 109.306 124.11C109.299 124.19 109.263 124.264 109.207 124.321Z" fill="#0D0E10"/>
</svg>
