<svg width="12" height="12" viewBox="0 0 12 12" fill="none" xmlns="http://www.w3.org/2000/svg">
<path d="M0.260461 11.9014C0.356837 11.9657 0.470144 12.0001 0.586047 12.0001C0.663012 12.0002 0.739239 11.9851 0.810351 11.9556C0.881462 11.9262 0.946056 11.883 1.00042 11.8285L6.00009 6.82884L10.9998 11.8285C11.0541 11.883 11.1187 11.9262 11.1898 11.9556C11.2609 11.9851 11.3372 12.0002 11.4141 12.0001C11.53 12.0001 11.6433 11.9657 11.7397 11.9014C11.8361 11.837 11.9112 11.7455 11.9556 11.6384C11.9999 11.5313 12.0115 11.4135 11.9889 11.2998C11.9663 11.1861 11.9105 11.0817 11.8285 10.9998L6.82884 6.00009L11.8285 1.00039C11.9384 0.890491 12.0002 0.741435 12.0002 0.586015C12.0002 0.430594 11.9384 0.281539 11.8285 0.17164C11.7186 0.0617406 11.5696 0 11.4142 0C11.2588 0 11.1097 0.0617406 10.9998 0.17164L6.00009 5.17134L1.00039 0.17164C0.890491 0.0617406 0.741435 0 0.586015 0C0.430594 0 0.281539 0.0617406 0.17164 0.17164C0.0617406 0.281539 6.04083e-08 0.430594 6.04083e-08 0.586015C6.04083e-08 0.741435 0.0617406 0.890491 0.17164 1.00039L5.17134 6.00009L0.171672 10.9998C0.0897052 11.0817 0.0338825 11.1861 0.0112649 11.2998C-0.0113528 11.4135 0.000251194 11.5313 0.0446082 11.6384C0.0889655 11.7455 0.164084 11.837 0.260461 11.9014Z" fill="#FF6961"/>
</svg>
