<svg width="112" height="24" viewBox="0 0 112 24" fill="none" xmlns="http://www.w3.org/2000/svg">
<path d="M4 24V20H0L4 24Z" fill="#286047"/>
<path d="M0 0H112L102 20H0V0Z" fill="#5DA283"/>
<path d="M10.209 4.523H16.28V5.875H11.691V8.501H15.864V9.853H11.691V12.648H16.319V14H10.209V4.523ZM17.3276 10.763C17.3276 9.91367 17.6093 9.151 18.1726 8.475C18.7793 7.76433 19.5723 7.409 20.5516 7.409C20.8983 7.409 21.2753 7.5 21.6826 7.682C22.1073 7.85533 22.428 8.11533 22.6446 8.462V4.146H24.0876V14H22.6706V12.986C22.5146 13.246 22.2936 13.467 22.0076 13.649C21.713 13.8137 21.44 13.9307 21.1886 14C20.9286 14.0693 20.7033 14.104 20.5126 14.104C19.9146 14.104 19.3686 13.9437 18.8746 13.623C18.3893 13.3197 18.008 12.908 17.7306 12.388C17.462 11.868 17.3276 11.3263 17.3276 10.763ZM22.6576 10.763C22.6576 10.1823 22.48 9.697 22.1246 9.307C21.7606 8.917 21.2926 8.722 20.7206 8.722C20.1573 8.722 19.6936 8.917 19.3296 9.307C18.9656 9.71433 18.7836 10.1997 18.7836 10.763C18.7836 11.3263 18.9656 11.8073 19.3296 12.206C19.6936 12.596 20.1573 12.791 20.7206 12.791C21.2926 12.791 21.7606 12.596 22.1246 12.206C22.48 11.816 22.6576 11.335 22.6576 10.763ZM26.7239 6.395C26.4725 6.395 26.2515 6.29967 26.0609 6.109C25.8702 5.91833 25.7749 5.69733 25.7749 5.446C25.7749 5.186 25.8702 4.96067 26.0609 4.77C26.2429 4.57933 26.4639 4.484 26.7239 4.484C26.9925 4.484 27.2179 4.57933 27.3999 4.77C27.5819 4.952 27.6729 5.17733 27.6729 5.446C27.6729 5.706 27.5819 5.927 27.3999 6.109C27.2092 6.29967 26.9839 6.395 26.7239 6.395ZM26.0089 14V7.539H27.4519V14H26.0089ZM33.0261 7.539V8.839H31.3881V11.92C31.3881 12.206 31.4661 12.4183 31.6221 12.557C31.7781 12.687 32.0295 12.752 32.3761 12.752C32.5495 12.752 32.7445 12.7347 32.9611 12.7V13.935C32.6405 14.0217 32.2981 14.065 31.9341 14.065C31.2668 14.065 30.7685 13.909 30.4391 13.597C30.1098 13.285 29.9451 12.752 29.9451 11.998V8.839H28.6971V7.539H29.9451V5.537H31.3881V7.539H33.0261ZM33.8569 10.763C33.8569 10.139 34.0129 9.567 34.3249 9.047C34.6542 8.50967 35.0702 8.10667 35.5729 7.838C36.0929 7.552 36.6649 7.409 37.2889 7.409C37.8956 7.409 38.4589 7.552 38.9789 7.838C39.4989 8.124 39.9149 8.52267 40.2269 9.034C40.5302 9.56267 40.6819 10.1303 40.6819 10.737C40.6992 11.6643 40.3656 12.466 39.6809 13.142C39.0049 13.8093 38.2032 14.1343 37.2759 14.117C36.6779 14.117 36.1102 13.9697 35.5729 13.675C35.0702 13.4063 34.6542 13.0033 34.3249 12.466C34.0129 11.946 33.8569 11.3783 33.8569 10.763ZM35.3389 10.737C35.3389 11.3003 35.5209 11.7857 35.8849 12.193C36.2489 12.6003 36.7169 12.804 37.2889 12.804C37.8522 12.804 38.3159 12.6047 38.6799 12.206C39.0352 11.8073 39.2129 11.3263 39.2129 10.763C39.2129 10.1823 39.0309 9.697 38.6669 9.307C38.3202 8.90833 37.8566 8.709 37.2759 8.709C36.7039 8.709 36.2359 8.904 35.8719 9.294C35.5166 9.67533 35.3389 10.1563 35.3389 10.737ZM45.706 7.513V8.995C45.5933 8.969 45.459 8.956 45.303 8.956C44.757 8.956 44.3367 9.10767 44.042 9.411C43.756 9.71433 43.613 10.1477 43.613 10.711V14H42.17V7.539H43.587V8.54C43.769 8.202 44.016 7.942 44.328 7.76C44.6487 7.578 44.991 7.487 45.355 7.487C45.4503 7.487 45.5673 7.49567 45.706 7.513ZM53.7746 14.117C53.0553 14.1257 52.3576 13.9697 51.6816 13.649C51.0143 13.3283 50.4553 12.882 50.0046 12.31C49.346 11.4953 49.0166 10.49 49.0166 9.294C49.0166 8.60067 49.1466 7.942 49.4066 7.318C49.6666 6.71133 50.0176 6.19133 50.4596 5.758C50.9103 5.33333 51.426 4.99967 52.0066 4.757C52.6046 4.50567 53.2156 4.38 53.8396 4.38C54.8363 4.38 55.7073 4.61833 56.4526 5.095C56.7993 5.33767 57.0853 5.58467 57.3106 5.836C57.7613 6.34733 58.0646 6.89767 58.2206 7.487L56.7516 7.994C56.6736 7.64733 56.5176 7.305 56.2836 6.967C56.119 6.733 55.937 6.54233 55.7376 6.395C55.2523 5.98767 54.6153 5.784 53.8266 5.784C52.9773 5.784 52.2276 6.096 51.5776 6.72C50.9103 7.37 50.5766 8.21067 50.5766 9.242C50.5766 10.2907 50.906 11.1357 51.5646 11.777C52.206 12.401 52.9556 12.713 53.8136 12.713C54.533 12.713 55.144 12.518 55.6466 12.128C55.8806 11.9373 56.0713 11.7467 56.2186 11.556C56.4873 11.2007 56.6736 10.8367 56.7776 10.464L58.2466 10.971C58.03 11.751 57.5966 12.4183 56.9466 12.973C56.3833 13.4497 55.755 13.779 55.0616 13.961C54.6456 14.065 54.2166 14.117 53.7746 14.117ZM63.9687 14V10.386C63.9687 9.88333 63.8473 9.489 63.6047 9.203C63.362 8.917 63.0067 8.774 62.5387 8.774C62.0793 8.774 61.7153 8.92133 61.4467 9.216C61.178 9.51067 61.0437 9.905 61.0437 10.399V14H59.6007V4.146H61.0437V8.358C61.2343 8.11533 61.4553 7.916 61.7067 7.76C61.9927 7.604 62.2223 7.50867 62.3957 7.474C62.6123 7.43067 62.8073 7.409 62.9807 7.409C63.778 7.409 64.3803 7.65167 64.7877 8.137C65.195 8.605 65.3987 9.23333 65.3987 10.022V14H63.9687ZM66.8139 10.763C66.8139 10.139 66.9699 9.567 67.2819 9.047C67.6113 8.50967 68.0273 8.10667 68.5299 7.838C69.0499 7.552 69.6219 7.409 70.2459 7.409C70.8526 7.409 71.4159 7.552 71.9359 7.838C72.4559 8.124 72.8719 8.52267 73.1839 9.034C73.4873 9.56267 73.6389 10.1303 73.6389 10.737C73.6563 11.6643 73.3226 12.466 72.6379 13.142C71.9619 13.8093 71.1603 14.1343 70.2329 14.117C69.6349 14.117 69.0673 13.9697 68.5299 13.675C68.0273 13.4063 67.6113 13.0033 67.2819 12.466C66.9699 11.946 66.8139 11.3783 66.8139 10.763ZM68.2959 10.737C68.2959 11.3003 68.4779 11.7857 68.8419 12.193C69.2059 12.6003 69.6739 12.804 70.2459 12.804C70.8093 12.804 71.2729 12.6047 71.6369 12.206C71.9923 11.8073 72.1699 11.3263 72.1699 10.763C72.1699 10.1823 71.9879 9.697 71.6239 9.307C71.2773 8.90833 70.8136 8.709 70.2329 8.709C69.6609 8.709 69.1929 8.904 68.8289 9.294C68.4736 9.67533 68.2959 10.1563 68.2959 10.737ZM75.842 6.395C75.5907 6.395 75.3697 6.29967 75.179 6.109C74.9884 5.91833 74.893 5.69733 74.893 5.446C74.893 5.186 74.9884 4.96067 75.179 4.77C75.361 4.57933 75.582 4.484 75.842 4.484C76.1107 4.484 76.336 4.57933 76.518 4.77C76.7 4.952 76.791 5.17733 76.791 5.446C76.791 5.706 76.7 5.927 76.518 6.109C76.3274 6.29967 76.102 6.395 75.842 6.395ZM75.127 14V7.539H76.57V14H75.127ZM81.4293 14.117C80.4933 14.1343 79.6916 13.8137 79.0243 13.155C78.3656 12.4877 78.045 11.686 78.0623 10.75C78.0623 10.1433 78.2096 9.58433 78.5043 9.073C78.7903 8.56167 79.1976 8.15433 79.7263 7.851C80.2376 7.55633 80.8096 7.409 81.4423 7.409C82.2136 7.409 82.868 7.61267 83.4053 8.02C83.9426 8.41867 84.285 8.90833 84.4323 9.489L83.1323 9.918C83.0543 9.64067 82.8896 9.37633 82.6383 9.125C82.3436 8.84767 81.945 8.709 81.4423 8.709C80.9136 8.709 80.463 8.89533 80.0903 9.268C79.7263 9.64933 79.5443 10.139 79.5443 10.737C79.5443 11.3263 79.722 11.8203 80.0773 12.219C80.4413 12.609 80.9006 12.804 81.4553 12.804C82.2786 12.804 82.8463 12.3923 83.1583 11.569L84.4713 11.998C84.324 12.5267 84.0033 12.999 83.5093 13.415C82.972 13.883 82.2786 14.117 81.4293 14.117ZM91.8213 11.192H86.9073C86.9159 11.66 87.1153 12.063 87.5053 12.401C87.8953 12.7303 88.3286 12.8907 88.8053 12.882C89.7066 12.882 90.2786 12.518 90.5213 11.79L91.7303 12.167C91.6176 12.557 91.4096 12.9037 91.1063 13.207C90.8116 13.5103 90.4649 13.74 90.0663 13.896C89.6503 14.0433 89.2343 14.117 88.8183 14.117C87.8823 14.1343 87.0806 13.8137 86.4133 13.155C85.7459 12.4963 85.4209 11.699 85.4383 10.763C85.4383 10.1563 85.5769 9.59733 85.8543 9.086C86.1403 8.55733 86.5303 8.15 87.0243 7.864C87.5269 7.56067 88.0816 7.409 88.6883 7.409C89.6763 7.409 90.4476 7.71667 91.0023 8.332C91.5656 8.94733 91.8473 9.75333 91.8473 10.75C91.8473 10.8713 91.8386 11.0187 91.8213 11.192ZM88.7013 8.644C88.2419 8.644 87.8606 8.77833 87.5573 9.047C87.2366 9.307 87.0459 9.658 86.9853 10.1H90.3783C90.3523 9.66667 90.1833 9.31133 89.8713 9.034C89.5419 8.774 89.1519 8.644 88.7013 8.644Z" fill="white"/>
</svg>
