<svg width="80" height="80" viewBox="0 0 80 80" fill="none" xmlns="http://www.w3.org/2000/svg">
<path fill-rule="evenodd" clip-rule="evenodd" d="M31.8114 43.921C28.0034 43.921 25.5745 41.7826 25.5745 38.8108C25.5745 37.8319 25.8646 36.6365 26.9885 34.2081H23L26.6619 26.379H52.152C52.7322 26.379 53.1308 25.9446 53.1308 25.4377C53.1308 24.9297 52.7322 24.4947 52.152 24.4947H31.5207L33.3339 20.6169C34.4578 18.2251 36.8872 16.6667 39.5337 16.6667H48.2C53.2034 16.6667 56.9017 20.1095 56.9017 24.6032C56.9017 29.9314 52.0069 34.2081 46.3508 34.2081H29.5995C29.0913 35.2591 29.6715 36.093 30.9045 36.093H44.2475C46.4593 36.093 48.1635 37.6509 48.1635 39.6443C48.1635 41.9276 45.9522 43.921 43.4497 43.921H31.8114Z" fill="#DA3940"/>
<path fill-rule="evenodd" clip-rule="evenodd" d="M7.70474 57.6328L7.01917 59.9581H0V59.6303L0.908649 59.0039V51.5227L0 50.8963V50.5685H7.34694L7.51082 50.7324L7.04921 52.8342H6.72144C6.42327 51.5373 5.99081 51.3588 3.84486 51.3588H2.8165V54.8013L6.19931 54.5928L6.27396 54.6519L5.96077 55.755L5.87154 55.785L2.8165 55.4873V59.1678H3.78523C5.52875 59.1678 6.43828 58.9001 7.37697 57.5139L7.70474 57.6328ZM80 50.8963L79.0909 51.5227V59.8384L78.9721 59.9581H77.5263L72.1906 52.5811V59.0039L73.264 59.6303V59.9581H70.3127V59.6303L71.2223 59.0039V51.4931L70.1789 50.8963V50.5685H72.9954L78.1222 57.6924V51.5227L77.0492 50.8963V50.5685H80V50.8963ZM64.6497 59.0039L65.7227 59.6303V59.9581H61.8482V59.6303L62.7573 59.0039V51.5227L61.8482 50.8963V50.5685H65.7827C68.5246 50.5685 69.9404 51.5077 69.9404 53.3108C69.9404 55.3676 67.9437 56.7687 64.9779 56.7687C64.8436 56.7687 64.7244 56.7687 64.6497 56.7533V59.0039ZM61.103 50.8963L60.1789 51.5077L57.1088 59.9581H55.3353L52.0713 51.5523L51.118 50.8963V50.5685H54.9629V50.8963L54.0242 51.5373L56.6768 58.3479H56.7811L59.0167 51.5227L58.0625 50.8963V50.5685H61.103V50.8963ZM64.6497 55.9789C66.736 56.0385 68.0029 55.0398 68.0029 53.3563C68.0029 51.9697 67.2882 51.2696 65.857 51.2696C65.4545 51.2696 64.9929 51.3734 64.6497 51.5373V55.9789ZM25.0671 56.0681C25.0671 58.408 23.5021 60.0773 21.3111 60.0773C20.6705 60.0773 20.1338 59.913 19.6126 59.6899V61.9847L20.6856 62.6107V62.9385H16.8849V62.6107L17.8094 61.9847V53.8179L16.8849 53.2662V52.938L19.344 52.4464L19.6126 52.6257V53.6686C20.1939 52.9234 21.1176 52.4618 22.0717 52.4618C23.8449 52.4618 25.0671 54.0114 25.0671 56.0681ZM31.073 54.1011H30.7452C30.5067 53.9518 30.2531 53.8771 29.9996 53.8771C29.4487 53.8771 28.927 54.0861 28.465 54.4881V59.0039L29.568 59.6303V59.9581H25.7227V59.6303L26.6468 59.0039V53.8179L25.7227 53.2662V52.938L28.1964 52.4464L28.465 52.6257V53.8025C28.9416 53.0277 29.7765 52.4764 30.6109 52.4764C30.9988 52.4764 31.3265 52.5811 31.5947 52.7741L31.073 54.1011ZM36.6764 56.1574C35.6781 56.1574 34.5605 56.1278 33.3386 56.0832C33.5025 57.7525 34.4112 58.7208 35.9016 58.7208C36.7957 58.7208 37.377 58.4972 37.8686 58.0802L38.1818 58.3188C37.6902 59.4956 36.5872 60.1365 35.1564 60.1365C32.9658 60.1365 31.4904 58.6315 31.4904 56.3363C31.4904 54.1457 32.9508 52.4464 35.1714 52.4464C36.1997 52.4464 36.9746 52.7741 37.5263 53.4155C38.0776 54.0565 38.3457 54.8905 38.3311 55.9188L38.1072 56.1428C37.8094 56.1574 37.3324 56.1574 36.6764 56.1574ZM39.6272 57.8417H39.9404C40.5217 58.7954 41.3711 59.3467 42.1013 59.3467C42.7573 59.3467 43.1597 59.0039 43.1597 58.4677C43.1597 57.8563 42.8019 57.5285 41.9074 57.1862L41.2369 56.9326C39.9704 56.4556 39.2102 55.6958 39.2102 54.697C39.2102 53.4601 40.3728 52.5064 42.1013 52.5064C43.0996 52.5064 44.0534 52.745 44.7544 53.162L44.0388 54.3843H43.7406C43.249 53.624 42.638 53.2366 41.9224 53.2366C41.2819 53.2366 40.8645 53.594 40.8645 54.0861C40.8645 54.6223 41.2519 54.9501 42.3995 55.3976L43.1597 55.6958C44.3219 56.1428 44.8286 56.8434 44.8286 57.7525C44.8286 59.1828 43.681 60.0773 41.9374 60.0773C40.8645 60.0773 39.7765 59.7942 38.9867 59.3025L39.6272 57.8417ZM46.1697 57.8417H46.4829C47.0642 58.7954 47.9137 59.3467 48.6434 59.3467C49.2994 59.3467 49.7018 59.0039 49.7018 58.4677C49.7018 57.8563 49.3445 57.5285 48.4499 57.1862L47.7794 56.9326C46.5125 56.4556 45.7527 55.6958 45.7527 54.697C45.7527 53.4601 46.9149 52.5064 48.6434 52.5064C49.6426 52.5064 50.5959 52.745 51.2965 53.162L50.5813 54.3843H50.2827C49.791 53.624 49.1806 53.2366 48.465 53.2366C47.824 53.2366 47.4066 53.594 47.4066 54.0861C47.4066 54.6223 47.7944 54.9501 48.942 55.3976L49.7018 55.6958C50.8645 56.1428 51.3711 56.8434 51.3711 57.7525C51.3711 59.1828 50.2235 60.0773 48.4795 60.0773C47.4066 60.0773 46.319 59.7942 45.5288 59.3025L46.1697 57.8417ZM13.1447 56.1874L15.3353 59.0039L16.1547 59.6303V59.9581H12.4441V59.6303L13.2194 59.0485L11.7285 57.0223L10.2977 59.0485L11.1622 59.6303V59.9581H8.21141V59.6303L9.12095 59.0189L11.2519 56.3964L9.07589 53.624L8.24145 52.9685V52.6407H11.937V52.9685L11.1772 53.5494L12.6526 55.5615L14.0834 53.5494L13.2194 52.9685V52.6407H16.1697V52.9685L15.2606 53.5794L13.1447 56.1874ZM36.4378 55.1887C36.274 53.8771 35.6635 53.2512 34.8436 53.2512C33.9495 53.2512 33.3532 54.1307 33.3086 55.383L36.4378 55.1887ZM23.2786 56.8279C23.2786 55.1741 22.4742 53.8025 21.1772 53.8025C20.641 53.8025 20.1193 53.9818 19.6126 54.3542V58.2737C20.03 58.9147 20.6706 59.2279 21.4303 59.2279C22.5634 59.2279 23.2786 58.3334 23.2786 56.8279Z" fill="#DA3940"/>
</svg>
