<svg width="90" height="90" viewBox="0 0 90 90" fill="none" xmlns="http://www.w3.org/2000/svg">
<path fill-rule="evenodd" clip-rule="evenodd" d="M32.3952 65.625C26.4982 65.625 22.7368 62.3885 22.7368 57.8906C22.7368 56.4089 23.1861 54.5997 24.9266 50.9243H18.75L24.4207 39.0748H63.8945C64.7931 39.0748 65.4104 38.4173 65.4104 37.6501C65.4104 36.8812 64.7931 36.2228 63.8945 36.2228H31.9451L34.753 30.3538C36.4935 26.7337 40.2557 24.375 44.354 24.375H57.7745C65.5227 24.375 71.25 29.5857 71.25 36.387C71.25 44.4514 63.6699 50.9243 54.9109 50.9243H28.97C28.1829 52.5149 29.0814 53.7772 30.9908 53.7772H51.6537C55.0789 53.7772 57.718 56.135 57.718 59.152C57.718 62.608 54.2936 65.625 50.4182 65.625H32.3952Z" fill="#DA3940"/>
</svg>
