<svg width="28" height="28" viewBox="0 0 28 28" fill="none" xmlns="http://www.w3.org/2000/svg">
<path d="M23.625 1.75H4.375C3.67881 1.75 3.01113 2.02656 2.51884 2.51884C2.02656 3.01113 1.75 3.67881 1.75 4.375L1.75 23.625C1.75 24.3212 2.02656 24.9889 2.51884 25.4812C3.01113 25.9734 3.67881 26.25 4.375 26.25H11.8809V17.9205H8.43555V14H11.8809V11.0119C11.8809 7.61305 13.9043 5.73562 17.0034 5.73562C18.4877 5.73562 20.0397 6.00031 20.0397 6.00031V9.33625H18.3296C16.6447 9.33625 16.1191 10.3819 16.1191 11.4543V14H19.8805L19.279 17.9205H16.1191V26.25H23.625C24.3212 26.25 24.9889 25.9734 25.4812 25.4812C25.9734 24.9889 26.25 24.3212 26.25 23.625V4.375C26.25 3.67881 25.9734 3.01113 25.4812 2.51884C24.9889 2.02656 24.3212 1.75 23.625 1.75Z" fill="#0D0E10"/>
</svg>
