<svg width="14" height="14" viewBox="0 0 14 14" fill="none" xmlns="http://www.w3.org/2000/svg">
<path d="M12.1184 6.70965C12.3088 6.50032 12.2904 6.17947 12.0774 5.99321L7.38483 1.88718C7.17183 1.70091 6.83035 1.70481 6.62184 1.89597L1.9133 6.21212C1.70479 6.40328 1.69456 6.72372 1.89065 6.92754L2.0087 7.05048C2.20454 7.25431 2.52111 7.27861 2.71532 7.1046L3.06721 6.78947V11.403C3.06721 11.6861 3.29656 11.9152 3.57942 11.9152H5.41481C5.69767 11.9152 5.92702 11.6861 5.92702 11.403V8.1754H8.2681V11.403C8.26402 11.6859 8.46641 11.915 8.74926 11.915H10.6943C10.9772 11.915 11.2065 11.6859 11.2065 11.4028V6.85443C11.2065 6.85443 11.3037 6.93959 11.4236 7.04497C11.5433 7.15015 11.7947 7.06582 11.9851 6.85628L12.1184 6.70965Z" fill="#0D0E10"/>
</svg>
