<svg width="28" height="28" viewBox="0 0 28 28" fill="none" xmlns="http://www.w3.org/2000/svg">
<path d="M24.5 1.75H3.49453C2.53203 1.75 1.75 2.54297 1.75 3.51641V24.4836C1.75 25.457 2.53203 26.25 3.49453 26.25H24.5C25.4625 26.25 26.25 25.457 26.25 24.4836V3.51641C26.25 2.54297 25.4625 1.75 24.5 1.75Z" fill="#0D0E10"/>
<g clip-path="url(#clip0_799_18782)">
<path d="M22.982 10.292C22.9399 9.33564 22.7852 8.67812 22.5636 8.10836C22.3351 7.50359 21.9834 6.96213 21.5228 6.51201C21.0726 6.05489 20.5276 5.69969 19.9298 5.4747C19.3568 5.25315 18.7027 5.09848 17.7463 5.05632C16.7827 5.01058 16.4768 5 14.033 5C11.5892 5 11.2833 5.01058 10.3233 5.05274C9.36689 5.09491 8.70937 5.24971 8.13975 5.47113C7.53484 5.69969 6.99338 6.05132 6.54326 6.51201C6.08614 6.96213 5.73108 7.50716 5.50595 8.10493C5.2844 8.67812 5.12973 9.33207 5.08757 10.2885C5.04183 11.252 5.03125 11.5579 5.03125 14.0018C5.03125 16.4456 5.04183 16.7515 5.08399 17.7115C5.12616 18.6679 5.28096 19.3254 5.50252 19.8952C5.73108 20.4999 6.08614 21.0414 6.54326 21.4915C6.99338 21.9486 7.53841 22.3038 8.13618 22.5288C8.70937 22.7504 9.36332 22.905 10.3199 22.9472C11.2797 22.9895 11.5857 22.9999 14.0296 22.9999C16.4734 22.9999 16.7793 22.9895 17.7393 22.9472C18.6957 22.905 19.3532 22.7504 19.9228 22.5288C21.1325 22.0611 22.0889 21.1047 22.5566 19.8952C22.7781 19.322 22.9329 18.6679 22.975 17.7115C23.0172 16.7515 23.0278 16.4456 23.0278 14.0018C23.0278 11.5579 23.0242 11.252 22.982 10.292ZM21.3611 17.6411C21.3224 18.5202 21.1747 18.9949 21.0516 19.3114C20.7492 20.0956 20.1268 20.7179 19.3426 21.0204C19.0262 21.1434 18.548 21.2911 17.6724 21.3297C16.723 21.372 16.4382 21.3824 14.0366 21.3824C11.6349 21.3824 11.3466 21.372 10.4006 21.3297C9.52155 21.2911 9.04685 21.1434 8.73038 21.0204C8.34015 20.8761 7.98495 20.6476 7.69664 20.3487C7.39776 20.0568 7.1692 19.7052 7.02497 19.315C6.9019 18.9985 6.75424 18.5202 6.71565 17.6447C6.67334 16.6953 6.6629 16.4104 6.6629 14.0088C6.6629 11.6071 6.67334 11.3188 6.71565 10.373C6.75424 9.49387 6.9019 9.01917 7.02497 8.7027C7.1692 8.31234 7.39776 7.95727 7.70021 7.66883C7.99196 7.36994 8.34359 7.14138 8.73395 6.99729C9.05042 6.87422 9.5287 6.72656 10.4042 6.68783C11.3536 6.64566 11.6385 6.63509 14.04 6.63509C16.4453 6.63509 16.73 6.64566 17.676 6.68783C18.555 6.72656 19.0297 6.87422 19.3462 6.99729C19.7364 7.14138 20.0916 7.36994 20.38 7.66883C20.6788 7.96071 20.9074 8.31234 21.0516 8.7027C21.1747 9.01917 21.3224 9.49731 21.3611 10.373C21.4033 11.3224 21.4138 11.6071 21.4138 14.0088C21.4138 16.4104 21.4033 16.6917 21.3611 17.6411Z" fill="white"/>
<path d="M14.0331 9.37793C11.4804 9.37793 9.40918 11.449 9.40918 14.0019C9.40918 16.5548 11.4804 18.6258 14.0331 18.6258C16.586 18.6258 18.6571 16.5548 18.6571 14.0019C18.6571 11.449 16.586 9.37793 14.0331 9.37793ZM14.0331 17.0013C12.377 17.0013 11.0337 15.6581 11.0337 14.0019C11.0337 12.3456 12.377 11.0024 14.0331 11.0024C15.6894 11.0024 17.0326 12.3456 17.0326 14.0019C17.0326 15.6581 15.6894 17.0013 14.0331 17.0013Z" fill="white"/>
<path d="M19.9198 9.19496C19.9198 9.79108 19.4364 10.2744 18.8401 10.2744C18.244 10.2744 17.7607 9.79108 17.7607 9.19496C17.7607 8.5987 18.244 8.11548 18.8401 8.11548C19.4364 8.11548 19.9198 8.5987 19.9198 9.19496Z" fill="white"/>
</g>
<defs>
<clipPath id="clip0_799_18782">
<rect width="18" height="18" fill="white" transform="translate(5 5)"/>
</clipPath>
</defs>
</svg>
