<svg width="20" height="20" viewBox="0 0 20 20" fill="none" xmlns="http://www.w3.org/2000/svg">
<path fill-rule="evenodd" clip-rule="evenodd" d="M6.17181 2.50579C6.14363 2.51159 6.0053 2.53502 5.8644 2.55784C5.07277 2.68596 4.29735 3.09296 3.69245 3.69787C3.11344 4.27692 2.74076 4.96018 2.56369 5.76735C2.50361 6.04128 2.50003 6.27952 2.50003 9.98563C2.50003 14.2426 2.4934 14.0788 2.69048 14.6874C2.88879 15.2997 3.21966 15.8348 3.69245 16.3076C4.16524 16.7803 4.70026 17.1112 5.31265 17.3095C5.9212 17.5066 5.75739 17.5 10.0144 17.5C13.7205 17.5 13.9587 17.4964 14.2326 17.4363C15.0406 17.2591 15.7271 16.8846 16.301 16.3079C16.7777 15.8289 17.1063 15.298 17.3041 14.6874C17.5011 14.0789 17.4946 14.2411 17.4946 10.0027C17.4946 6.80624 17.4859 6.04815 17.4472 5.85274C17.1234 4.2181 15.9399 2.98735 14.301 2.58086C14.0151 2.50995 13.9509 2.50872 10.1168 2.502C7.97525 2.49824 6.19999 2.49995 6.17181 2.50579ZM14.2709 3.27966C15.4861 3.61463 16.3845 4.51212 16.7198 5.72609L16.8114 6.05768V10.0027V13.9477L16.7198 14.2793C16.3854 15.4901 15.4847 16.3908 14.2739 16.7252L13.9423 16.8169H9.99729H6.05226L5.72067 16.7252C4.48549 16.384 3.57635 15.4571 3.26038 14.2167L3.18315 13.9136V10.0027V6.09184L3.26038 5.7887C3.60559 4.43359 4.63471 3.47473 6.0164 3.22091C6.20569 3.18614 7.07913 3.17798 10.0998 3.18286L13.9423 3.18908L14.2709 3.27966ZM5.18869 7.69926C5.00159 7.83031 4.95923 8.09212 5.09842 8.2575C5.35681 8.5646 5.83025 8.41192 5.83025 8.02152C5.83025 7.90406 5.80927 7.85723 5.71412 7.76207C5.6138 7.66175 5.57531 7.64594 5.43141 7.64594C5.3357 7.64594 5.23241 7.66862 5.18869 7.69926ZM8.6652 7.85333C7.91934 7.95119 7.35487 8.41906 7.11189 9.14085C6.93865 9.65544 6.9186 10.3213 7.0597 10.873C7.25247 11.6268 7.73431 12.1269 8.44182 12.3075C8.70086 12.3737 9.23267 12.3737 9.51309 12.3076C10.2766 12.1276 10.763 11.5866 10.938 10.723C11.0091 10.3723 10.9922 9.61654 10.9063 9.30251C10.6241 8.27144 9.75618 7.71019 8.6652 7.85333ZM13.088 7.85074C12.6743 7.90792 12.2878 8.10547 12.0831 8.36434C11.8888 8.6102 11.8308 8.81582 11.8486 9.19505C11.866 9.56561 11.9293 9.71235 12.1658 9.93037C12.3787 10.1266 12.5918 10.215 13.2509 10.3803C14.1282 10.6004 14.3351 10.7402 14.3351 11.1128C14.3351 11.3335 14.2437 11.4812 14.0227 11.6179C13.5577 11.9054 12.7407 11.7741 12.4846 11.3708C12.4316 11.2873 12.3882 11.1912 12.3882 11.1573C12.3882 11.102 12.353 11.0957 12.0437 11.0957H11.6991L11.7222 11.2409C11.8039 11.7534 12.2129 12.1529 12.8138 12.3072C13.0739 12.374 13.6367 12.3742 13.9193 12.3075C14.6073 12.1453 14.9808 11.7295 15.0119 11.0909C15.0297 10.7245 14.9672 10.5148 14.7751 10.2965C14.5793 10.0742 14.2565 9.92849 13.5608 9.74862C12.9156 9.58184 12.7486 9.51195 12.6145 9.35262C12.524 9.24499 12.5076 9.18132 12.523 8.99565C12.5527 8.63438 12.9425 8.40738 13.4796 8.43846C13.8966 8.46261 14.2098 8.67564 14.2855 8.98657L14.3084 9.08049H14.6338H14.9592L14.9383 8.92823C14.8731 8.45257 14.4205 8.00509 13.8872 7.88892C13.6456 7.83632 13.3088 7.82024 13.088 7.85074ZM9.57495 8.60378C10.0644 8.85397 10.3054 9.35453 10.3042 10.1184C10.3033 10.6998 10.1486 11.1165 9.82125 11.4196C9.56542 11.6564 9.36527 11.7276 8.95481 11.7276C8.676 11.7276 8.62514 11.717 8.42051 11.6162C8.02642 11.4222 7.7864 11.0597 7.68687 10.508C7.54936 9.74596 7.80549 8.95907 8.29075 8.65276C8.52475 8.50503 8.69444 8.46432 9.0302 8.47538C9.30976 8.48461 9.36913 8.49861 9.57495 8.60378ZM5.11297 10.6346V12.257H5.43745H5.76193V10.6346V9.01218H5.43745H5.11297V10.6346Z" fill="#0D0E10"/>
</svg>
