<svg width="29" height="29" viewBox="0 0 29 29" fill="none" xmlns="http://www.w3.org/2000/svg">
<g id="Group">
<path id="Vector" d="M27.5808 9.57193C26.7087 8.43153 25.5013 7.86133 23.9584 7.86133L16.9818 7.79425L16.9483 11.5509L23.254 11.6179C23.69 11.6179 24.059 11.7856 24.3273 12.1546C24.5621 12.4565 24.6627 12.8254 24.6627 13.2615C24.6627 13.6975 24.5286 14.0329 24.2938 14.3348C24.0255 14.6366 23.69 14.8043 23.2205 14.8043L16.8812 14.7037L16.8477 18.5274L23.8242 18.5945C25.3671 18.628 26.6081 18.0578 27.5137 16.951C28.3187 15.9447 28.7548 14.7373 28.7883 13.2615C28.7548 11.8527 28.3858 10.6117 27.5808 9.57193Z" fill="#0D0E10"/>
<path id="Vector_2" d="M10.5232 7.77208L10.5 11.5287L14.9945 11.5564L15.0177 7.7998L10.5232 7.77208Z" fill="#6FBB44"/>
<path id="Vector_3" d="M6.60001 4.30117L6.58594 6.58197L9.33631 6.59893L9.35038 4.31814L6.60001 4.30117Z" fill="#6FBB44"/>
<path id="Vector_4" d="M3.52597 4.13288L3.51562 5.80994L5.52809 5.82235L5.53844 4.14529L3.52597 4.13288Z" fill="#6FBB44"/>
<path id="Vector_5" d="M6.61912 7.76254L6.60547 9.97626L9.28876 9.99281L9.30241 7.77909L6.61912 7.76254Z" fill="#6FBB44"/>
<path id="Vector_6" d="M6.52988 1.7685L6.51953 3.44556L8.532 3.45797L8.54235 1.78091L6.52988 1.7685Z" fill="#6FBB44"/>
<path id="Vector_7" d="M3.62094 1.86994L3.61328 3.11096L5.08909 3.12006L5.09675 1.87904L3.62094 1.86994Z" fill="#6FBB44"/>
<path id="Vector_8" d="M1.44125 0.207951L1.43359 1.44897L2.9094 1.45808L2.91706 0.217054L1.44125 0.207951Z" fill="#6FBB44"/>
<path id="Vector_9" d="M10.9433 4.37045L10.9297 6.58417L13.613 6.60072L13.6266 4.387L10.9433 4.37045Z" fill="#6FBB44"/>
<path id="Vector_10" d="M14.9695 14.8047C13.6278 14.9725 12.5545 15.442 11.7831 16.2135C10.911 17.0855 10.4414 18.2259 10.4414 19.6347C10.4414 20.5738 10.4414 21.4459 10.4414 22.2844C10.4414 23.123 10.4414 23.7938 10.4414 24.2969C10.4414 24.8 10.4414 25.2025 10.4414 25.5044L14.9024 25.5379L14.9695 14.8047Z" fill="#0D0E10"/>
<path id="Vector_11" d="M17.5852 21.6805C21.3754 22.15 24.0251 23.1898 24.0251 24.3637C24.0251 25.9402 19.1617 27.2147 13.1578 27.1812C7.15395 27.1477 2.32403 25.8396 2.32403 24.2296C2.32403 23.0556 5.00732 22.0494 8.79747 21.6469C3.79984 22.1165 0.210938 23.4246 0.210938 25.0346C0.210938 27.047 5.98001 28.7241 13.1578 28.7912C20.3021 28.8247 26.1382 27.2147 26.1382 25.2023C26.1382 23.5923 22.5493 22.2171 17.5852 21.6805Z" fill="#6FBB44"/>
</g>
</svg>
