<svg width="32" height="32" viewBox="0 0 32 32" fill="none" xmlns="http://www.w3.org/2000/svg">
<path d="M24.7333 22.9669L19.6628 13.0612V5.40625H20.3522C20.7405 5.40625 21.0553 5.09144 21.0553 4.70312C21.0553 4.31481 20.7405 4 20.3522 4H11.4324C11.0441 4 10.7293 4.31481 10.7293 4.70312C10.7293 5.09144 11.0441 5.40625 11.4324 5.40625H12.1218V13.0612L7.05125 22.9669C6.49817 24.0474 6.54608 25.3107 7.17931 26.3463C7.81255 27.3818 8.91524 28 10.1291 28H21.6555C22.8694 28 23.972 27.3818 24.6053 26.3463C25.2386 25.3107 25.2864 24.0474 24.7333 22.9669ZM13.4508 13.5511C13.5016 13.4519 13.528 13.3421 13.528 13.2307V5.40625H18.2565V13.2307C18.2565 13.342 18.283 13.4519 18.3337 13.5511L20.2902 17.3732H11.4943L13.4508 13.5511ZM21.6555 26.5938H10.1291C9.40897 26.5938 8.75474 26.227 8.37903 25.6126C8.16767 25.267 8.06624 24.8787 8.07631 24.4909C8.08194 24.2755 8.12197 24.0603 8.19669 23.8527C8.22659 23.7696 10.7745 18.7795 10.7745 18.7795H21.0101C21.0101 18.7795 23.5212 23.6882 23.5389 23.7291C23.6453 23.9742 23.7016 24.2324 23.7083 24.4909C23.7184 24.8787 23.6169 25.267 23.4056 25.6126C23.0299 26.227 22.3757 26.5938 21.6555 26.5938Z" fill="#FF6961"/>
</svg>
