<svg width="22" height="23" viewBox="0 0 22 23" fill="none" xmlns="http://www.w3.org/2000/svg">
<g clip-path="url(#clip0_446_5876)">
<path d="M19.3799 12.4563C19.7923 11.9839 19.9986 11.4252 19.9986 10.7801C19.9986 10.1951 19.7846 9.68894 19.358 9.26122C18.9305 8.83353 18.4243 8.61981 17.8393 8.61981H14.7232C14.7532 8.51484 14.7832 8.42484 14.8132 8.34986C14.8428 8.27487 14.8845 8.19228 14.9368 8.10228C14.9891 8.01225 15.0268 7.94471 15.0492 7.89979C15.1841 7.64493 15.2875 7.43479 15.3588 7.26993C15.43 7.10475 15.5009 6.87984 15.5723 6.59483C15.6437 6.30998 15.6792 6.02486 15.6792 5.73986C15.6792 5.55994 15.677 5.41356 15.6735 5.30114C15.6699 5.18864 15.6508 5.01984 15.6174 4.79481C15.5834 4.56989 15.5383 4.38237 15.4822 4.23244C15.4259 4.08247 15.3358 3.91359 15.2123 3.72623C15.0885 3.53851 14.9385 3.38685 14.7621 3.27053C14.5858 3.15429 14.3609 3.05681 14.0871 2.97812C13.8131 2.89935 13.5039 2.85999 13.1587 2.85999C12.9637 2.85999 12.7951 2.93127 12.6525 3.07379C12.5025 3.22376 12.3748 3.41124 12.2699 3.63615C12.1649 3.86118 12.0917 4.05619 12.0504 4.22125C12.0091 4.38623 11.9622 4.61505 11.9099 4.90746C11.8422 5.22261 11.7918 5.44934 11.7578 5.58808C11.7241 5.72682 11.6583 5.90866 11.5609 6.13362C11.4633 6.35873 11.3472 6.5386 11.2122 6.67368C10.9647 6.92113 10.586 7.37116 10.0759 8.0236C9.7083 8.50353 9.3296 8.95726 8.93962 9.38479C8.54957 9.81239 8.2646 10.0336 8.08465 10.0486C7.89728 10.0636 7.73601 10.1405 7.60097 10.2793C7.46594 10.418 7.39844 10.5812 7.39844 10.7686V17.9798C7.39844 18.1748 7.46964 18.3416 7.61216 18.4804C7.7546 18.6193 7.92337 18.6924 8.11838 18.6999C8.38084 18.7074 8.97335 18.8722 9.8959 19.195C10.4733 19.3897 10.9251 19.5381 11.2514 19.6392C11.5776 19.7403 12.0335 19.8491 12.618 19.9655C13.2031 20.0817 13.743 20.14 14.2379 20.14H14.4292H15.2843H15.6892C16.6869 20.125 17.4253 19.8324 17.9055 19.2626C18.3404 18.745 18.524 18.0662 18.4568 17.2262C18.7492 16.9488 18.9519 16.5964 19.0642 16.1688C19.1915 15.7116 19.1915 15.2728 19.0642 14.8529C19.4091 14.3954 19.5704 13.8816 19.5478 13.3116C19.5487 13.0714 19.4926 12.7864 19.3799 12.4563Z" fill="white"/>
<path d="M5.96004 10.0601H2.72014C2.52501 10.0601 2.35625 10.1314 2.21376 10.2739C2.07128 10.4163 2 10.5851 2 10.7801V17.9804C2 18.1751 2.07128 18.3439 2.2138 18.4866C2.3564 18.6289 2.52517 18.7002 2.72017 18.7002H5.96004C6.155 18.7002 6.32369 18.6289 6.46625 18.4866C6.60873 18.3439 6.67998 18.1751 6.67998 17.9804V10.7801C6.67998 10.5851 6.60869 10.4164 6.46625 10.2739C6.32373 10.1313 6.15504 10.0601 5.96004 10.0601ZM4.66623 17.052C4.52374 17.1907 4.35502 17.2601 4.16001 17.2601C3.95748 17.2601 3.78682 17.1907 3.64816 17.052C3.50942 16.9132 3.44007 16.7427 3.44007 16.5401C3.44007 16.3452 3.50938 16.1763 3.64816 16.0339C3.78686 15.8914 3.95748 15.82 4.16001 15.82C4.35502 15.82 4.52374 15.8914 4.66623 16.0339C4.80875 16.1763 4.88003 16.3451 4.88003 16.5401C4.88003 16.7427 4.80891 16.9132 4.66623 17.052Z" fill="white"/>
</g>
<defs>
<clipPath id="clip0_446_5876">
<rect width="18" height="18" fill="white" transform="translate(2 2.5)"/>
</clipPath>
</defs>
</svg>
