<svg width="20" height="20" viewBox="0 0 20 20" fill="none" xmlns="http://www.w3.org/2000/svg">
<g id="Icon / Linux">
<path id="image 52 (Traced)" fill-rule="evenodd" clip-rule="evenodd" d="M10.1307 1.05109C9.09402 1.22429 8.41688 1.84069 8.13538 2.86738C8.04805 3.18583 8.03488 3.46012 8.04747 4.69884C8.05942 5.877 8.04419 6.22995 7.96787 6.54383C7.83275 7.09932 7.52689 7.69113 7.09756 8.22775C6.50793 8.9647 6.0875 9.6252 5.68547 10.4462C5.16067 11.518 5.06526 11.837 5.02848 12.6426L4.99767 13.3162L4.72801 13.6383C4.37623 14.0585 4.35151 14.0767 3.88857 14.2562C3.23368 14.5101 3.04268 14.8628 3.11443 15.6854C3.14384 16.0225 3.12931 16.2403 3.05856 16.5225C2.86949 17.2762 3.14495 17.8007 3.78829 17.9122C3.96354 17.9425 4.35468 18.0097 4.65761 18.0614C5.18328 18.1511 5.535 18.2535 6.44971 18.5832C6.77308 18.6997 6.97105 18.731 7.38685 18.7312C8.01801 18.7315 8.29265 18.6283 8.59212 18.2784C8.79097 18.0461 8.80948 18.0387 9.4967 17.9124C10.2176 17.78 10.4619 17.7792 11.9442 17.9046L12.4016 17.9433L12.5592 18.2339C12.8709 18.8083 13.5222 19.1106 14.13 18.9627C14.6183 18.8439 15.0401 18.6023 15.432 18.2169C15.9656 17.6922 16.3422 17.4222 17.0288 17.0722C17.3675 16.8996 17.6808 16.696 17.7495 16.604C17.9876 16.285 17.8688 15.8129 17.4053 15.2357C17.2755 15.0741 17.1812 14.8708 17.1337 14.65C17.0362 14.1972 16.8868 13.9101 16.6506 13.7216L16.4548 13.5654L16.5324 13.2358C16.6349 12.8001 16.6312 11.8829 16.5251 11.4328C16.283 10.4062 15.5768 9.18949 14.4783 7.9062C14.3028 7.70114 14.0678 7.3585 13.9561 7.14477C13.6028 6.46869 13.5569 6.23417 13.5068 4.85265C13.4431 3.09195 13.2533 2.36537 12.6929 1.73591C12.1708 1.14943 11.1596 0.879187 10.1307 1.05109ZM11.6392 3.63777C12.0604 3.91762 12.2436 4.7153 11.9991 5.20408C11.9107 5.38067 11.8696 5.40779 11.7021 5.4C11.4597 5.38864 11.4319 5.3614 11.5114 5.21292C11.5462 5.14785 11.5747 4.9599 11.5747 4.79525C11.5747 4.55552 11.546 4.46725 11.4309 4.35216C11.3518 4.27309 11.251 4.20837 11.2069 4.20837C11.0617 4.20837 10.8629 4.48453 10.8297 4.73264C10.7979 4.96933 10.7924 4.97454 10.6148 4.93647C10.3518 4.88018 10.3447 4.87104 10.3447 4.5923C10.3447 4.42942 10.4023 4.22905 10.5058 4.03143C10.7688 3.52935 11.2333 3.36799 11.6392 3.63777ZM9.2777 3.77266C9.4537 3.89589 9.58262 4.15964 9.63797 4.50966C9.68196 4.78799 9.67715 4.8031 9.5193 4.88475C9.29644 4.99996 9.29041 4.99715 9.29041 4.77786C9.29041 4.41003 8.96563 4.17399 8.82389 4.43879C8.73826 4.59886 8.74933 4.97091 8.84521 5.1547C8.93096 5.31905 8.87801 5.43836 8.7194 5.43836C8.49776 5.43836 8.32744 4.55646 8.47416 4.16825C8.63095 3.75321 8.99445 3.57422 9.2777 3.77266ZM10.7788 5.16665C10.9105 5.24274 11.2028 5.37727 11.4283 5.46566C11.9506 5.67036 12.1018 5.80683 12.1018 6.07363C12.1018 6.23903 12.0526 6.32566 11.8459 6.52375C11.7051 6.65863 11.5156 6.78761 11.425 6.81039C11.3342 6.83312 11.0816 6.95782 10.8633 7.08743C10.1971 7.48326 9.80689 7.46838 9.22539 7.02505C8.60389 6.55121 8.41184 6.33649 8.41184 6.11568C8.41184 5.94664 8.46245 5.88139 8.8072 5.6057C9.42506 5.11165 9.58689 5.00945 9.81245 4.97102C10.1006 4.92188 10.4923 5.00119 10.7788 5.16665ZM11.4672 6.05313C11.2546 6.27728 10.702 6.58893 10.3227 6.69858C9.75376 6.86305 9.35835 6.74643 8.86577 6.2689C8.68525 6.09389 8.58755 6.03192 8.58755 6.09243C8.58755 6.20729 8.99462 6.54676 9.34839 6.72687C9.66737 6.88929 10.0753 6.8996 10.4902 6.75569C10.9324 6.60223 11.6918 6.09647 11.6918 5.95531C11.6918 5.86886 11.6069 5.90588 11.4672 6.05313ZM12.2515 6.97586C12.53 7.82092 12.8579 8.60085 13.3902 9.68477C13.8529 10.6271 14.1189 11.311 14.2361 11.8599C14.2674 12.0062 14.3126 12.051 14.4586 12.0802C14.6914 12.1267 14.7202 12.0783 14.7676 11.5619C14.8389 10.7847 14.5695 9.97663 14.0103 9.29012C13.7259 8.94097 13.6595 8.80193 13.8659 8.98748C14.0821 9.18188 14.4991 9.80584 14.6812 10.2075C14.9406 10.7796 15.0478 11.3027 15.0133 11.8286L14.984 12.2738L15.2269 12.3934C15.662 12.6077 15.9519 12.8571 16.0256 13.0805C16.098 13.2995 16.0739 13.4626 15.9693 13.4626C15.9361 13.4626 15.9089 13.3988 15.9089 13.3207C15.9089 13.0039 15.365 12.6088 14.6913 12.4361C14.3731 12.3547 14.3128 12.3543 14.1243 12.4331C13.9786 12.494 13.8866 12.5852 13.8271 12.7276C13.7796 12.8411 13.5987 13.0727 13.4248 13.2422C13.0583 13.5997 13.0045 13.7471 12.9167 14.634C12.8371 15.438 12.7188 16.1058 12.6202 16.3073C12.5734 16.4031 12.3977 16.5483 12.1897 16.6634C11.1504 17.2383 10.0421 17.2945 8.99673 16.8254C8.71389 16.6984 8.59376 16.5981 8.37957 16.3098L8.11354 15.9519L8.30518 15.9126C8.67277 15.8374 8.79818 15.4982 8.61789 15.0669C8.49501 14.7727 7.8119 14.0859 7.32827 13.7703C6.77993 13.4125 6.50002 13.1413 6.31534 12.789C6.18356 12.5377 6.16142 12.4214 6.15931 11.969C6.1565 11.3618 6.27271 10.9522 6.69108 10.0948C7.03226 9.39566 7.25869 9.11212 6.97187 9.74334C6.50207 10.7769 6.40285 11.1105 6.39676 11.6762C6.39172 12.1484 6.40924 12.24 6.56451 12.5548L6.73782 12.9062L6.80518 12.4083C6.91043 11.6295 7.07782 11.1137 7.59401 9.97763C8.12045 8.81903 8.49074 7.77951 8.58263 7.20241C8.61532 6.99677 8.65116 6.81953 8.66217 6.80852C8.67318 6.79745 8.86225 6.93193 9.0823 7.10723C9.54613 7.47687 9.78721 7.57217 10.1537 7.53088C10.4675 7.4955 11.6383 6.91149 11.8957 6.66191C11.9917 6.56879 12.0752 6.49264 12.0813 6.49264C12.0873 6.49264 12.1638 6.71012 12.2515 6.97586ZM6.15105 13.5051C6.328 13.6299 6.48631 13.8573 6.83364 14.4853C7.08233 14.935 7.45356 15.5253 7.6585 15.7971C8.41383 16.7989 8.46795 16.8865 8.56143 17.2577C8.61373 17.4656 8.63751 17.7026 8.61596 17.8009C8.56934 18.0131 8.33745 18.2989 8.12115 18.4108C7.67994 18.6389 6.89292 18.5691 6.13161 18.2344C5.59439 17.9982 4.90325 17.8242 4.17779 17.7425C3.53286 17.6698 3.33911 17.5509 3.28587 17.1949C3.26104 17.0291 3.28171 16.851 3.3486 16.6547C3.43048 16.4142 3.44132 16.2442 3.40916 15.7035C3.35744 14.8341 3.43593 14.6883 4.06211 14.4909C4.38589 14.3889 4.62621 14.1881 5.03586 13.6774C5.16026 13.5223 5.31841 13.3715 5.38728 13.3422C5.58209 13.2593 5.89832 13.3267 6.15105 13.5051ZM13.8241 13.5875C13.852 13.7621 13.9277 13.8965 14.0885 14.0573C14.2829 14.2518 14.3497 14.2826 14.5769 14.2826C14.9166 14.2826 15.2966 14.1471 15.5687 13.9288C15.7295 13.7999 15.8466 13.7555 16.0256 13.7555C16.493 13.7555 16.7777 14.0442 16.8727 14.6146C16.911 14.8451 17.0286 15.061 17.4757 15.7225C17.704 16.0603 17.7237 16.318 17.5343 16.4914C17.4618 16.5577 17.1831 16.7206 16.915 16.8532C16.2679 17.1733 15.976 17.3797 15.3868 17.934C14.5628 18.7094 13.8348 18.9432 13.2294 18.6273C12.6352 18.3172 12.4952 17.6923 12.7926 16.6776C13.0021 15.9626 13.0764 15.585 13.1254 14.9855C13.2009 14.0611 13.3149 13.6552 13.5714 13.3988C13.7221 13.248 13.7763 13.2884 13.8241 13.5875Z" fill="#0D0E10"/>
</g>
</svg>
