<svg width="125" height="35" viewBox="0 0 125 35" fill="none" xmlns="http://www.w3.org/2000/svg">
<path d="M44.3812 24.395L38.1016 11.4975H41.0336L44.3812 18.6681L47.7519 11.4975H50.6378L44.3812 24.395Z" fill="#0D0E10"/>
<path d="M51.2458 28.2691V11.4975H54.0624V13.2541C54.4549 12.1231 55.817 11.2328 57.7563 11.2328C61.0347 11.2328 63.5743 13.976 63.5743 17.5613C63.5743 21.1466 61.0347 23.8897 57.7563 23.8897C55.817 23.8897 54.4549 22.9994 54.0624 21.8685V28.2691H51.2458ZM53.8546 17.5613C53.8546 19.6547 55.3784 21.2428 57.387 21.2428C59.3263 21.2428 60.8038 19.6547 60.8038 17.5613C60.8038 15.4678 59.3263 13.8797 57.387 13.8797C55.3784 13.8797 53.8546 15.4678 53.8546 17.5613Z" fill="#0D0E10"/>
<path d="M64.8139 23.625V11.4975H67.6075V13.23C68.1385 12.075 69.4544 11.2569 71.1167 11.2569C73.9333 11.2569 75.5494 13.1338 75.5494 16.1175V23.625H72.7328V16.5266C72.7328 14.9144 71.8555 13.8556 70.2856 13.8556C68.7156 13.8556 67.6075 15.0106 67.6075 16.6469V23.625H64.8139Z" fill="#0D0E10"/>
<path d="M77.7412 23.625V6.85345H80.6502V13.3744H88.3612V6.85345H91.2471V23.625H88.3612V16.1416H80.6502V23.625H77.7412Z" fill="#0D0E10"/>
<path d="M93.4575 18.8125V11.4975H96.2741V18.5719C96.2741 20.4488 97.3592 21.2669 98.7906 21.2669C100.222 21.2669 101.307 20.4488 101.307 18.5478V11.4975H104.124V18.7403C104.124 22.2535 101.676 23.9378 98.7675 23.9378C95.8816 23.9378 93.4575 22.2775 93.4575 18.8125Z" fill="#0D0E10"/>
<path d="M105.789 23.625V11.4975H108.582V13.23C109.113 12.075 110.429 11.2569 112.092 11.2569C114.908 11.2569 116.524 13.1338 116.524 16.1175V23.625H113.708V16.5266C113.708 14.9144 112.83 13.8556 111.26 13.8556C109.691 13.8556 108.582 15.0106 108.582 16.6469V23.625H105.789Z" fill="#0D0E10"/>
<path d="M118.116 18.5478V6.85345H120.909V11.4975H123.472V14.1444H120.909V18.3313C120.909 20.1841 121.879 20.93 123.334 20.93H123.472V23.6731C123.472 23.6731 122.918 23.6731 122.895 23.6731C120.979 23.6731 118.116 22.6866 118.116 18.5478Z" fill="#0D0E10"/>
<g clip-path="url(#clip0_1529_787)">
<path d="M22.0147 30.8611C13.201 35.4978 3.71583 34.448 0.840896 28.4989C-1.34154 24.0152 0.861881 18.0005 5.8563 13.3419L8.03873 14.2167C5.91925 16.9944 5.18478 20.1002 6.38092 22.5498C6.59077 22.9873 6.86357 23.4028 7.17835 23.7528L7.2413 23.8184C9.82245 26.6836 15.4254 26.9242 20.6717 24.1465C26.6104 21.0188 29.8421 15.201 27.8905 11.1985C26.6524 8.66135 23.6515 7.43654 20.0841 7.67712C19.8742 7.699 19.6434 7.72087 19.4336 7.74274C18.1115 7.89584 16.7475 8.24579 15.3625 8.79258L15.0057 7.78648C22.7072 5.00879 30.2198 6.49606 32.738 11.6578C35.6339 17.6068 30.8284 26.2024 22.0147 30.8611Z" fill="#FF6961"/>
<path d="M19.5592 22.1343C15.2153 24.4308 10.5567 23.9059 9.1297 20.9751C8.29031 19.2254 8.77296 17.0382 10.2209 15.0698L12.928 16.1415C12.4663 17.0163 12.3824 17.9131 12.7391 18.6348C13.4946 20.1877 15.9708 20.4502 18.2791 19.2472C20.5875 18.0443 21.8466 15.8134 21.0911 14.2605C20.4826 13.0357 18.7828 12.5983 16.9361 13.1013L16.0757 10.7829C19.874 9.405 23.5673 10.1486 24.8055 12.6857C26.2534 15.6165 23.9031 19.8596 19.5592 22.1343Z" fill="#FF6961"/>
<path fill-rule="evenodd" clip-rule="evenodd" d="M15.1734 11.1547L16.0128 13.4294L17.2299 16.7539L13.5156 15.2666L10.8925 14.2168L8.75202 13.3638H8.73103L6.71648 12.5545L2.43555 10.8485L9.02482 8.18019L11.585 1.3125L14.0822 8.13645L14.4599 9.16442L15.1734 11.1547Z" fill="#0D0E10"/>
</g>
<defs>
<clipPath id="clip0_1529_787">
<rect width="33.5811" height="35" fill="white"/>
</clipPath>
</defs>
</svg>
