<svg width="426" height="396" viewBox="0 0 426 396" fill="none" xmlns="http://www.w3.org/2000/svg">
<path d="M10.6674 331.873C47.138 404.282 167.464 417.06 279.272 360.623C391.08 303.921 452.042 199.301 415.305 126.892C383.36 64.0664 288.057 45.9642 190.358 79.7728L194.884 92.0184C212.454 85.3631 229.757 81.1038 246.529 79.2403C247.86 79.1072 249.257 78.9741 250.655 78.841C252.053 78.7079 253.45 78.5748 254.781 78.4417C300.037 75.5134 338.104 90.4211 353.811 121.301C378.568 170.018 337.572 240.829 262.235 278.897C195.683 312.706 124.605 309.777 91.8611 274.904L91.0625 274.105C87.0693 269.846 83.6086 264.788 80.9465 259.464C65.7726 229.648 75.09 191.847 101.977 158.038L74.2913 147.39C10.9336 204.092 -17.0184 277.3 10.6674 331.873Z" fill="#FF6961"/>
<path d="M115.82 240.297C133.922 275.969 193.02 282.358 248.125 254.406C303.231 226.72 333.046 175.076 314.678 139.404C298.971 108.523 252.119 99.4722 203.935 116.243L214.849 144.462C238.276 138.339 259.839 143.663 267.559 158.571C277.142 177.471 261.17 204.625 231.887 219.266C202.604 233.908 171.191 230.713 161.608 211.812C157.082 203.027 158.147 192.113 164.003 181.465L129.662 168.42C111.294 192.379 105.171 219 115.82 240.297Z" fill="#FF6961"/>
<path fill-rule="evenodd" clip-rule="evenodd" d="M192.487 120.769L203.136 148.455L218.576 188.919L171.457 170.816L138.181 158.038L111.027 147.656H110.761L85.2051 137.806L30.8984 117.042L114.488 84.5646L146.966 0.974976L178.644 84.0322L183.436 96.544L192.487 120.769Z" fill="#0D0E10"/>
</svg>
