<svg width="311" height="260" viewBox="0 0 311 260" fill="none" xmlns="http://www.w3.org/2000/svg">
<g clip-path="url(#clip0_242_15799)">
<path d="M188.53 260.082H121.788C120.319 260.082 119.466 258.432 120.301 257.227C127.59 246.66 139.577 239.573 153.25 238.966V239.002H157.784C171.158 239.818 182.854 246.841 190.026 257.227C190.86 258.432 190.008 260.082 188.539 260.082H188.53Z" fill="#0D0E10"/>
<path d="M157.478 239.002H152.98V238.966C153.615 238.939 154.25 238.921 154.894 238.921C155.764 238.921 156.625 238.948 157.478 239.002Z" stroke="#0D0E10" stroke-width="1.19" stroke-miterlimit="10"/>
<path d="M157 31H153V239H157V31Z" fill="#0D0E10"/>
<path d="M52 30.2909L52 32.1035L258.732 32.1757L258.732 30.363L52 30.2909Z" fill="#0D0E10"/>
<path d="M155.164 39.3275C159.951 39.3275 163.832 35.4486 163.832 30.6638C163.832 25.8789 159.951 22 155.164 22C150.377 22 146.496 25.8789 146.496 30.6638C146.496 35.4486 150.377 39.3275 155.164 39.3275Z" fill="#0D0E10"/>
<path d="M259.009 33.938C260.511 33.938 261.729 32.7208 261.729 31.2192C261.729 29.7177 260.511 28.5005 259.009 28.5005C257.507 28.5005 256.289 29.7177 256.289 31.2192C256.289 32.7208 257.507 33.938 259.009 33.938Z" fill="#0D0E10"/>
<path opacity="0.8" d="M309.905 143.277C299.985 161.184 280.881 173.301 258.957 173.301C237.033 173.301 217.928 161.184 208 143.277H309.905Z" fill="#4580FF"/>
<path d="M310.342 143.519C310.428 143.364 310.425 143.176 310.335 143.023C310.246 142.87 310.082 142.777 309.905 142.777H208C207.823 142.777 207.659 142.871 207.569 143.023C207.479 143.176 207.477 143.364 207.563 143.519C217.576 161.579 236.844 173.801 258.957 173.801C281.07 173.801 300.338 161.579 310.342 143.519Z" stroke="#0D0E10" stroke-linejoin="round"/>
<path d="M208.008 142.688L259.01 31.2192L310.012 142.688" stroke="#0D0E10" stroke-width="0.92" stroke-miterlimit="10"/>
<path d="M242.959 134.894C240.554 131.774 239.137 127.923 239.137 123.747C239.137 113.268 248.132 104.777 259.235 104.777C270.339 104.777 279.334 113.268 279.334 123.763C279.334 127.924 277.917 131.774 275.512 134.909L265.858 120.099L264.919 121.589L265.858 125.719L259.219 115.007L255.133 121.543L256.089 125.719L252.613 120.115L242.959 134.894Z" fill="#4580FF"/>
<path opacity="0.8" fill-rule="evenodd" clip-rule="evenodd" d="M212.996 146.313C221.387 158.64 234.388 167.575 249.522 170.643C237.086 165.721 226.483 157.178 219.013 146.313H212.996Z" fill="#C9DAFF"/>
<path d="M52.0092 33.938C53.5115 33.938 54.7293 32.7208 54.7293 31.2192C54.7293 29.7177 53.5115 28.5005 52.0092 28.5005C50.5069 28.5005 49.2891 29.7177 49.2891 31.2192C49.2891 32.7208 50.5069 33.938 52.0092 33.938Z" fill="#0D0E10"/>
<path opacity="0.8" d="M102.905 143.277C92.9853 161.184 73.881 173.301 51.9568 173.301C30.0327 173.301 10.9284 161.184 1 143.277H102.905Z" fill="#DA3940"/>
<path d="M103.342 143.519C103.428 143.364 103.425 143.176 103.335 143.023C103.246 142.87 103.082 142.777 102.905 142.777H1C0.822917 142.777 0.659043 142.871 0.569174 143.023C0.479304 143.176 0.476847 143.364 0.562712 143.519C10.5758 161.579 29.8439 173.801 51.9568 173.801C74.0698 173.801 93.338 161.579 103.342 143.519Z" stroke="#0D0E10" stroke-linejoin="round"/>
<path d="M1.00781 142.688L52.0102 31.2192L103.012 142.688" stroke="#0D0E10" stroke-width="0.92" stroke-miterlimit="10"/>
<path fill-rule="evenodd" clip-rule="evenodd" d="M42.5843 134.909C38.0692 134.909 35.1893 132.433 35.1893 128.99C35.1893 127.856 35.5333 126.472 36.8659 123.659H32.1367L36.4786 114.591H66.7022C67.3902 114.591 67.8628 114.088 67.8628 113.501C67.8628 112.912 67.3902 112.408 66.7022 112.408H42.2397L44.3896 107.917C45.7222 105.147 48.6028 103.342 51.7407 103.342H62.0163C67.9488 103.342 72.334 107.329 72.334 112.534C72.334 118.706 66.5302 123.659 59.8238 123.659H39.9618C39.3591 124.876 40.0471 125.842 41.5091 125.842H57.3299C59.9524 125.842 61.973 127.647 61.973 129.956C61.973 132.6 59.3511 134.909 56.3839 134.909H42.5843Z" fill="#DA3940"/>
<path opacity="0.8" fill-rule="evenodd" clip-rule="evenodd" d="M5.99609 146.313C14.3874 158.64 27.3882 167.575 42.5224 170.643C30.0864 165.721 19.4827 157.178 12.0128 146.313H5.99609Z" fill="#FFC5C7"/>
</g>
<defs>
<clipPath id="clip0_242_15799">
<rect width="311" height="290" fill="white" transform="translate(0 -30)"/>
</clipPath>
</defs>
</svg>
