<svg width="24" height="24" viewBox="0 0 24 24" fill="none" xmlns="http://www.w3.org/2000/svg">
<path d="M14.055 21C13.5697 20.9997 13.1015 20.8213 12.739 20.4988C10.693 18.6764 9.03822 16.4575 7.87509 13.9766C6.71352 11.4937 6.07558 8.79827 6.00098 6.0581C5.98886 5.67341 6.08976 5.2936 6.29119 4.96564C6.49262 4.63767 6.78575 4.37593 7.13435 4.21278L9.33957 3.18411C9.81137 2.96398 10.3513 2.94028 10.8406 3.11822C11.3298 3.29616 11.7284 3.66116 11.9485 4.13295L13.0538 6.50308C13.1632 6.73663 13.2255 6.98945 13.2371 7.24709C13.2488 7.50472 13.2095 7.76213 13.1216 8.0046C13.0338 8.24707 12.899 8.46985 12.725 8.6602C12.551 8.85056 12.3412 9.00477 12.1076 9.11401L10.7334 9.75399C10.9065 11.5451 11.6901 13.2222 12.953 14.5041L14.3187 13.8575C14.7907 13.6381 15.3304 13.6148 15.8196 13.7926C16.3088 13.9705 16.7075 14.335 16.9283 14.8064L18.0348 17.1785C18.1501 17.4203 18.2117 17.6842 18.2155 17.9521C18.2194 18.22 18.1653 18.4856 18.0571 18.7306C17.8139 19.2534 17.3863 19.6679 16.8563 19.8948L14.8795 20.8174C14.6213 20.9379 14.3398 21.0002 14.055 21ZM10.1674 4.30897C10.0719 4.3087 9.97766 4.32948 9.89121 4.36983L7.68663 5.39915C7.56996 5.45451 7.47203 5.54281 7.40494 5.65316C7.33784 5.76351 7.30452 5.89109 7.30906 6.02015C7.37882 8.58191 7.97534 11.1019 9.06147 13.423C10.1486 15.7422 11.6954 17.8163 13.608 19.5198C13.7039 19.6069 13.8232 19.664 13.9511 19.6839C14.0791 19.7038 14.2101 19.6856 14.3278 19.6317L16.3047 18.7084C16.5437 18.6131 16.7406 18.4352 16.8596 18.2071C16.8928 18.1321 16.9093 18.0507 16.9078 17.9687C16.9063 17.8866 16.887 17.8059 16.8511 17.7321L15.7439 15.36C15.6705 15.2028 15.5376 15.0811 15.3745 15.0219C15.2114 14.9626 15.0315 14.9705 14.8742 15.0439L13.5001 15.6832C13.2562 15.7973 12.9831 15.8334 12.7179 15.7865C12.4528 15.7397 12.2086 15.6122 12.0186 15.4215C10.5411 13.9204 9.62597 11.9561 9.42726 9.85934C9.40423 9.59263 9.464 9.32529 9.59843 9.09379C9.73286 8.86228 9.93542 8.67785 10.1785 8.56565L11.5527 7.92502C11.6306 7.88872 11.7006 7.83743 11.7586 7.77408C11.8167 7.71073 11.8617 7.63656 11.8912 7.5558C11.9206 7.47504 11.9338 7.38928 11.93 7.30341C11.9263 7.21755 11.9057 7.13326 11.8694 7.05537L10.7609 4.68654C10.7082 4.57363 10.6243 4.47811 10.5192 4.41123C10.414 4.34434 10.292 4.30886 10.1674 4.30897Z" fill="#0D0E10"/>
</svg>
