<svg width="13" height="18" viewBox="0 0 13 18" fill="none" xmlns="http://www.w3.org/2000/svg">
<path d="M8.05399 18C7.56877 17.9997 7.10053 17.8213 6.73805 17.4988C4.69198 15.6764 3.03724 13.4575 1.87412 10.9766C0.712547 8.49373 0.0745996 5.79827 -4.76255e-07 3.0581C-0.012116 2.67341 0.0887791 2.2936 0.29021 1.96564C0.491642 1.63767 0.784775 1.37593 1.13337 1.21278L3.3386 0.18411C3.8104 -0.0360184 4.35031 -0.0597196 4.83959 0.11822C5.32886 0.296159 5.72741 0.661165 5.94757 1.13295L7.0528 3.50308C7.16219 3.73663 7.22449 3.98945 7.23613 4.24709C7.24778 4.50472 7.20854 4.76213 7.12067 5.0046C7.0328 5.24707 6.89801 5.46985 6.72401 5.6602C6.55001 5.85056 6.3402 6.00477 6.10658 6.11401L4.73241 6.75399C4.90548 8.54509 5.68917 10.2222 6.95203 11.5041L8.3177 10.8575C8.78969 10.6381 9.32944 10.6148 9.81862 10.7926C10.3078 10.9705 10.7065 11.335 10.9273 11.8064L12.0339 14.1785C12.1491 14.4203 12.2107 14.6842 12.2146 14.9521C12.2184 15.22 12.1644 15.4856 12.0561 15.7306C11.8129 16.2534 11.3853 16.6679 10.8554 16.8948L8.8785 17.8174C8.62032 17.9379 8.33887 18.0002 8.05399 18ZM4.16638 1.30897C4.07097 1.3087 3.97668 1.32948 3.89023 1.36983L1.68566 2.39915C1.56898 2.45451 1.47105 2.54281 1.40396 2.65316C1.33687 2.76351 1.30354 2.89109 1.30809 3.02015C1.37784 5.58191 1.97436 8.10187 3.06049 10.423C4.14759 12.7422 5.69437 14.8163 7.60706 16.5198C7.70288 16.6069 7.82218 16.664 7.95015 16.6839C8.07812 16.7038 8.20912 16.6856 8.32686 16.6317L10.3037 15.7084C10.5427 15.6131 10.7396 15.4352 10.8586 15.2071C10.8918 15.1321 10.9083 15.0507 10.9068 14.9687C10.9054 14.8866 10.886 14.8059 10.8501 14.7321L9.74292 12.36C9.66949 12.2028 9.53662 12.0811 9.37354 12.0219C9.21045 11.9626 9.0305 11.9705 8.87326 12.0439L7.49908 12.6832C7.25521 12.7973 6.98209 12.8334 6.71697 12.7865C6.45185 12.7397 6.20762 12.6122 6.01759 12.4215C4.54012 10.9204 3.62499 8.95614 3.42628 6.85934C3.40325 6.59263 3.46302 6.32529 3.59746 6.09379C3.73189 5.86228 3.93444 5.67785 4.1775 5.56565L5.55168 4.92502C5.62958 4.88872 5.69958 4.83743 5.75766 4.77408C5.81574 4.71073 5.86077 4.63656 5.89018 4.5558C5.91959 4.47504 5.9328 4.38928 5.92907 4.30341C5.92533 4.21755 5.90471 4.13326 5.86839 4.05537L4.75989 1.68654C4.70718 1.57363 4.62332 1.47811 4.51818 1.41123C4.41304 1.34434 4.29099 1.30886 4.16638 1.30897Z" fill="#0D0E10"/>
</svg>
