<svg width="22" height="29" viewBox="0 0 22 29" fill="none" xmlns="http://www.w3.org/2000/svg">
<g id="Group 37490">
<path id="Path 28986" d="M11.1954 0.208313H10.8696C9.74997 0.208227 8.64126 0.4287 7.60682 0.857136C6.57237 1.28557 5.63245 1.91357 4.84073 2.70529C4.04902 3.49701 3.42101 4.43693 2.99257 5.47138C2.56414 6.50583 2.34366 7.61455 2.34375 8.73421V11.0214C2.34375 11.1122 2.36165 11.2022 2.39644 11.2861C2.43122 11.37 2.48221 11.4463 2.54648 11.5105C2.61075 11.5747 2.68705 11.6256 2.771 11.6603C2.85496 11.695 2.94493 11.7129 3.03578 11.7128H4.87532C4.96616 11.7129 5.05614 11.695 5.1401 11.6603C5.22406 11.6256 5.30034 11.5747 5.36461 11.5105C5.42888 11.4463 5.47987 11.37 5.51465 11.2861C5.54944 11.2022 5.56734 11.1122 5.56734 11.0214V8.5928C5.56734 7.17704 6.12975 5.81925 7.13084 4.81816C8.13194 3.81707 9.48971 3.25466 10.9055 3.25466H11.1661C12.5819 3.25466 13.9397 3.81707 14.9407 4.81816C15.9418 5.81925 16.5042 7.17704 16.5042 8.5928V11.0214C16.5042 11.1122 16.5222 11.2022 16.5569 11.2861C16.5917 11.37 16.6427 11.4463 16.707 11.5105C16.7712 11.5747 16.8475 11.6256 16.9315 11.6603C17.0154 11.695 17.1054 11.7129 17.1963 11.7128H19.0358C19.2179 11.7109 19.3919 11.6372 19.5201 11.5078C19.6482 11.3783 19.72 11.2035 19.72 11.0214V8.73421C19.7201 7.61466 19.4997 6.50604 19.0713 5.47168C18.643 4.43732 18.0151 3.49747 17.2235 2.70576C16.4319 1.91406 15.4922 1.28603 14.4579 0.857514C13.4236 0.429002 12.315 0.208399 11.1954 0.208313Z" fill="url(#paint0_linear_594_4716)"/>
<path id="Path 28987" d="M2.41923 27.5394C2.5842 27.9121 2.85387 28.2288 3.19547 28.4512C3.53707 28.6735 3.93589 28.7918 4.34348 28.7918H6.73495C7.12316 28.7919 7.50382 28.6845 7.8348 28.4816C8.16579 28.2788 8.4342 27.9883 8.61033 27.6423H12.9971C13.173 27.9882 13.4412 28.2786 13.7719 28.4815C14.1027 28.6844 14.4831 28.7918 14.8712 28.7918H17.2633C17.6593 28.7915 18.0473 28.6795 18.3825 28.4685C18.7177 28.2576 18.9866 27.9563 19.1582 27.5993C19.8294 27.487 20.4391 27.1404 20.879 26.6211C21.3188 26.1017 21.5604 25.4434 21.5608 24.7628V13.8331C21.561 13.334 21.4307 12.8436 21.1828 12.4106V12.3969C21.1826 11.8626 20.9703 11.3503 20.5925 10.9726C20.2146 10.5949 19.7022 10.3827 19.168 10.3827H15.2967C14.7719 10.3823 14.2678 10.5874 13.8924 10.9542H7.97695C7.60186 10.5874 7.09796 10.3822 6.57335 10.3827H2.70203C2.17065 10.3828 1.66086 10.593 1.28371 10.9673C0.906568 11.3417 0.692633 11.8499 0.688508 12.3812C0.429493 12.8212 0.292923 13.3225 0.292969 13.8331V24.7628C0.293229 25.3949 0.501603 26.0093 0.885907 26.5111C1.27021 27.013 1.80906 27.3743 2.41923 27.5394Z" fill="url(#paint1_linear_594_4716)"/>
<path id="Path 28981" d="M9.50825 7.07266C9.50825 6.8814 9.45153 6.69444 9.34527 6.53542C9.23901 6.37639 9.08799 6.25245 8.91129 6.17926C8.73459 6.10607 8.54016 6.08692 8.35258 6.12423C8.165 6.16155 7.99268 6.25364 7.85744 6.38888C7.72221 6.52412 7.63011 6.69644 7.5928 6.88402C7.55549 7.0716 7.57463 7.26602 7.64783 7.44272C7.72102 7.61942 7.84496 7.77046 8.00399 7.87671C8.16301 7.98297 8.34997 8.03968 8.54123 8.03968C8.66824 8.03977 8.79403 8.01481 8.9114 7.96624C9.02876 7.91767 9.13539 7.84645 9.2252 7.75664C9.31501 7.66683 9.38624 7.56018 9.43481 7.44282C9.48337 7.32546 9.50833 7.19967 9.50825 7.07266ZM13.3144 6.1063C13.1231 6.10617 12.936 6.1628 12.7769 6.269C12.6178 6.37521 12.4937 6.52623 12.4205 6.70296C12.3472 6.87968 12.328 7.07417 12.3653 7.26182C12.4026 7.44946 12.4947 7.62182 12.63 7.7571C12.7652 7.89238 12.9376 7.98449 13.1252 8.02178C13.3129 8.05907 13.5074 8.03987 13.6841 7.9666C13.8608 7.89333 14.0118 7.76929 14.1181 7.61016C14.2243 7.45104 14.2809 7.26397 14.2808 7.07266C14.2806 6.81642 14.1787 6.57072 13.9975 6.38953C13.8163 6.20834 13.5706 6.10647 13.3144 6.1063ZM12.2718 8.6711C11.903 9.00359 11.424 9.1876 10.9275 9.1876C10.4309 9.1876 9.95199 9.00359 9.58318 8.6711C9.53382 8.62944 9.4703 8.60842 9.40583 8.61242C9.34137 8.61642 9.28093 8.64514 9.2371 8.69258C9.19327 8.74002 9.16942 8.80254 9.17052 8.86712C9.17163 8.9317 9.19761 8.99336 9.24304 9.03927C9.69911 9.46855 10.3018 9.70758 10.9281 9.70758C11.5545 9.70758 12.1572 9.46855 12.6132 9.03927C12.6374 9.01685 12.6569 8.98989 12.6707 8.95993C12.6845 8.92996 12.6922 8.89758 12.6934 8.86463C12.6946 8.83169 12.6894 8.79882 12.6779 8.76791C12.6665 8.73699 12.649 8.70864 12.6266 8.68447C12.6042 8.66029 12.5772 8.64077 12.5473 8.62702C12.5173 8.61326 12.4849 8.60555 12.452 8.60431C12.419 8.60307 12.3861 8.60831 12.3552 8.61978C12.3243 8.63124 12.296 8.64868 12.2718 8.6711Z" fill="#56B14E"/>
<g id="Group 37088">
<path id="Path 28989" d="M10.5598 13.6599C9.92589 13.7317 9.32678 13.9872 8.83623 14.3951C8.34568 14.803 7.98507 15.3455 7.7988 15.9556C7.61254 16.5658 7.60873 17.2172 7.78785 17.8295C7.96696 18.4418 8.32119 18.9884 8.80694 19.402L8.27456 23.0068C8.24792 23.1898 8.26098 23.3765 8.31283 23.554C8.36468 23.7316 8.45412 23.8959 8.57508 24.0358C8.69604 24.1758 8.84569 24.288 9.01387 24.365C9.18205 24.442 9.36482 24.482 9.54979 24.4821H12.3081C12.4932 24.482 12.6761 24.4421 12.8443 24.365C13.0126 24.2879 13.1623 24.1755 13.2832 24.0354C13.4042 23.8953 13.4935 23.7308 13.5452 23.5531C13.5969 23.3754 13.6097 23.1886 13.5827 23.0055L13.051 19.4026C13.5605 18.9686 13.9246 18.3887 14.0942 17.7412C14.2638 17.0937 14.2307 16.4098 13.9995 15.7817C13.7682 15.1535 13.3499 14.6115 12.8009 14.2286C12.2519 13.8456 11.5986 13.6403 10.9293 13.6403C10.8059 13.6402 10.6825 13.647 10.5598 13.6605" fill="url(#paint2_linear_594_4716)"/>
<path id="Path 28991" d="M10.5598 13.6599C9.92589 13.7317 9.32678 13.9872 8.83623 14.3951C8.34568 14.803 7.98507 15.3455 7.7988 15.9556C7.61254 16.5658 7.60873 17.2172 7.78785 17.8295C7.96696 18.4418 8.32119 18.9884 8.80694 19.402L8.27456 23.0068C8.24792 23.1898 8.26098 23.3765 8.31283 23.554C8.36468 23.7316 8.45412 23.8959 8.57508 24.0358C8.69604 24.1758 8.84569 24.288 9.01387 24.365C9.18205 24.442 9.36482 24.482 9.54979 24.4821H12.3081C12.4932 24.482 12.6761 24.4421 12.8443 24.365C13.0126 24.2879 13.1623 24.1755 13.2832 24.0354C13.4042 23.8953 13.4935 23.7308 13.5452 23.5531C13.5969 23.3754 13.6097 23.1886 13.5827 23.0055L13.051 19.4026C13.5605 18.9686 13.9246 18.3887 14.0942 17.7412C14.2638 17.0937 14.2307 16.4098 13.9995 15.7817C13.7682 15.1535 13.3499 14.6115 12.8009 14.2286C12.2519 13.8456 11.5986 13.6403 10.9293 13.6403C10.8059 13.6402 10.6825 13.647 10.5598 13.6605" fill="url(#paint3_linear_594_4716)"/>
<path id="Path 28990" d="M13.2816 16.9124C13.2816 16.5067 13.1767 16.1078 12.977 15.7546C12.7773 15.4014 12.4896 15.1059 12.1419 14.8968C11.7942 14.6877 11.3983 14.5721 10.9927 14.5613C10.5871 14.5504 10.1856 14.6447 9.82723 14.8349C9.46886 15.0252 9.1658 15.3049 8.94751 15.6469C8.72921 15.9889 8.60311 16.3816 8.58147 16.7867C8.55983 17.1919 8.64339 17.5957 8.82401 17.9591C9.00464 18.3224 9.27618 18.6328 9.61226 18.8601C9.6688 18.8983 9.71333 18.9518 9.74067 19.0143C9.76801 19.0768 9.77703 19.1458 9.76669 19.2133L9.18805 23.14C9.18028 23.1922 9.18385 23.2455 9.19852 23.2962C9.21318 23.3469 9.2386 23.3938 9.27304 23.4339C9.30748 23.4739 9.35014 23.506 9.3981 23.528C9.44607 23.5501 9.49822 23.5615 9.55101 23.5616H12.3126C12.3654 23.5615 12.4176 23.55 12.4656 23.528C12.5136 23.506 12.5563 23.4739 12.5907 23.4339C12.6252 23.3939 12.6507 23.3469 12.6655 23.2962C12.6802 23.2455 12.6839 23.1922 12.6762 23.14L12.0969 19.2133C12.0869 19.1452 12.0963 19.0757 12.1241 19.0127C12.1519 18.9498 12.1969 18.896 12.254 18.8575C12.5719 18.6423 12.8321 18.3523 13.0119 18.0131C13.1916 17.6738 13.2853 17.2957 13.2848 16.9117" fill="#FEFEFE"/>
</g>
</g>
<defs>
<linearGradient id="paint0_linear_594_4716" x1="10.9798" y1="0.599465" x2="11.0102" y2="11.6439" gradientUnits="userSpaceOnUse">
<stop stop-color="#56B14E"/>
<stop offset="0.539" stop-color="#4A9E41"/>
<stop offset="1" stop-color="#357C2A"/>
</linearGradient>
<linearGradient id="paint1_linear_594_4716" x1="10.9269" y1="28.2211" x2="10.9269" y2="10.5852" gradientUnits="userSpaceOnUse">
<stop stop-color="#4A9E41"/>
<stop offset="1" stop-color="#56B14E"/>
</linearGradient>
<linearGradient id="paint2_linear_594_4716" x1="11.0399" y1="22.9426" x2="10.6633" y2="15.5932" gradientUnits="userSpaceOnUse">
<stop stop-color="#56B14E"/>
<stop offset="0.3" stop-color="#4A9E41"/>
<stop offset="0.355" stop-color="#45973C"/>
<stop offset="0.523" stop-color="#3C8732"/>
<stop offset="0.717" stop-color="#367E2B"/>
<stop offset="1" stop-color="#357C2A"/>
</linearGradient>
<linearGradient id="paint3_linear_594_4716" x1="11.0399" y1="22.9426" x2="10.6633" y2="15.5932" gradientUnits="userSpaceOnUse">
<stop stop-color="#56B14E" stop-opacity="0.153"/>
<stop offset="1" stop-color="#9BF893" stop-opacity="0.263"/>
</linearGradient>
</defs>
</svg>
