<svg width="24" height="24" viewBox="0 0 24 24" fill="none" xmlns="http://www.w3.org/2000/svg">
<path fill-rule="evenodd" clip-rule="evenodd" d="M12 3C7.02944 3 3 7.02944 3 12C3 16.9706 7.02944 21 12 21C16.9706 21 21 16.9706 21 12C21 7.02944 16.9706 3 12 3ZM4.25581 12C4.25581 7.72301 7.72301 4.25581 12 4.25581C16.277 4.25581 19.7442 7.72301 19.7442 12C19.7442 16.277 16.277 19.7442 12 19.7442C7.72301 19.7442 4.25581 16.277 4.25581 12Z" fill="black"/>
<path d="M12.5966 15.0957L12.5966 15.0957C12.5712 15.0696 12.5447 15.0449 12.5171 15.0217C12.324 14.8592 12.0798 14.7693 11.8251 14.7676L11.8252 14.7695H11.8056C11.1884 14.7695 10.6904 15.2695 10.6904 15.8848C10.6904 16.5 11.1884 17 11.8056 17H11.8252C12.1142 16.9961 12.3916 16.8789 12.5966 16.6738C13.032 16.2384 13.0322 15.5318 12.5971 15.0962L12.5966 15.0957Z" fill="#0D0E10"/>
<path d="M13.9072 7.76758C13.415 7.26172 12.7138 7.00391 11.8252 7H11.8056C11.1025 7 10.5029 7.19141 10.0224 7.57031C9.7939 7.75 9.59077 7.95899 9.41695 8.19141C9.24898 8.41797 9.11226 8.66797 9.0146 8.93359C8.97163 9.05274 9.02632 9.18359 9.14155 9.23437L10.1943 9.69727C10.3154 9.75 10.456 9.69727 10.5087 9.57617C10.5107 9.57422 10.5107 9.57031 10.5126 9.56836C10.6103 9.33008 10.7666 9.0957 10.9775 8.87304C11.165 8.67383 11.4365 8.57813 11.8056 8.57813H11.8212V8.58203C12.2001 8.58594 12.4833 8.68555 12.6865 8.88867C12.8935 9.09375 12.9931 9.34571 12.9931 9.65821C12.9931 9.85279 12.9499 10.0355 12.8619 10.212C12.832 10.2715 12.797 10.3303 12.7568 10.3887C12.581 10.6445 12.3212 10.9277 11.9853 11.2305C11.9708 11.244 11.9562 11.2573 11.9418 11.2706C11.902 11.3072 11.863 11.3431 11.8271 11.3789C11.5283 11.6719 11.3212 11.9434 11.1982 12.207C11.1259 12.3613 11.0712 12.5547 11.0322 12.7891C10.9912 13.0645 10.9697 13.3418 10.9697 13.6211C10.9677 13.7539 11.0732 13.8613 11.2041 13.8652H11.8251V13.8691H12.4599C12.5184 13.8691 12.5724 13.8478 12.6142 13.8123C12.6671 13.7696 12.701 13.7046 12.7021 13.6309C12.7119 13.0977 12.7724 12.8379 12.8232 12.7129C12.8709 12.5946 13.0231 12.3625 13.4728 11.9255C13.4821 11.9166 13.4914 11.9075 13.5009 11.8984C13.5101 11.8897 13.5191 11.8809 13.5281 11.8722C13.909 11.5049 14.194 11.1454 14.372 10.8047C14.5595 10.4453 14.6552 10.041 14.6552 9.60352C14.6513 8.89453 14.4013 8.27539 13.9072 7.76758Z" fill="#0D0E10"/>
</svg>
