<svg width="270" height="46" viewBox="0 0 270 46" fill="none" xmlns="http://www.w3.org/2000/svg">
<path d="M0 0H270L260 36H0V0Z" fill="#5DA283"/>
<path d="M25.026 17.122H22.898V21H21.302V10.794H25.138C26.3607 10.794 27.2613 11.1207 27.84 11.774C28.3533 12.3713 28.61 13.0947 28.61 13.944C28.61 14.616 28.4373 15.204 28.092 15.708C27.7467 16.212 27.2473 16.576 26.594 16.8L28.862 21H27.084L25.026 17.122ZM22.898 15.68H24.97C25.6793 15.68 26.1927 15.5167 26.51 15.19C26.8273 14.854 26.986 14.4527 26.986 13.986C26.986 12.8473 26.314 12.278 24.97 12.278H22.898V15.68ZM35.9589 21H34.4469C34.4002 20.7853 34.3769 20.468 34.3769 20.048C34.1436 20.4307 33.8449 20.706 33.4809 20.874C33.1076 21.042 32.7249 21.126 32.3329 21.126C31.6516 21.126 31.0916 20.93 30.6529 20.538C30.2142 20.1553 29.9949 19.6653 29.9949 19.068V18.998C30.0042 18.1113 30.4522 17.4953 31.3389 17.15C31.8149 16.9633 32.3282 16.87 32.8789 16.87H33.7469C34.1762 16.87 34.3909 16.674 34.3909 16.282C34.3909 15.9833 34.2742 15.7313 34.0409 15.526C33.7889 15.3207 33.4482 15.218 33.0189 15.218C32.6082 15.218 32.2676 15.3253 31.9969 15.54C31.7262 15.7453 31.5629 16.0253 31.5069 16.38L30.0929 16.058C30.1396 15.7313 30.2982 15.3813 30.5689 15.008C30.8582 14.6347 31.2222 14.3547 31.6609 14.168C32.0436 13.9907 32.5149 13.902 33.0749 13.902C34.3816 13.902 35.2496 14.378 35.6789 15.33C35.8376 15.6753 35.9169 16.086 35.9169 16.562V19.88C35.9169 20.3467 35.9309 20.72 35.9589 21ZM34.3769 18.186V17.962H32.8789C32.5522 17.962 32.2489 18.046 31.9689 18.214C31.6889 18.3913 31.5489 18.6293 31.5489 18.928C31.5489 19.2173 31.6516 19.4507 31.8569 19.628C32.0622 19.796 32.3282 19.88 32.6549 19.88C33.1869 19.88 33.6069 19.726 33.9149 19.418C34.2229 19.11 34.3769 18.6993 34.3769 18.186ZM42.6111 21V17.108C42.6111 16.5667 42.4804 16.142 42.2191 15.834C41.9578 15.526 41.5751 15.372 41.0711 15.372C40.5764 15.372 40.1844 15.5307 39.8951 15.848C39.6058 16.1653 39.4611 16.59 39.4611 17.122V21H37.9071V14.042H39.4191V14.98C39.6244 14.7093 39.8718 14.4853 40.1611 14.308C40.4504 14.14 40.6978 14.028 40.9031 13.972C41.1364 13.9253 41.3511 13.902 41.5471 13.902C42.4058 13.902 43.0544 14.1633 43.4931 14.686C43.9318 15.19 44.1511 15.8667 44.1511 16.716V21H42.6111ZM47.7052 17.598V21H46.1512V10.388H47.7052V16.786H47.7192L50.4212 14.042H52.5352L49.3852 17.192L52.7032 21H50.6452L47.7472 17.598H47.7052ZM59.2898 17.976H53.9978C54.0071 18.48 54.2218 18.914 54.6418 19.278C55.0618 19.6327 55.5285 19.8053 56.0418 19.796C57.0125 19.796 57.6285 19.404 57.8898 18.62L59.1918 19.026C59.0705 19.446 58.8465 19.8193 58.5198 20.146C58.2025 20.4727 57.8291 20.72 57.3998 20.888C56.9518 21.0467 56.5038 21.126 56.0558 21.126C55.0478 21.1447 54.1845 20.7993 53.4658 20.09C52.7471 19.3807 52.3971 18.522 52.4158 17.514C52.4158 16.8607 52.5651 16.2587 52.8638 15.708C53.1718 15.1387 53.5918 14.7 54.1238 14.392C54.6651 14.0653 55.2625 13.902 55.9158 13.902C56.9798 13.902 57.8105 14.2333 58.4078 14.896C59.0145 15.5587 59.3178 16.4267 59.3178 17.5C59.3178 17.6307 59.3085 17.7893 59.2898 17.976ZM55.9298 15.232C55.4351 15.232 55.0245 15.3767 54.6978 15.666C54.3525 15.946 54.1471 16.324 54.0818 16.8H57.7358C57.7078 16.3333 57.5258 15.9507 57.1898 15.652C56.8351 15.372 56.4151 15.232 55.9298 15.232ZM60.4272 17.514C60.4272 16.5993 60.7305 15.778 61.3372 15.05C61.9905 14.2847 62.8445 13.902 63.8992 13.902C64.2725 13.902 64.6785 14 65.1172 14.196C65.5745 14.3827 65.9199 14.6627 66.1532 15.036V10.388H67.7072V21H66.1812V19.908C66.0132 20.188 65.7752 20.426 65.4672 20.622C65.1499 20.7993 64.8559 20.9253 64.5852 21C64.3052 21.0747 64.0625 21.112 63.8572 21.112C63.2132 21.112 62.6252 20.9393 62.0932 20.594C61.5705 20.2673 61.1599 19.824 60.8612 19.264C60.5719 18.704 60.4272 18.1207 60.4272 17.514ZM66.1672 17.514C66.1672 16.8887 65.9759 16.366 65.5932 15.946C65.2012 15.526 64.6972 15.316 64.0812 15.316C63.4745 15.316 62.9752 15.526 62.5832 15.946C62.1912 16.3847 61.9952 16.9073 61.9952 17.514C61.9952 18.1207 62.1912 18.6387 62.5832 19.068C62.9752 19.488 63.4745 19.698 64.0812 19.698C64.6972 19.698 65.2012 19.488 65.5932 19.068C65.9759 18.648 66.1672 18.13 66.1672 17.514ZM81.6495 17.038V18.298H79.6615L79.0735 21H77.7155L78.3175 18.298H75.7555L75.1675 21H73.8095L74.3975 18.298H72.6895V17.038H74.6775L75.2235 14.546H73.5155V13.286H75.5035L76.0495 10.794H77.4075L76.8615 13.286H79.4095L79.9555 10.794H81.3135L80.7675 13.286H82.4755V14.546H80.4875L79.9415 17.038H81.6495ZM78.5975 17.038L79.1435 14.546H76.5675L76.0215 17.038H78.5975ZM86.1083 12.516L83.8263 13.888L83.0843 12.67L86.1923 10.794H87.7183V21H86.1083V12.516ZM93.0073 17.514C93.0073 16.842 93.1753 16.226 93.5113 15.666C93.8659 15.0873 94.3139 14.6533 94.8553 14.364C95.4153 14.056 96.0313 13.902 96.7033 13.902C97.3566 13.902 97.9633 14.056 98.5233 14.364C99.0833 14.672 99.5313 15.1013 99.8673 15.652C100.194 16.2213 100.357 16.8327 100.357 17.486C100.376 18.4847 100.017 19.348 99.2793 20.076C98.5513 20.7947 97.6879 21.1447 96.6893 21.126C96.0453 21.126 95.4339 20.9673 94.8553 20.65C94.3139 20.3607 93.8659 19.9267 93.5113 19.348C93.1753 18.788 93.0073 18.1767 93.0073 17.514ZM94.6033 17.486C94.6033 18.0927 94.7993 18.6153 95.1913 19.054C95.5833 19.4927 96.0873 19.712 96.7033 19.712C97.3099 19.712 97.8093 19.4973 98.2013 19.068C98.5839 18.6387 98.7753 18.1207 98.7753 17.514C98.7753 16.8887 98.5793 16.366 98.1873 15.946C97.8139 15.5167 97.3146 15.302 96.6893 15.302C96.0733 15.302 95.5693 15.512 95.1773 15.932C94.7946 16.3427 94.6033 16.8607 94.6033 17.486ZM103.444 14.042V17.934C103.444 18.4753 103.574 18.9 103.836 19.208C104.097 19.516 104.475 19.67 104.97 19.67C105.464 19.67 105.856 19.5113 106.146 19.194C106.435 18.8767 106.58 18.452 106.58 17.92V14.042H108.134V21H106.622V20.062C106.407 20.3513 106.164 20.5753 105.894 20.734C105.651 20.8927 105.399 21.0047 105.138 21.07C104.96 21.1167 104.746 21.14 104.494 21.14C103.943 21.14 103.467 21.0187 103.066 20.776C102.664 20.524 102.366 20.1833 102.17 19.754C101.983 19.3527 101.89 18.8767 101.89 18.326V14.042H103.444ZM114.138 14.042V15.442H112.374V18.76C112.374 19.068 112.458 19.2967 112.626 19.446C112.794 19.586 113.065 19.656 113.438 19.656C113.625 19.656 113.835 19.6373 114.068 19.6V20.93C113.723 21.0233 113.354 21.07 112.962 21.07C112.243 21.07 111.707 20.902 111.352 20.566C110.997 20.23 110.82 19.656 110.82 18.844V15.442H109.476V14.042H110.82V11.886H112.374V14.042H114.138ZM118.724 17.514C118.724 16.842 118.892 16.226 119.228 15.666C119.583 15.0873 120.031 14.6533 120.572 14.364C121.132 14.056 121.748 13.902 122.42 13.902C123.073 13.902 123.68 14.056 124.24 14.364C124.8 14.672 125.248 15.1013 125.584 15.652C125.911 16.2213 126.074 16.8327 126.074 17.486C126.093 18.4847 125.733 19.348 124.996 20.076C124.268 20.7947 123.405 21.1447 122.406 21.126C121.762 21.126 121.151 20.9673 120.572 20.65C120.031 20.3607 119.583 19.9267 119.228 19.348C118.892 18.788 118.724 18.1767 118.724 17.514ZM120.32 17.486C120.32 18.0927 120.516 18.6153 120.908 19.054C121.3 19.4927 121.804 19.712 122.42 19.712C123.027 19.712 123.526 19.4973 123.918 19.068C124.301 18.6387 124.492 18.1207 124.492 17.514C124.492 16.8887 124.296 16.366 123.904 15.946C123.531 15.5167 123.031 15.302 122.406 15.302C121.79 15.302 121.286 15.512 120.894 15.932C120.511 16.3427 120.32 16.8607 120.32 17.486ZM129.629 15.414V21H128.061V15.414H126.731V14.042H128.061V13.23C128.061 12.2127 128.318 11.4707 128.831 11.004C129.316 10.5747 129.918 10.36 130.637 10.36C131.029 10.36 131.318 10.3973 131.505 10.472V11.788C131.356 11.7507 131.169 11.732 130.945 11.732C130.553 11.732 130.226 11.8627 129.965 12.124C129.741 12.3667 129.629 12.7307 129.629 13.216V14.042H131.449V15.414H129.629ZM138.827 21.112C137.754 21.112 136.876 20.804 136.195 20.188C135.551 19.6187 135.178 18.9 135.075 18.032L136.629 17.752C136.676 18.3027 136.895 18.7553 137.287 19.11C137.688 19.4833 138.202 19.67 138.827 19.67C139.592 19.67 140.176 19.39 140.577 18.83C140.792 18.5407 140.899 18.1953 140.899 17.794C140.899 17.2807 140.712 16.8653 140.339 16.548C139.956 16.2493 139.494 16.1 138.953 16.1C138.552 16.1 138.22 16.17 137.959 16.31L137.203 15.12L140.213 12.236H135.397V10.794H142.313V12.138L139.513 14.784C140.437 14.8307 141.184 15.1387 141.753 15.708C142.322 16.2773 142.598 16.9633 142.579 17.766C142.579 18.8207 142.201 19.6467 141.445 20.244C140.736 20.8227 139.863 21.112 138.827 21.112ZM147.451 21.112C146.564 21.112 145.766 20.8693 145.057 20.384C144.348 19.8987 143.923 19.1847 143.783 18.242L145.323 17.906C145.388 18.55 145.673 19.0167 146.177 19.306C146.606 19.5487 147.04 19.67 147.479 19.67C147.964 19.67 148.417 19.5113 148.837 19.194C149.294 18.8487 149.523 18.354 149.523 17.71C149.523 17.094 149.322 16.6087 148.921 16.254C148.52 15.9087 148.039 15.736 147.479 15.736C146.704 15.736 146.07 16.016 145.575 16.576L144.119 16.016L145.309 10.794H150.727V12.236H146.443L145.813 14.98C146.14 14.7 146.541 14.5133 147.017 14.42C147.297 14.3733 147.577 14.35 147.857 14.35C148.865 14.35 149.677 14.658 150.293 15.274C150.89 15.8807 151.189 16.6787 151.189 17.668C151.189 18.7413 150.816 19.5907 150.069 20.216C149.36 20.8133 148.487 21.112 147.451 21.112ZM153.826 10.794H155.604L158.642 19.152L161.708 10.794H163.402L159.538 21H157.704L153.826 10.794ZM172.134 13.972C172.134 14.8773 171.817 15.638 171.182 16.254C170.52 16.898 169.582 17.22 168.368 17.22H166.548V21H164.952V10.794H168.564C170.002 10.794 171.019 11.2513 171.616 12.166C171.962 12.698 172.134 13.3 172.134 13.972ZM170.51 14C170.51 13.5333 170.352 13.132 170.034 12.796C169.717 12.4507 169.18 12.278 168.424 12.278H166.548V15.75H168.424C169.171 15.75 169.712 15.5587 170.048 15.176C170.356 14.8213 170.51 14.4293 170.51 14ZM182.449 21H180.657L175.421 13.188V21H173.839V10.794H175.687L180.867 18.564V10.794H182.449V21ZM190.484 21.126C189.448 21.1167 188.687 20.79 188.202 20.146C187.922 19.782 187.768 19.432 187.74 19.096L189.07 18.746C189.144 19.082 189.303 19.3527 189.546 19.558C189.788 19.754 190.096 19.852 190.47 19.852C190.778 19.852 191.016 19.782 191.184 19.642C191.361 19.4927 191.45 19.292 191.45 19.04C191.45 18.6573 191.174 18.4007 190.624 18.27L189.742 18.06C189.144 17.92 188.687 17.6773 188.37 17.332C188.052 16.9773 187.894 16.5573 187.894 16.072C187.894 15.4747 188.132 14.9613 188.608 14.532C189.084 14.1027 189.667 13.888 190.358 13.888C191.338 13.8973 192.052 14.2053 192.5 14.812C192.733 15.12 192.873 15.4327 192.92 15.75L191.618 16.114C191.552 15.8247 191.412 15.5913 191.198 15.414C190.992 15.2367 190.712 15.148 190.358 15.148C190.096 15.148 189.872 15.2227 189.686 15.372C189.499 15.5027 189.406 15.6893 189.406 15.932C189.406 16.324 189.639 16.5667 190.106 16.66L191.058 16.856C191.683 16.996 192.168 17.2527 192.514 17.626C192.859 18.018 193.032 18.4613 193.032 18.956C193.032 19.544 192.808 20.0527 192.36 20.482C191.921 20.9113 191.296 21.126 190.484 21.126ZM201.081 17.976H195.789C195.798 18.48 196.013 18.914 196.433 19.278C196.853 19.6327 197.319 19.8053 197.833 19.796C198.803 19.796 199.419 19.404 199.681 18.62L200.983 19.026C200.861 19.446 200.637 19.8193 200.311 20.146C199.993 20.4727 199.62 20.72 199.191 20.888C198.743 21.0467 198.295 21.126 197.847 21.126C196.839 21.1447 195.975 20.7993 195.257 20.09C194.538 19.3807 194.188 18.522 194.207 17.514C194.207 16.8607 194.356 16.2587 194.655 15.708C194.963 15.1387 195.383 14.7 195.915 14.392C196.456 14.0653 197.053 13.902 197.707 13.902C198.771 13.902 199.601 14.2333 200.199 14.896C200.805 15.5587 201.109 16.4267 201.109 17.5C201.109 17.6307 201.099 17.7893 201.081 17.976ZM197.721 15.232C197.226 15.232 196.815 15.3767 196.489 15.666C196.143 15.946 195.938 16.324 195.873 16.8H199.527C199.499 16.3333 199.317 15.9507 198.981 15.652C198.626 15.372 198.206 15.232 197.721 15.232ZM206.502 14.014V15.61C206.381 15.582 206.236 15.568 206.068 15.568C205.48 15.568 205.028 15.7313 204.71 16.058C204.402 16.3847 204.248 16.8513 204.248 17.458V21H202.694V14.042H204.22V15.12C204.416 14.756 204.682 14.476 205.018 14.28C205.364 14.084 205.732 13.986 206.124 13.986C206.227 13.986 206.353 13.9953 206.502 14.014ZM211.503 21H209.949L207.009 14.042H208.689L210.733 19.194L212.777 14.042H214.415L211.503 21ZM216.452 12.81C216.182 12.81 215.944 12.7073 215.738 12.502C215.533 12.2967 215.43 12.0587 215.43 11.788C215.43 11.508 215.533 11.2653 215.738 11.06C215.934 10.8547 216.172 10.752 216.452 10.752C216.742 10.752 216.984 10.8547 217.18 11.06C217.376 11.256 217.474 11.4987 217.474 11.788C217.474 12.068 217.376 12.306 217.18 12.502C216.975 12.7073 216.732 12.81 216.452 12.81ZM215.682 21V14.042H217.236V21H215.682ZM222.47 21.126C221.462 21.1447 220.598 20.7993 219.88 20.09C219.17 19.3713 218.825 18.508 218.844 17.5C218.844 16.8467 219.002 16.2447 219.32 15.694C219.628 15.1433 220.066 14.7047 220.636 14.378C221.186 14.0607 221.802 13.902 222.484 13.902C223.314 13.902 224.019 14.1213 224.598 14.56C225.176 14.9893 225.545 15.5167 225.704 16.142L224.304 16.604C224.22 16.3053 224.042 16.0207 223.772 15.75C223.454 15.4513 223.025 15.302 222.484 15.302C221.914 15.302 221.429 15.5027 221.028 15.904C220.636 16.3147 220.44 16.842 220.44 17.486C220.44 18.1207 220.631 18.6527 221.014 19.082C221.406 19.502 221.9 19.712 222.498 19.712C223.384 19.712 223.996 19.2687 224.332 18.382L225.746 18.844C225.587 19.4133 225.242 19.922 224.71 20.37C224.131 20.874 223.384 21.126 222.47 21.126ZM233.661 17.976H228.369C228.378 18.48 228.593 18.914 229.013 19.278C229.433 19.6327 229.9 19.8053 230.413 19.796C231.384 19.796 232 19.404 232.261 18.62L233.563 19.026C233.442 19.446 233.218 19.8193 232.891 20.146C232.574 20.4727 232.2 20.72 231.771 20.888C231.323 21.0467 230.875 21.126 230.427 21.126C229.419 21.1447 228.556 20.7993 227.837 20.09C227.118 19.3807 226.768 18.522 226.787 17.514C226.787 16.8607 226.936 16.2587 227.235 15.708C227.543 15.1387 227.963 14.7 228.495 14.392C229.036 14.0653 229.634 13.902 230.287 13.902C231.351 13.902 232.182 14.2333 232.779 14.896C233.386 15.5587 233.689 16.4267 233.689 17.5C233.689 17.6307 233.68 17.7893 233.661 17.976ZM230.301 15.232C229.806 15.232 229.396 15.3767 229.069 15.666C228.724 15.946 228.518 16.324 228.453 16.8H232.107C232.079 16.3333 231.897 15.9507 231.561 15.652C231.206 15.372 230.786 15.232 230.301 15.232ZM237.542 21.126C236.506 21.1167 235.746 20.79 235.26 20.146C234.98 19.782 234.826 19.432 234.798 19.096L236.128 18.746C236.203 19.082 236.362 19.3527 236.604 19.558C236.847 19.754 237.155 19.852 237.528 19.852C237.836 19.852 238.074 19.782 238.242 19.642C238.42 19.4927 238.508 19.292 238.508 19.04C238.508 18.6573 238.233 18.4007 237.682 18.27L236.8 18.06C236.203 17.92 235.746 17.6773 235.428 17.332C235.111 16.9773 234.952 16.5573 234.952 16.072C234.952 15.4747 235.19 14.9613 235.666 14.532C236.142 14.1027 236.726 13.888 237.416 13.888C238.396 13.8973 239.11 14.2053 239.558 14.812C239.792 15.12 239.932 15.4327 239.978 15.75L238.676 16.114C238.611 15.8247 238.471 15.5913 238.256 15.414C238.051 15.2367 237.771 15.148 237.416 15.148C237.155 15.148 236.931 15.2227 236.744 15.372C236.558 15.5027 236.464 15.6893 236.464 15.932C236.464 16.324 236.698 16.5667 237.164 16.66L238.116 16.856C238.742 16.996 239.227 17.2527 239.572 17.626C239.918 18.018 240.09 18.4613 240.09 18.956C240.09 19.544 239.866 20.0527 239.418 20.482C238.98 20.9113 238.354 21.126 237.542 21.126Z" fill="white"/>
<path d="M0 36H10V46L0 36Z" fill="#286047"/>
</svg>
