<svg width="20" height="20" viewBox="0 0 20 20" fill="none" xmlns="http://www.w3.org/2000/svg">
<g id="Icon / Router">
<path id="Union" d="M11.5628 4.16675C11.4856 4.16675 11.4225 4.22871 11.4212 4.30599L11.2827 12.4812H8.73164L8.59307 4.30599C8.59176 4.22871 8.52874 4.16675 8.45145 4.16675H7.5685C7.49121 4.16675 7.42819 4.22871 7.42688 4.30599L7.28832 12.4812H7.07507L4.73688 12.7685L4.59873 4.61758C4.59742 4.54029 4.5344 4.47833 4.45711 4.47833H3.57416C3.49687 4.47833 3.43385 4.5403 3.43254 4.61758L3.29397 12.7928H2.5V14.0109L3.32153 15.0732H4.05802V15.1865C4.05802 15.2178 4.08339 15.2432 4.11468 15.2432H5.30448C5.33577 15.2432 5.36114 15.2178 5.36114 15.1865V15.0732H14.6246V15.1865C14.6246 15.2178 14.65 15.2432 14.6813 15.2432H15.8711C15.9024 15.2432 15.9277 15.2178 15.9277 15.1865V15.0732L16.721 15.0732L17.5 14.0109V12.7928H16.7203L16.5818 4.61758C16.5805 4.54029 16.5174 4.47833 16.4401 4.47833H15.5572C15.4799 4.47833 15.4169 4.5403 15.4156 4.61758L15.2774 12.7705L12.8966 12.4812H12.726L12.5874 4.30599C12.5861 4.22871 12.5231 4.16675 12.4458 4.16675H11.5628Z" fill="#0D0E10"/>
</g>
</svg>
