<svg width="24" height="24" viewBox="0 0 24 24" fill="none" xmlns="http://www.w3.org/2000/svg">
<path d="M19.5454 4.45486C19.156 4.0656 18.6044 3.91326 18.0716 4.04823L5.17074 7.2968C4.50982 7.46339 4.04069 8.03234 4.00241 8.71279C3.96491 9.39323 4.36804 10.011 5.0063 10.2497L11.3702 12.6301L13.7506 18.9938C13.9788 19.6045 14.5541 20.0002 15.1994 20.0002C15.2287 20.0002 15.2584 19.9994 15.2877 19.9977C15.9686 19.9598 16.5373 19.4903 16.7037 18.8293L19.952 5.92866C20.0864 5.39506 19.9345 4.84411 19.5454 4.45486ZM16.8681 6.00131L11.7905 11.0789L5.72034 8.80847L16.8681 6.00131ZM15.192 18.2801L12.9218 12.2101L17.999 7.13292L15.192 18.2801Z" fill="black"/>
</svg>
