<svg width="32" height="32" viewBox="0 0 32 32" fill="none" xmlns="http://www.w3.org/2000/svg">
<g id="Icon / Stopwatch">
<path id="Union" fill-rule="evenodd" clip-rule="evenodd" d="M4 16C4 9.3828 9.3828 4 16 4C22.6172 4 28 9.3828 28 16C28 22.6172 22.6172 28 16 28C9.3828 28 4 22.6172 4 16ZM5.85902 16C5.85902 21.591 10.409 26.141 16 26.141C21.591 26.141 26.141 21.591 26.141 16C26.141 10.409 21.592 5.85902 16 5.85902C10.409 5.85902 5.85902 10.409 5.85902 16ZM16.9294 15.6095L20.2756 18.1192C20.6865 18.4269 20.7702 19.0097 20.4615 19.4197C20.2793 19.6651 20.0004 19.7924 19.7169 19.7924C19.5227 19.7924 19.3275 19.732 19.1602 19.6065L15.4421 16.818C15.2079 16.6432 15.0703 16.3671 15.0703 16.0743V10.4972C15.0703 9.98321 15.4858 9.56771 15.9998 9.56771C16.5139 9.56771 16.9294 9.98321 16.9294 10.4972V15.6095Z" fill="#FF6961"/>
</g>
</svg>
