<svg width="169" height="160" viewBox="0 0 169 160" fill="none" xmlns="http://www.w3.org/2000/svg">
<path d="M84.4136 0L168.827 54.6206H0L84.4136 0Z" fill="#646F79"/>
<path d="M0 54.6205H168.827V145C168.827 153.284 162.111 160 153.827 160H15C6.71574 160 0 153.284 0 145V54.6205Z" fill="#646F79"/>
<rect x="20.4141" width="128" height="124.138" rx="15" fill="#5DA283"/>
<path fill-rule="evenodd" clip-rule="evenodd" d="M0 55.3342V145C0 153.284 6.71574 160 15 160H153.827C157.362 160 160.612 158.777 163.176 156.731L0 55.3342Z" fill="#F5F3F3"/>
<path d="M107.637 30.1792C106.267 28.8091 104.212 28.8091 102.842 30.1792L77.1523 55.8688L66.5339 45.2504C65.1638 43.8803 63.1086 43.8803 61.7385 45.2504C60.3684 46.6205 60.3684 48.6757 61.7385 50.0458L74.7546 63.0619C75.4396 63.7469 76.1247 64.0895 77.1523 64.0895C78.1799 64.0895 78.8649 63.7469 79.55 63.0619L107.637 34.9746C109.007 33.6045 109.007 31.5493 107.637 30.1792Z" fill="white"/>
<path fill-rule="evenodd" clip-rule="evenodd" d="M7.42578 157.951C9.64817 159.253 12.2356 159.999 14.9973 159.999H153.825C162.109 159.999 168.825 153.284 168.825 144.999V57.0013L7.42578 157.951Z" fill="#F0EDED"/>
</svg>
