<svg width="99" height="46" viewBox="0 0 99 46" fill="none" xmlns="http://www.w3.org/2000/svg">
<path d="M0 0H99L89 36H0V0Z" fill="#FF6961"/>
<path d="M0 36H10V46L0 36Z" fill="#D8423A"/>
<path d="M42.5 21V12.278H39.252V10.794H47.344V12.278H44.096V21H42.5ZM49.4056 12.81C49.1349 12.81 48.8969 12.7073 48.6916 12.502C48.4863 12.2967 48.3836 12.0587 48.3836 11.788C48.3836 11.508 48.4863 11.2653 48.6916 11.06C48.8876 10.8547 49.1256 10.752 49.4056 10.752C49.6949 10.752 49.9376 10.8547 50.1336 11.06C50.3296 11.256 50.4276 11.4987 50.4276 11.788C50.4276 12.068 50.3296 12.306 50.1336 12.502C49.9283 12.7073 49.6856 12.81 49.4056 12.81ZM48.6356 21V14.042H50.1896V21H48.6356ZM58.6707 17.976H53.3787C53.388 18.48 53.6027 18.914 54.0227 19.278C54.4427 19.6327 54.9093 19.8053 55.4227 19.796C56.3933 19.796 57.0093 19.404 57.2707 18.62L58.5727 19.026C58.4513 19.446 58.2273 19.8193 57.9007 20.146C57.5833 20.4727 57.21 20.72 56.7807 20.888C56.3327 21.0467 55.8847 21.126 55.4367 21.126C54.4287 21.1447 53.5653 20.7993 52.8467 20.09C52.128 19.3807 51.778 18.522 51.7967 17.514C51.7967 16.8607 51.946 16.2587 52.2447 15.708C52.5527 15.1387 52.9727 14.7 53.5047 14.392C54.046 14.0653 54.6433 13.902 55.2967 13.902C56.3607 13.902 57.1913 14.2333 57.7887 14.896C58.3953 15.5587 58.6987 16.4267 58.6987 17.5C58.6987 17.6307 58.6893 17.7893 58.6707 17.976ZM55.3107 15.232C54.816 15.232 54.4053 15.3767 54.0787 15.666C53.7333 15.946 53.528 16.324 53.4627 16.8H57.1167C57.0887 16.3333 56.9067 15.9507 56.5707 15.652C56.216 15.372 55.796 15.232 55.3107 15.232Z" fill="white"/>
</svg>
