<svg width="28" height="28" viewbox="0 0 28 28" fill="none" xmlns="http://www.w3.org/2000/svg">
<path d="M15.0693 13.8317L20.5827 21.7178H18.3199L13.8209 15.2827V15.2823L13.1604 14.3377L7.90475 6.81995H10.1675L14.4087 12.887L15.0693 13.8317Z" fill="#FF6961"></path>
<path d="M23.8527 2H4.64728C3.18526 2 2 3.18526 2 4.64728V23.8527C2 25.3147 3.18526 26.5 4.64728 26.5H23.8527C25.3147 26.5 26.5 25.3147 26.5 23.8527V4.64728C26.5 3.18526 25.3147 2 23.8527 2ZM17.6269 22.7765L13.0741 16.1505L7.37403 22.7765H5.90083L12.42 15.1989L5.90083 5.71094H10.8731L15.1843 11.9853L20.5819 5.71094H22.0551L15.8386 12.9371H15.8382L22.5992 22.7765H17.6269Z" fill="#FF6961"></path>
</svg>
