<svg width="28" height="28" viewBox="0 0 28 28" fill="none" xmlns="http://www.w3.org/2000/svg">
<path d="M23.625 1.75H4.375C2.92578 1.75 1.75 2.92578 1.75 4.375V23.625C1.75 25.0742 2.92578 26.25 4.375 26.25H23.625C25.0742 26.25 26.25 25.0742 26.25 23.625V4.375C26.25 2.92578 25.0742 1.75 23.625 1.75ZM20.9508 10.4344C20.9617 10.5875 20.9617 10.7461 20.9617 10.8992C20.9617 15.6406 17.3523 21.1039 10.757 21.1039C8.72266 21.1039 6.83594 20.5133 5.25 19.4961C5.53984 19.5289 5.81875 19.5398 6.11406 19.5398C7.79297 19.5398 9.33516 18.9711 10.5656 18.0086C8.99062 17.9758 7.66719 16.9422 7.21328 15.5203C7.76562 15.6023 8.26328 15.6023 8.83203 15.4547C7.19141 15.1211 5.96094 13.6773 5.96094 11.9328V11.8891C6.43672 12.157 6.99453 12.3211 7.57969 12.343C7.08773 12.0157 6.68444 11.5718 6.4058 11.0508C6.12716 10.5298 5.98185 9.94788 5.98281 9.35703C5.98281 8.68984 6.15781 8.07734 6.46953 7.54688C8.23594 9.72344 10.8883 11.1453 13.8633 11.2984C13.3547 8.86484 15.1758 6.89062 17.3633 6.89062C18.3969 6.89062 19.3266 7.32266 19.9828 8.02266C20.7922 7.86953 21.5688 7.56875 22.2578 7.15859C21.9898 7.98984 21.4266 8.68984 20.6828 9.13281C21.4047 9.05625 22.1047 8.85391 22.75 8.575C22.2633 9.29141 21.6508 9.92578 20.9508 10.4344Z" fill="#0D0E10"/>
</svg>
