<svg width="80" height="80" viewBox="0 0 80 80" fill="none" xmlns="http://www.w3.org/2000/svg">
<path fill-rule="evenodd" clip-rule="evenodd" d="M73.5411 21.9364C72.7393 18.9294 70.3673 16.5576 67.3496 15.7447C61.8931 14.2856 40 14.2856 40 14.2856C40 14.2856 18.1181 14.2856 12.6504 15.7447C9.64388 16.5464 7.27187 18.9185 6.45894 21.9364C5 27.3931 5 38.7855 5 38.7855C5 38.7855 5 50.1782 6.45894 55.6349C7.26064 58.6418 9.63265 61.0137 12.6504 61.8266C18.1181 63.2856 40 63.2856 40 63.2856C40 63.2856 61.8931 63.2856 67.3496 61.8266C70.3564 61.0249 72.7281 58.6528 73.5411 55.6349C75 50.1782 75 38.7858 75 38.7858C75 38.7858 75 27.3931 73.5411 21.9364Z" fill="#FF0000"/>
<path fill-rule="evenodd" clip-rule="evenodd" d="M33.0039 49.2873L51.1886 38.7856L33.0039 28.2842V49.2873Z" fill="white"/>
</svg>
