<svg width="28" height="28" viewBox="0 0 28 28" fill="none" xmlns="http://www.w3.org/2000/svg">
<path d="M11.9656 11.0523L17.1719 14.0109L11.9656 16.9695V11.0523ZM26.25 4.375V23.625C26.25 25.0742 25.0742 26.25 23.625 26.25H4.375C2.92578 26.25 1.75 25.0742 1.75 23.625V4.375C1.75 2.92578 2.92578 1.75 4.375 1.75H23.625C25.0742 1.75 26.25 2.92578 26.25 4.375ZM23.9531 14.0164C23.9531 14.0164 23.9531 10.757 23.5375 9.19297C23.3078 8.32891 22.6352 7.65078 21.7766 7.42109C20.2289 7 14 7 14 7C14 7 7.77109 7 6.22344 7.42109C5.36484 7.65078 4.69219 8.32891 4.4625 9.19297C4.04688 10.7516 4.04688 14.0164 4.04688 14.0164C4.04688 14.0164 4.04688 17.2758 4.4625 18.8398C4.69219 19.7039 5.36484 20.3547 6.22344 20.5844C7.77109 21 14 21 14 21C14 21 20.2289 21 21.7766 20.5789C22.6352 20.3492 23.3078 19.6984 23.5375 18.8344C23.9531 17.2758 23.9531 14.0164 23.9531 14.0164Z" fill="#0D0E10"/>
</svg>
