<svg width="20" height="20" viewBox="0 0 20 20" fill="none" xmlns="http://www.w3.org/2000/svg">
<g id="Icon / Android">
<path id="Frame 68 1 (Traced)" fill-rule="evenodd" clip-rule="evenodd" d="M7.00977 2.51942C6.95246 2.57673 6.9853 2.65594 7.31286 3.24981C7.49554 3.58102 7.63849 3.85717 7.63058 3.8634C7.62263 3.86967 7.47811 3.9631 7.30946 4.07105C6.75564 4.42542 6.21026 5.02024 5.93641 5.56856C5.70539 6.03121 5.54583 6.62873 5.54583 7.03148V7.20842H9.68646H13.8271V7.03148C13.8271 6.63721 13.6684 6.03391 13.4475 5.58906C13.1673 5.0245 12.6266 4.4312 12.0643 4.0715C11.8951 3.96331 11.7503 3.86967 11.7423 3.8634C11.7344 3.85717 11.8781 3.57983 12.0616 3.2471C12.2451 2.91438 12.3897 2.61338 12.3829 2.57825C12.3757 2.54094 12.3285 2.51434 12.2694 2.51434C12.1817 2.51434 12.126 2.59042 11.8542 3.08172C11.6816 3.39375 11.522 3.66748 11.4994 3.68999C11.4723 3.71717 11.3623 3.69614 11.171 3.62718C10.3011 3.31335 9.07185 3.31335 8.2019 3.62718C8.01066 3.69614 7.90066 3.71717 7.87348 3.68999C7.85098 3.66748 7.69142 3.39375 7.51887 3.08172C7.2933 2.67369 7.18183 2.51097 7.12202 2.50236C7.07627 2.49576 7.02576 2.50347 7.00977 2.51942ZM7.99377 5.08686C8.11815 5.22276 8.14152 5.34267 8.07047 5.48009C7.90521 5.79966 7.43166 5.67474 7.43166 5.3116C7.43166 5.04041 7.81203 4.88831 7.99377 5.08686ZM11.8406 5.09526C12.0918 5.34636 11.827 5.76178 11.4906 5.64453C11.4213 5.62038 11.3373 5.54757 11.3037 5.48247C11.1322 5.15081 11.5761 4.83067 11.8406 5.09526ZM3.83666 7.47625C3.61409 7.58718 3.43981 7.79552 3.37208 8.03162C3.34835 8.11435 3.33203 9.02582 3.33203 10.2679V12.3646L3.44653 12.5838C3.61261 12.9017 3.83124 13.0435 4.18611 13.0636C4.49727 13.0811 4.66638 13.0278 4.88546 12.8431C5.18084 12.594 5.17498 12.6469 5.17596 10.2306C5.1767 8.50616 5.16563 8.0399 5.1216 7.93479C4.91383 7.43902 4.32968 7.23055 3.83666 7.47625ZM14.6983 7.45866C14.5045 7.55463 14.335 7.73518 14.2513 7.93479C14.2073 8.0399 14.1962 8.50616 14.197 10.2306C14.1979 12.6469 14.1921 12.594 14.4875 12.8431C14.7065 13.0278 14.8757 13.0811 15.1868 13.0636C15.5417 13.0435 15.7603 12.9017 15.9264 12.5838L16.0409 12.3646L16.04 10.2272C16.039 7.8421 16.047 7.91376 15.7487 7.63072C15.4676 7.364 15.0333 7.29287 14.6983 7.45866ZM5.54624 10.6419L5.54665 13.7473L5.64287 13.954C5.74721 14.178 5.93571 14.361 6.1582 14.4542C6.23662 14.4871 6.5047 14.5234 6.76289 14.5361L7.22668 14.5589L7.22759 15.6905C7.22861 16.9655 7.24341 17.0432 7.53116 17.2804C7.92932 17.6086 8.50069 17.5629 8.83148 17.1764C9.05491 16.9154 9.07152 16.8077 9.07152 15.6182V14.5468H9.68646H10.3014V15.5945C10.3014 16.2229 10.3195 16.7142 10.3467 16.822C10.4035 17.0479 10.6355 17.3226 10.8526 17.4212C11.2946 17.6219 11.8519 17.4247 12.0606 16.9936C12.1411 16.8273 12.1462 16.749 12.1462 15.6874V14.5582L12.6075 14.5375C13.2749 14.5075 13.5466 14.3586 13.7506 13.9113C13.8207 13.7573 13.8253 13.5587 13.8262 10.6419L13.8271 7.53639H9.68646H5.54583L5.54624 10.6419Z" fill="#0D0E10"/>
</g>
</svg>
