<svg width="20" height="20" viewBox="0 0 20 20" fill="none" xmlns="http://www.w3.org/2000/svg">
<path fill-rule="evenodd" clip-rule="evenodd" d="M12.615 2.51758C12.1479 2.58136 11.5555 2.85336 11.1107 3.20822C10.9666 3.32314 10.7204 3.57412 10.6058 3.72296C10.2103 4.23634 9.9715 4.83825 9.9468 5.38408C9.93939 5.5482 9.95488 5.73078 9.97819 5.75379C9.98307 5.75861 10.072 5.76225 10.1759 5.7619C10.4766 5.76085 10.772 5.68404 11.125 5.51506C11.7371 5.22207 12.2171 4.7381 12.5385 4.09002C12.71 3.74428 12.8006 3.45667 12.8457 3.11484C12.8683 2.94352 12.8733 2.68007 12.856 2.56632C12.8471 2.50778 12.8428 2.50234 12.8033 2.50014C12.7796 2.49883 12.6949 2.50666 12.615 2.51758ZM12.2979 5.94023C11.9897 5.97843 11.6199 6.07793 11.212 6.23241C10.4108 6.53582 10.3138 6.56503 10.0994 6.56751C9.87794 6.57005 9.71486 6.52434 9.13834 6.29813C8.57351 6.0765 8.28188 5.99639 7.93343 5.96716C7.3206 5.91575 6.5821 6.10301 6.00487 6.45614C4.99803 7.07212 4.37076 8.12826 4.1944 9.50447C4.16295 9.74985 4.15849 10.5087 4.18682 10.7943C4.30932 12.0298 4.70004 13.2605 5.30499 14.3165C5.612 14.8524 6.28546 15.7402 6.64482 16.0827C7.09527 16.5121 7.5164 16.6947 7.98299 16.6632C8.28381 16.6428 8.49781 16.585 8.93035 16.4071C9.08813 16.3422 9.29469 16.2634 9.38936 16.2319C9.87594 16.0701 10.4068 16.0444 10.8955 16.1591C11.1039 16.208 11.2057 16.2437 11.541 16.3855C11.9622 16.5637 12.1381 16.6126 12.4633 16.6419C13.0781 16.6974 13.6341 16.4185 14.1874 15.7771C14.6003 15.2984 15.0267 14.678 15.3177 14.1323C15.4848 13.819 15.6596 13.4192 15.7784 13.0783C15.8433 12.8923 15.8448 12.8851 15.8191 12.8847C15.8093 12.8846 15.7376 12.8528 15.66 12.814C15.1308 12.55 14.6272 12.0882 14.3371 11.6011C13.886 10.8438 13.7879 9.88727 14.0739 9.03673C14.2849 8.40956 14.7347 7.8292 15.325 7.42252L15.4644 7.32647L15.3848 7.22486C14.9863 6.71576 14.5281 6.37421 13.9463 6.1525C13.7385 6.0733 13.4675 6.0046 13.1876 5.96016C13.0217 5.9338 12.4526 5.92106 12.2979 5.94023Z" fill="#0D0E10"/>
</svg>
