<svg width="24" height="24" viewBox="0 0 24 24" fill="none" xmlns="http://www.w3.org/2000/svg">
<path d="M12.0127 3C10.8325 3 9.66375 3.23247 8.57335 3.68412C7.48297 4.13577 6.49221 4.79778 5.65766 5.63233C3.97221 7.31778 3.02533 9.60375 3.02533 11.9873C3.01748 14.0626 3.73604 16.0752 5.05647 17.6763L3.259 19.4738C3.13429 19.6001 3.04981 19.7607 3.01623 19.935C2.98264 20.1094 3.00144 20.2897 3.07027 20.4534C3.14492 20.6151 3.26592 20.751 3.41793 20.8438C3.56996 20.9366 3.74612 20.9821 3.92406 20.9747H12.0127C14.3963 20.9747 16.6822 20.0278 18.3677 18.3424C20.0531 16.6569 21 14.3709 21 11.9873C21 9.60375 20.0531 7.31778 18.3677 5.63233C16.6822 3.94688 14.3963 3 12.0127 3ZM12.0127 19.1772H6.09001L6.92583 18.3414C7.09322 18.1729 7.18718 17.9452 7.18718 17.7078C7.18718 17.4703 7.09322 17.2426 6.92583 17.0742C5.74901 15.8986 5.01618 14.3514 4.85218 12.6962C4.68818 11.041 5.10315 9.38011 6.02641 7.99652C6.94966 6.61294 8.32407 5.59227 9.91548 5.1084C11.5069 4.62454 13.2168 4.70741 14.754 5.34292C16.2912 5.97842 17.5604 7.12722 18.3455 8.59362C19.1306 10.06 19.3831 11.7532 19.0597 13.3849C18.7365 15.0165 17.8574 16.4855 16.5724 17.5417C15.2875 18.5979 13.676 19.1758 12.0127 19.1772Z" fill="black"/>
</svg>
