<svg width="24" height="24" viewBox="0 0 24 24" fill="none" xmlns="http://www.w3.org/2000/svg">
<path d="M3.57911 12.5502C4.11355 13.1943 4.95033 13.5944 5.76294 13.5944H7.91259C7.42881 14.3653 7.06472 15.1411 6.84283 15.8798C6.50424 17.0072 6.5161 17.9898 6.87713 18.7217C7.28378 19.546 8.10786 20 9.19746 20C9.44528 20 9.66862 19.8505 9.76306 19.6214C10.6115 17.5636 12.8244 14.6059 14.9093 12.6576C15.1221 13.3966 15.8039 13.9389 16.6104 13.9389H19.2297C20.2058 13.9389 21 13.1448 21 12.1686V4.38183C21 3.40568 20.2058 2.6115 19.2297 2.6115H16.6104C16.0133 2.6115 15.4846 2.90902 15.1638 3.36327C14.6785 2.89636 14.0351 2.6115 13.3302 2.6115H6.735C6.0059 2.6115 5.35663 2.92194 4.85734 3.50926C4.44575 3.99346 4.15343 4.64758 4.01203 5.40088L3.03993 10.5792C2.90951 11.274 3.101 11.9739 3.57911 12.5502ZM16.0637 4.38179C16.0637 4.08033 16.309 3.83504 16.6104 3.83504H19.2297C19.5311 3.83504 19.7764 4.08033 19.7764 4.38179V12.1686C19.7764 12.4701 19.5311 12.7153 19.2297 12.7153H16.6104C16.309 12.7153 16.0637 12.4701 16.0637 12.1686V4.38179ZM4.24252 10.805L5.21458 5.6266C5.37717 4.76049 5.86197 3.83504 6.73504 3.83504H13.3302C14.1628 3.83504 14.8401 4.58808 14.8401 5.51372V11.0864C12.534 13.0009 9.95134 16.2888 8.81119 18.7463C8.20288 18.6434 8.03579 18.3047 7.97441 18.1804C7.57732 17.3755 7.90689 15.5221 9.56878 13.3549C9.71053 13.1701 9.735 12.9208 9.63195 12.712C9.5289 12.5031 9.31623 12.3708 9.08329 12.3708H5.7629C5.31171 12.3708 4.82411 12.1346 4.52073 11.7689C4.34993 11.563 4.16295 11.2286 4.24252 10.805Z" fill="#0D0E10"/>
</svg>
