<svg width="171" height="50" viewBox="0 0 171 50" fill="none" xmlns="http://www.w3.org/2000/svg">
<path fill-rule="evenodd" clip-rule="evenodd" d="M68.5252 27.2046L67.7525 29.8926H59.8423V29.5137L60.8663 28.7896V20.1415L59.8423 19.4174V19.0385H68.1219L68.3066 19.2279L67.7864 21.6576H67.417C67.081 20.1583 66.5936 19.952 64.1753 19.952H63.0164V23.9314L66.8286 23.6904L66.9127 23.7588L66.5598 25.0339L66.4592 25.0686L63.0164 24.7244V28.9791H64.1081C66.0729 28.9791 67.0979 28.6696 68.1558 27.0673L68.5252 27.2046ZM149.998 19.4174L148.974 20.1415V29.7542L148.84 29.8926H147.21L141.197 21.365V28.7896L142.407 29.5137V29.8926H139.081V29.5137L140.106 28.7896V20.1073L138.93 19.4174V19.0385H142.104L147.882 27.2736V20.1415L146.673 19.4174V19.0385H149.998V19.4174ZM132.699 28.7896L133.908 29.5137V29.8926H129.542V29.5137L130.567 28.7896V20.1415L129.542 19.4174V19.0385H133.976C137.066 19.0385 138.661 20.1241 138.661 22.2085C138.661 24.5861 136.411 26.2058 133.069 26.2058C132.918 26.2058 132.783 26.2058 132.699 26.1879V28.7896ZM128.702 19.4174L127.661 20.1241L124.201 29.8926H122.202L118.524 20.1757L117.45 19.4174V19.0385H121.783V19.4174L120.725 20.1583L123.714 28.0313H123.832L126.351 20.1415L125.276 19.4174V19.0385H128.702V19.4174ZM132.699 25.2928C135.05 25.3617 136.478 24.2072 136.478 22.2611C136.478 20.6582 135.673 19.8489 134.06 19.8489C133.606 19.8489 133.086 19.9689 132.699 20.1583V25.2928ZM88.0917 25.3959C88.0917 28.1008 86.3279 30.0305 83.8588 30.0305C83.1369 30.0305 82.5321 29.8405 81.9447 29.5827V32.2354L83.1539 32.959V33.3379H78.8707V32.959L79.9126 32.2354V22.7947L78.8707 22.157V21.7775L81.642 21.2092L81.9447 21.4165V22.6221C82.5998 21.7607 83.6407 21.2271 84.716 21.2271C86.7142 21.2271 88.0917 23.0184 88.0917 25.3959ZM94.8599 23.1221H94.4906C94.2217 22.9495 93.936 22.8632 93.6503 22.8632C93.0295 22.8632 92.4416 23.1047 91.9209 23.5694V28.7896L93.1639 29.5137V29.8926H88.8304V29.5137L89.8719 28.7896V22.7947L88.8304 22.157V21.7775L91.6182 21.2092L91.9209 21.4165V22.7769C92.458 21.8812 93.3989 21.2439 94.3392 21.2439C94.7763 21.2439 95.1457 21.365 95.4479 21.5881L94.8599 23.1221ZM101.175 25.4991C100.05 25.4991 98.7902 25.4649 97.4132 25.4133C97.5979 27.343 98.6219 28.4623 100.302 28.4623C101.309 28.4623 101.964 28.2039 102.518 27.7219L102.871 27.9976C102.317 29.358 101.074 30.0989 99.4617 30.0989C96.9931 30.0989 95.3304 28.3592 95.3304 25.7059C95.3304 23.1736 96.9761 21.2092 99.4786 21.2092C100.638 21.2092 101.511 21.5881 102.132 22.3296C102.754 23.0705 103.056 24.0346 103.039 25.2233L102.787 25.4822C102.452 25.4991 101.914 25.4991 101.175 25.4991ZM104.5 27.4461H104.853C105.508 28.5486 106.465 29.1859 107.288 29.1859C108.028 29.1859 108.481 28.7896 108.481 28.1697C108.481 27.463 108.078 27.0841 107.07 26.6884L106.314 26.3953C104.887 25.8438 104.03 24.9655 104.03 23.8109C104.03 22.3811 105.34 21.2787 107.288 21.2787C108.413 21.2787 109.488 21.5544 110.278 22.0364L109.472 23.4494H109.136C108.582 22.5706 107.893 22.1227 107.087 22.1227C106.365 22.1227 105.894 22.5359 105.894 23.1047C105.894 23.7246 106.331 24.1035 107.624 24.6208L108.481 24.9655C109.791 25.4822 110.362 26.2921 110.362 27.343C110.362 28.9964 109.069 30.0305 107.104 30.0305C105.894 30.0305 104.668 29.7032 103.778 29.1348L104.5 27.4461ZM111.873 27.4461H112.226C112.881 28.5486 113.839 29.1859 114.661 29.1859C115.4 29.1859 115.854 28.7896 115.854 28.1697C115.854 27.463 115.451 27.0841 114.443 26.6884L113.687 26.3953C112.259 25.8438 111.403 24.9655 111.403 23.8109C111.403 22.3811 112.713 21.2787 114.661 21.2787C115.787 21.2787 116.861 21.5544 117.651 22.0364L116.845 23.4494H116.508C115.954 22.5706 115.266 22.1227 114.46 22.1227C113.737 22.1227 113.267 22.5359 113.267 23.1047C113.267 23.7246 113.704 24.1035 114.997 24.6208L115.854 24.9655C117.164 25.4822 117.735 26.2921 117.735 27.343C117.735 28.9964 116.442 30.0305 114.476 30.0305C113.267 30.0305 112.041 29.7032 111.151 29.1348L111.873 27.4461ZM74.6557 25.5338L77.1244 28.7896L78.0478 29.5137V29.8926H73.8662V29.5137L74.7398 28.8412L73.0597 26.4989L71.4473 28.8412L72.4215 29.5137V29.8926H69.0961V29.5137L70.1211 28.807L72.5226 25.7753L70.0704 22.5706L69.13 21.8128V21.4339H73.2947V21.8128L72.4384 22.4843L74.1011 24.8102L75.7136 22.4843L74.7398 21.8128V21.4339H78.0647V21.8128L77.0402 22.519L74.6557 25.5338ZM100.906 24.3792C100.721 22.8632 100.033 22.1396 99.1093 22.1396C98.1017 22.1396 97.4296 23.1563 97.3794 24.6039L100.906 24.3792ZM86.076 26.2742C86.076 24.3624 85.1695 22.7769 83.7079 22.7769C83.1036 22.7769 82.5157 22.9842 81.9447 23.4147V27.9455C82.4151 28.6865 83.1369 29.0485 83.9932 29.0485C85.2701 29.0485 86.076 28.0145 86.076 26.2742ZM28.2546 37.2341C24.7784 37.2341 22.5611 35.2308 22.5611 32.4468C22.5611 31.5297 22.8259 30.4099 23.8519 28.135H20.2109L23.5538 20.8007H46.823C47.3527 20.8007 47.7166 20.3937 47.7166 19.9188C47.7166 19.4429 47.3527 19.0354 46.823 19.0354H27.9893L29.6445 15.4027C30.6705 13.1621 32.8882 11.7021 35.3041 11.7021H43.2154C47.7828 11.7021 51.159 14.9273 51.159 19.137C51.159 24.1285 46.6906 28.135 41.5273 28.135H26.2355C25.7715 29.1195 26.3012 29.9008 27.4267 29.9008H39.6072C41.6263 29.9008 43.182 31.3602 43.182 33.2276C43.182 35.3666 41.1634 37.2341 38.8789 37.2341H28.2546Z" fill="#DA3940"/>
</svg>
