<svg width="24" height="24" viewBox="0 0 24 24" fill="none" xmlns="http://www.w3.org/2000/svg">
<path d="M20.4209 10.4498C19.8864 9.80573 19.0497 9.40561 18.2371 9.40561H16.0874C16.5712 8.63468 16.9353 7.85889 17.1572 7.12015C17.4958 5.99285 17.4839 5.01016 17.1229 4.2783C16.7162 3.45399 15.8921 3 14.8025 3C14.5547 3 14.3314 3.14951 14.2369 3.37862C13.3885 5.43642 11.1756 8.39405 9.09066 10.3424C8.8779 9.60342 8.1961 9.06106 7.38957 9.06106H4.77033C3.79418 9.06106 3 9.85524 3 10.8314V18.6182C3 19.5943 3.79418 20.3885 4.77033 20.3885H7.38957C7.98672 20.3885 8.51538 20.091 8.83619 19.6367C9.32149 20.1036 9.96487 20.3885 10.6698 20.3885H17.265C17.9941 20.3885 18.6434 20.0781 19.1427 19.4907C19.5542 19.0065 19.8466 18.3524 19.988 17.5991L20.9601 12.4208C21.0905 11.726 20.899 11.0261 20.4209 10.4498ZM7.93628 18.6182C7.93628 18.9197 7.69103 19.165 7.38957 19.165H4.77033C4.46887 19.165 4.22358 18.9197 4.22358 18.6182V10.8314C4.22358 10.5299 4.46887 10.2847 4.77033 10.2847H7.38957C7.69103 10.2847 7.93628 10.5299 7.93628 10.8314V18.6182ZM19.7575 12.195L18.7854 17.3734C18.6228 18.2395 18.138 19.165 17.265 19.165H10.6698C9.83723 19.165 9.1599 18.4119 9.1599 17.4863V11.9136C11.466 9.99913 14.0487 6.71117 15.1888 4.25368C15.7971 4.35661 15.9642 4.69528 16.0256 4.81962C16.4227 5.62455 16.0931 7.47793 14.4312 9.64509C14.2895 9.82989 14.265 10.0792 14.368 10.288C14.4711 10.4969 14.6838 10.6292 14.9167 10.6292H18.2371C18.6883 10.6292 19.1759 10.8654 19.4793 11.2311C19.6501 11.437 19.837 11.7714 19.7575 12.195Z" fill="#0D0E10"/>
</svg>
