<svg width="32" height="32" viewBox="0 0 32 32" fill="none" xmlns="http://www.w3.org/2000/svg">
<g id="Icon / Money">
<g id="Union">
<path d="M15.2969 18.1562C15.2969 18.544 15.6123 18.8594 16 18.8594C17.1631 18.8594 18.1094 19.8056 18.1094 20.9688C18.1094 21.8522 17.5518 22.6489 16.722 22.9511L16.7032 22.9575V23.7812C16.7032 24.1696 16.3884 24.4844 16 24.4844C15.6117 24.4844 15.2969 24.1696 15.2969 23.7812V22.9638C14.833 22.8076 14.3905 22.4972 14.0104 22.0446C13.7607 21.7473 13.7993 21.3038 14.0966 21.054C14.394 20.8043 14.8375 20.8428 15.0872 21.1402C15.4591 21.583 15.8795 21.7613 16.2407 21.6298C16.5173 21.5291 16.7031 21.2634 16.7031 20.9688C16.7031 20.581 16.3877 20.2656 16 20.2656C14.8369 20.2656 13.8906 19.3194 13.8906 18.1562C13.8906 17.3071 14.3959 16.5445 15.1778 16.2133C15.2172 16.1966 15.257 16.1816 15.2969 16.1674V15.3438C15.2969 14.9554 15.6117 14.6406 16 14.6406C16.3883 14.6406 16.7031 14.9554 16.7031 15.3438V16.1628C17.0684 16.2855 17.4213 16.5029 17.7387 16.8104C18.0176 17.0806 18.0247 17.5257 17.7544 17.8046C17.4842 18.0835 17.0391 18.0905 16.7602 17.8203C16.4178 17.4887 16.0411 17.3749 15.7262 17.5082C15.4654 17.6187 15.2969 17.873 15.2969 18.1562Z" fill="#FF6961"/>
<path fill-rule="evenodd" clip-rule="evenodd" d="M19.6721 12.1228C20.7208 12.7118 21.6761 13.5309 22.5118 14.559C24.1825 16.6143 25.1406 19.2069 25.1406 21.6719C25.1406 26.7835 21.0639 28 16 28C10.9397 28 6.85938 26.7855 6.85938 21.6719C6.85938 19.2069 7.81755 16.6143 9.48822 14.559C10.324 13.5308 11.2794 12.7116 12.3282 12.1226C12.156 11.9193 12.0205 11.6812 11.9333 11.4163C11.5884 10.3662 12.0963 9.12583 13.3716 8.72322L11.5768 5.59356C11.3506 5.19906 11.5533 4.69567 11.9904 4.56859C13.2881 4.1913 14.6371 4 16 4C17.3629 4 18.7119 4.1913 20.0096 4.56859C20.4462 4.69553 20.6497 5.19859 20.4232 5.59356L18.6284 8.72317C19.9087 9.12784 20.4103 10.37 20.0669 11.4158C19.9794 11.6813 19.8439 11.9196 19.6721 12.1228ZM16 5.40625C15.0737 5.40625 14.1547 5.50408 13.2576 5.69772L14.8061 8.39786C15.5994 8.28714 16.4009 8.28709 17.194 8.39781L18.7424 5.69772C17.8453 5.50408 16.9263 5.40625 16 5.40625ZM17.4239 9.86275C16.1931 9.6167 14.9271 9.69194 13.717 10.0889C13.3495 10.21 13.1481 10.6086 13.2691 10.9771C13.3562 11.2413 13.5885 11.4261 13.8654 11.4546C14.5651 11.236 15.2788 11.125 16 11.125C16.7227 11.125 17.4377 11.2365 18.1388 11.456C18.4115 11.4263 18.6433 11.2428 18.7311 10.9764C18.8519 10.6086 18.6505 10.21 18.282 10.0885C18.0001 9.99606 17.7152 9.92116 17.4283 9.86359L17.4239 9.86275ZM8.26562 21.6719C8.26562 25.1678 10.5064 26.6031 16 26.6031C21.4936 26.6031 23.7344 25.1678 23.7344 21.6719C23.7344 19.5558 22.8694 17.2285 21.4206 15.446C20.0604 13.7726 18.1659 12.5312 16 12.5312C14.0323 12.5312 12.1073 13.5664 10.5794 15.446C9.13061 17.2285 8.26562 19.5558 8.26562 21.6719Z" fill="#FF6961"/>
</g>
</g>
</svg>
