<svg width="24" height="24" viewBox="0 0 24 24" fill="none" xmlns="http://www.w3.org/2000/svg">
<path d="M19.5444 4.45486C19.155 4.0656 18.6035 3.91326 18.0706 4.04823L5.16976 7.2968C4.50885 7.46339 4.03971 8.03234 4.00143 8.71279C3.96393 9.39323 4.36706 10.011 5.00532 10.2497L11.3692 12.6301L13.7496 18.9938C13.9778 19.6045 14.5532 20.0002 15.1984 20.0002C15.2278 20.0002 15.2574 19.9994 15.2867 19.9977C15.9676 19.9598 16.5363 19.4903 16.7027 18.8293L19.9511 5.92866C20.0854 5.39506 19.9335 4.84411 19.5444 4.45486ZM16.8672 6.00131L11.7895 11.0789L5.71936 8.80847L16.8672 6.00131ZM15.191 18.2801L12.9208 12.2101L17.998 7.13292L15.191 18.2801Z" fill="black"/>
</svg>
