<svg width="20" height="20" viewBox="0 0 20 20" fill="none" xmlns="http://www.w3.org/2000/svg">
<g id="Icon / Window">
<path id="Frame 64 1 (Traced)" fill-rule="evenodd" clip-rule="evenodd" d="M18.1521 1.10942C17.4836 1.21342 14.0588 1.71531 11.1249 2.13918C10.2415 2.26681 9.46058 2.38436 9.38962 2.40042L9.26055 2.42956V6.01378V9.598L11.9137 9.59794C13.3729 9.59788 15.5542 9.58079 16.761 9.55991L18.9552 9.52199V5.25765C18.9552 1.88075 18.9403 0.994632 18.8835 1.00002C18.8441 1.0037 18.515 1.05297 18.1521 1.10942ZM6.67913 2.76927C5.84304 2.88601 4.22322 3.10859 3.07954 3.26376L1.00011 3.546L1.00006 6.60068L1 9.65536H4.67136H8.34271V6.09874C8.34271 3.28774 8.32768 2.54366 8.27101 2.54951C8.2316 2.55364 7.51522 2.65248 6.67913 2.76927ZM1 13.4654C1 15.156 1.01933 16.5404 1.04302 16.542C1.06672 16.5435 2.71234 16.7698 4.70004 17.0449L8.31403 17.545L8.32883 14.0213C8.33692 12.0833 8.33692 10.4921 8.32883 10.4854C8.32068 10.4787 6.6684 10.4549 4.65702 10.4325L1 10.3917V13.4654ZM9.22246 12.5376C9.24334 13.65 9.26044 15.2601 9.26044 16.1159L9.26055 17.6716L9.70513 17.7293C9.94962 17.7611 12.1187 18.0649 14.5253 18.4045C16.9319 18.7441 18.9099 19.0119 18.9209 18.9996C18.9318 18.9873 18.9505 17.0798 18.9624 14.7608L18.9839 10.5445L14.0843 10.5298L9.1846 10.5152L9.22246 12.5376Z" fill="#0D0E10"/>
</g>
</svg>
