<svg width="99" height="46" viewBox="0 0 99 46" fill="none" xmlns="http://www.w3.org/2000/svg">
<path d="M0 0H99L89 36H0V0Z" fill="#FF6961"/>
<path d="M0 36H10V46L0 36Z" fill="#D8423A"/>
<path d="M20.308 10.794H22.016L24.312 18.732L26.762 10.794H28.54L31.018 18.732L33.356 10.794H35.022L31.9 21H30.08L27.644 13.02H27.63L25.18 21H23.374L20.308 10.794ZM37.1048 12.81C36.8342 12.81 36.5962 12.7073 36.3908 12.502C36.1855 12.2967 36.0828 12.0587 36.0828 11.788C36.0828 11.508 36.1855 11.2653 36.3908 11.06C36.5868 10.8547 36.8248 10.752 37.1048 10.752C37.3942 10.752 37.6368 10.8547 37.8328 11.06C38.0288 11.256 38.1268 11.4987 38.1268 11.788C38.1268 12.068 38.0288 12.306 37.8328 12.502C37.6275 12.7073 37.3848 12.81 37.1048 12.81ZM36.3348 21V14.042H37.8888V21H36.3348ZM44.6619 21V17.108C44.6619 16.5667 44.5312 16.142 44.2699 15.834C44.0085 15.526 43.6259 15.372 43.1219 15.372C42.6272 15.372 42.2352 15.5307 41.9459 15.848C41.6565 16.1653 41.5119 16.59 41.5119 17.122V21H39.9579V14.042H41.4699V14.98C41.6752 14.7093 41.9225 14.4853 42.2119 14.308C42.5012 14.14 42.7485 14.028 42.9539 13.972C43.1872 13.9253 43.4019 13.902 43.5979 13.902C44.4565 13.902 45.1052 14.1633 45.5439 14.686C45.9825 15.19 46.2019 15.8667 46.2019 16.716V21H44.6619ZM52.906 21V17.108C52.906 16.5667 52.7753 16.142 52.514 15.834C52.2527 15.526 51.87 15.372 51.366 15.372C50.8713 15.372 50.4793 15.5307 50.19 15.848C49.9007 16.1653 49.756 16.59 49.756 17.122V21H48.202V14.042H49.714V14.98C49.9193 14.7093 50.1667 14.4853 50.456 14.308C50.7453 14.14 50.9927 14.028 51.198 13.972C51.4313 13.9253 51.646 13.902 51.842 13.902C52.7007 13.902 53.3493 14.1633 53.788 14.686C54.2267 15.19 54.446 15.8667 54.446 16.716V21H52.906ZM62.8582 17.976H57.5662C57.5755 18.48 57.7902 18.914 58.2102 19.278C58.6302 19.6327 59.0968 19.8053 59.6102 19.796C60.5808 19.796 61.1968 19.404 61.4582 18.62L62.7602 19.026C62.6388 19.446 62.4148 19.8193 62.0882 20.146C61.7708 20.4727 61.3975 20.72 60.9682 20.888C60.5202 21.0467 60.0722 21.126 59.6242 21.126C58.6162 21.1447 57.7528 20.7993 57.0342 20.09C56.3155 19.3807 55.9655 18.522 55.9842 17.514C55.9842 16.8607 56.1335 16.2587 56.4322 15.708C56.7402 15.1387 57.1602 14.7 57.6922 14.392C58.2335 14.0653 58.8308 13.902 59.4842 13.902C60.5482 13.902 61.3788 14.2333 61.9762 14.896C62.5828 15.5587 62.8862 16.4267 62.8862 17.5C62.8862 17.6307 62.8768 17.7893 62.8582 17.976ZM59.4982 15.232C59.0035 15.232 58.5928 15.3767 58.2662 15.666C57.9208 15.946 57.7155 16.324 57.6502 16.8H61.3042C61.2762 16.3333 61.0942 15.9507 60.7582 15.652C60.4035 15.372 59.9835 15.232 59.4982 15.232ZM68.2795 14.014V15.61C68.1582 15.582 68.0135 15.568 67.8455 15.568C67.2575 15.568 66.8049 15.7313 66.4875 16.058C66.1795 16.3847 66.0255 16.8513 66.0255 17.458V21H64.4715V14.042H65.9975V15.12C66.1935 14.756 66.4595 14.476 66.7955 14.28C67.1409 14.084 67.5095 13.986 67.9015 13.986C68.0042 13.986 68.1302 13.9953 68.2795 14.014Z" fill="white"/>
</svg>
