<svg width="74" height="24" viewBox="0 0 74 24" fill="none" xmlns="http://www.w3.org/2000/svg">
<path d="M4 24V20H0L4 24Z" fill="#286047"/>
<path d="M0 0H74L64 20H0V0Z" fill="#5DA283"/>
<path d="M9.286 4.523H10.872L13.004 11.894L15.279 4.523H16.93L19.231 11.894L21.402 4.523H22.949L20.05 14H18.36L16.098 6.59H16.085L13.81 14H12.133L9.286 4.523ZM24.8831 6.395C24.6317 6.395 24.4107 6.29967 24.2201 6.109C24.0294 5.91833 23.9341 5.69733 23.9341 5.446C23.9341 5.186 24.0294 4.96067 24.2201 4.77C24.4021 4.57933 24.6231 4.484 24.8831 4.484C25.1517 4.484 25.3771 4.57933 25.5591 4.77C25.7411 4.952 25.8321 5.17733 25.8321 5.446C25.8321 5.706 25.7411 5.927 25.5591 6.109C25.3684 6.29967 25.1431 6.395 24.8831 6.395ZM24.1681 14V7.539H25.6111V14H24.1681ZM31.9003 14V10.386C31.9003 9.88333 31.779 9.489 31.5363 9.203C31.2936 8.917 30.9383 8.774 30.4703 8.774C30.011 8.774 29.647 8.92133 29.3783 9.216C29.1096 9.51067 28.9753 9.905 28.9753 10.399V14H27.5323V7.539H28.9363V8.41C29.127 8.15867 29.3566 7.95067 29.6253 7.786C29.894 7.63 30.1236 7.526 30.3143 7.474C30.531 7.43067 30.7303 7.409 30.9123 7.409C31.7096 7.409 32.312 7.65167 32.7193 8.137C33.1266 8.605 33.3303 9.23333 33.3303 10.022V14H31.9003ZM39.5556 14V10.386C39.5556 9.88333 39.4343 9.489 39.1916 9.203C38.9489 8.917 38.5936 8.774 38.1256 8.774C37.6663 8.774 37.3023 8.92133 37.0336 9.216C36.7649 9.51067 36.6306 9.905 36.6306 10.399V14H35.1876V7.539H36.5916V8.41C36.7823 8.15867 37.0119 7.95067 37.2806 7.786C37.5493 7.63 37.7789 7.526 37.9696 7.474C38.1863 7.43067 38.3856 7.409 38.5676 7.409C39.3649 7.409 39.9673 7.65167 40.3746 8.137C40.7819 8.605 40.9856 9.23333 40.9856 10.022V14H39.5556ZM48.7969 11.192H43.8829C43.8915 11.66 44.0909 12.063 44.4809 12.401C44.8709 12.7303 45.3042 12.8907 45.7809 12.882C46.6822 12.882 47.2542 12.518 47.4969 11.79L48.7059 12.167C48.5932 12.557 48.3852 12.9037 48.0819 13.207C47.7872 13.5103 47.4405 13.74 47.0419 13.896C46.6259 14.0433 46.2099 14.117 45.7939 14.117C44.8579 14.1343 44.0562 13.8137 43.3889 13.155C42.7215 12.4963 42.3965 11.699 42.4139 10.763C42.4139 10.1563 42.5525 9.59733 42.8299 9.086C43.1159 8.55733 43.5059 8.15 43.9999 7.864C44.5025 7.56067 45.0572 7.409 45.6639 7.409C46.6519 7.409 47.4232 7.71667 47.9779 8.332C48.5412 8.94733 48.8229 9.75333 48.8229 10.75C48.8229 10.8713 48.8142 11.0187 48.7969 11.192ZM45.6769 8.644C45.2175 8.644 44.8362 8.77833 44.5329 9.047C44.2122 9.307 44.0215 9.658 43.9609 10.1H47.3539C47.3279 9.66667 47.1589 9.31133 46.8469 9.034C46.5175 8.774 46.1275 8.644 45.6769 8.644ZM53.831 7.513V8.995C53.7183 8.969 53.584 8.956 53.428 8.956C52.882 8.956 52.4617 9.10767 52.167 9.411C51.881 9.71433 51.738 10.1477 51.738 10.711V14H50.295V7.539H51.712V8.54C51.894 8.202 52.141 7.942 52.453 7.76C52.7737 7.578 53.116 7.487 53.48 7.487C53.5753 7.487 53.6923 7.49567 53.831 7.513Z" fill="white"/>
</svg>
