<svg width="24" height="24" viewBox="0 0 24 24" fill="none" xmlns="http://www.w3.org/2000/svg">
<path fill-rule="evenodd" clip-rule="evenodd" d="M22.0623 6.58093C21.8218 5.67884 21.1102 4.9673 20.2049 4.72341C18.5679 4.28571 12 4.28571 12 4.28571C12 4.28571 5.43544 4.28571 3.79512 4.72341C2.89316 4.96393 2.18156 5.67556 1.93768 6.58093C1.5 8.21795 1.5 11.6357 1.5 11.6357C1.5 11.6357 1.5 15.0535 1.93768 16.6905C2.17819 17.5926 2.8898 18.3041 3.79512 18.548C5.43544 18.9857 12 18.9857 12 18.9857C12 18.9857 18.5679 18.9857 20.2049 18.548C21.1069 18.3075 21.8184 17.5958 22.0623 16.6905C22.5 15.0535 22.5 11.6357 22.5 11.6357C22.5 11.6357 22.5 8.21795 22.0623 6.58093Z" fill="#FF0000"/>
<path fill-rule="evenodd" clip-rule="evenodd" d="M9.90137 14.7862L15.3568 11.6357L9.90137 8.48523V14.7862Z" fill="white"/>
</svg>
